<svg width="34" height="32" viewBox="0 0 34 32" fill="none" xmlns="http://www.w3.org/2000/svg">
<path fill-rule="evenodd" clip-rule="evenodd" d="M26.501 3.26074C26.4541 3.49226 26.4319 3.60192 26.4012 3.75213L26.2506 3.85124C26.1729 4.15826 26.1014 4.45556 26.0221 4.75054C25.9553 4.9995 25.8649 5.24322 25.8117 5.49464C25.7526 5.77473 25.6614 6.04542 25.6146 6.33186C25.5726 6.59037 25.6022 6.8794 25.4672 7.11163C25.3097 7.3813 25.406 7.68284 25.3055 7.95831C25.2125 8.21268 25.1672 8.4843 25.1012 8.74769C25.1071 8.74896 25.1474 8.7571 25.1973 8.76753C25.1036 9.57794 24.9893 10.3899 25.1413 11.2518C25.128 11.2701 25.0834 11.3321 25.0286 11.4082C25.0838 11.4262 25.1341 11.4426 25.186 11.4595C25.2316 11.9288 25.3073 12.404 25.3385 12.8727C25.3767 13.4499 25.5494 14.0112 25.4998 14.6007C25.4749 14.8967 25.5458 15.2191 25.6518 15.4999C25.7169 15.6719 25.6004 15.706 25.5587 15.8133C25.622 15.8428 25.6852 15.8726 25.7701 15.9122C25.806 16.2842 25.8433 16.6672 25.8815 17.0618C25.7848 17.0464 25.7262 17.037 25.6337 17.0223C25.5655 17.1959 25.3576 17.3261 25.5156 17.6814C25.3573 17.5604 25.2593 17.4856 25.1388 17.3935C25.099 17.6322 25.0833 17.726 25.0635 17.8443C25.1374 17.8792 25.2068 17.9118 25.2831 17.9478C25.2904 18.0583 25.2991 18.185 25.3073 18.3072C25.2604 18.3284 25.2111 18.3682 25.1907 18.3571C25.0406 18.2727 24.8961 18.1781 24.7509 18.0875C24.4756 18.204 24.6562 18.43 24.6208 18.6024C24.5801 18.594 24.5396 18.5854 24.4833 18.574C24.4425 18.645 24.399 18.7205 24.3531 18.8C24.1834 18.7321 24.0232 18.6681 23.7961 18.5772C23.4813 18.1691 23.1561 17.6695 22.7475 17.2515C22.5367 17.0353 22.3956 16.7351 22.1608 16.5924C21.8694 16.4151 21.8165 16.0806 21.5791 15.9146C21.3175 15.7313 21.2117 15.4294 20.9885 15.2502C20.7436 15.0535 20.6255 14.7602 20.4032 14.5805C19.8738 14.1528 19.5121 13.5488 18.9154 13.1986C18.8264 12.9265 18.4735 12.8284 18.4601 12.5066C18.1521 12.3669 17.9343 12.1188 17.7023 11.8855C17.3749 11.556 16.9458 11.3395 16.6761 10.9405C16.5998 10.8277 16.4367 10.7737 16.2359 10.6421C16.4151 11.2212 16.5688 11.7181 16.7568 12.3259C16.74 12.3785 16.6833 12.5531 16.6261 12.7292C16.7694 12.8516 16.8702 12.9377 16.9776 13.0297C17.1046 13.6156 17.4616 14.1922 17.343 14.8575C17.6406 14.888 17.6412 15.2109 17.8055 15.3442C17.8874 16.083 18.2468 16.6945 18.5029 17.4279C18.4999 17.4395 18.4745 17.5393 18.4503 17.6342C18.5121 17.9143 18.7834 18.0755 18.7886 18.3992C18.7921 18.634 18.9348 18.9002 19.0912 19.0903C19.282 19.3223 19.374 19.6088 19.3995 19.8534C19.4312 20.1572 19.6458 20.312 19.737 20.5835C19.7198 20.6518 19.6945 20.7518 19.6595 20.8904C20.0455 21.3731 20.2874 21.9595 20.6008 22.5254C20.5678 22.6197 20.5345 22.7138 20.4918 22.8354L20.8418 23.3672C20.7211 23.3521 20.6654 23.3448 20.5492 23.3299C20.7501 23.5791 20.7086 23.8245 20.6036 24.0965C20.5372 24.1008 20.4605 24.1057 20.3955 24.11C20.2992 24.5473 20.2003 24.9965 20.1101 25.4063C19.9465 25.4575 19.8223 25.4962 19.662 25.5463C19.6193 25.5207 19.5391 25.4726 19.4591 25.4247L19.3375 25.5046C19.3549 25.5709 19.3741 25.6439 19.4033 25.755C19.1119 25.9791 18.7895 25.9311 18.4677 25.848C18.2682 25.6339 18.2682 25.6339 17.8597 25.6674C17.996 25.738 18.0477 25.7648 18.128 25.8065C18.0891 25.8493 18.0452 25.8981 17.9838 25.9655C17.8898 25.8607 17.8127 25.7746 17.717 25.6681C17.6924 25.7426 17.6758 25.7919 17.6636 25.8286C17.2773 25.8113 16.89 25.794 16.4561 25.7745L16.3042 25.5436C16.2774 25.635 16.2616 25.6885 16.2404 25.7611C16.18 25.7141 16.1232 25.6697 16.0482 25.6111L15.8285 25.7557C15.7169 25.7326 15.636 25.7158 15.5546 25.699C15.5744 25.5243 15.4724 25.3292 15.6426 25.1777C15.3025 25.1641 15.3427 25.4432 15.2654 25.6886C15.1889 25.5918 15.1292 25.5164 15.0667 25.437C14.7685 25.4484 14.4719 25.3973 14.1732 25.5816C13.9239 25.7355 13.6436 25.5721 13.3841 25.3943C13.3567 25.469 13.3401 25.5142 13.3073 25.6045C13.228 25.5237 13.1578 25.4518 13.0684 25.3602C13.0461 25.3798 13.0131 25.4088 12.9149 25.4947C12.715 25.4875 12.4263 25.4232 12.1636 25.4801C11.7896 25.5613 11.4754 25.3008 11.0938 25.3903C10.7591 25.4687 10.3976 25.4416 10.0362 25.3847C9.54332 25.3072 9.0322 25.3469 8.49253 25.3357L8.67974 25.6203C8.74446 25.6109 8.83763 25.5976 8.96486 25.5796C8.96717 25.6885 8.96907 25.7837 8.97173 25.8976C9.13551 25.9787 9.30155 26.0823 9.48206 26.1437C9.63316 26.1953 9.7644 26.3744 9.95594 26.2476C10.0335 26.4782 10.2488 26.488 10.4374 26.5291C10.4254 26.5866 10.4171 26.627 10.4105 26.6585C11.101 26.811 11.7036 27.15 12.2862 27.5353C12.5096 27.5759 12.7329 27.6164 12.954 27.6568L13.0672 27.8288C13.3816 27.9501 13.6552 28.0555 13.9665 28.1753C13.9005 28.3046 13.8538 28.3964 13.7935 28.5148C13.9759 28.6077 14.1475 28.6949 14.3064 28.7757C14.4195 28.6538 14.5173 28.5489 14.6139 28.4447C15.0233 28.6183 15.399 28.7775 15.8794 28.9812C15.6482 29.0677 15.5265 28.9984 15.3876 28.9848C15.3965 29.2722 15.6486 29.1723 15.7838 29.2436C15.7805 29.3186 15.7766 29.3931 15.7689 29.5527C15.8824 29.514 15.9887 29.4779 16.0949 29.4418C16.0866 29.4851 16.0783 29.5285 16.0702 29.5717C16.111 29.489 16.1517 29.4064 16.1968 29.3154C16.3559 29.408 16.4872 29.4846 16.6166 29.5603C16.6058 29.6388 16.5977 29.6984 16.5887 29.7627C16.6424 29.7761 16.6994 29.7906 16.7732 29.8091C16.897 29.6899 17.0288 29.5633 17.1487 29.4476C17.6687 29.7033 18.1633 29.9467 18.6581 30.19C18.6531 30.2135 18.6484 30.237 18.6435 30.2602C18.5843 30.2576 18.5253 30.2553 18.379 30.2493C18.5995 30.4796 18.7814 30.6696 18.9928 30.8902C18.8325 31.0799 18.6843 31.2552 18.4689 31.5094C18.4678 31.5207 18.4575 31.6434 18.4443 31.799C17.7629 31.4999 17.0692 31.3684 16.3969 31.1914C15.4665 30.9463 14.6074 30.5333 13.7029 30.2324C12.7613 29.9192 11.8607 29.4809 10.941 29.1001C10.4175 28.883 9.88678 28.6821 9.36749 28.4549C8.6386 28.1359 7.90315 27.8271 7.20025 27.4576C6.89059 27.2948 6.53969 27.2536 6.24653 27.0243C5.99488 26.8274 5.64098 26.7601 5.33094 26.6389C4.53928 26.3292 3.75762 25.9966 2.9315 25.7767C2.39347 25.6337 1.87389 25.4199 1.26887 25.2112L0.861245 24.5916C1.00838 24.4879 1.13186 24.3231 1.40503 24.3799C1.33051 24.2335 1.26074 24.0968 1.19484 23.9676C1.45661 23.44 1.88614 23.0961 2.4633 22.8112C2.53013 22.837 2.66384 22.8886 2.90894 22.9828C2.93712 23.0024 3.07715 23.0996 3.2452 23.2167C3.36929 23.0511 3.4625 22.9268 3.5503 22.8096C3.82715 22.8248 4.10576 22.8212 4.37791 22.8607C4.60986 22.8943 4.87871 22.7051 5.05641 23.0535C5.08288 22.9268 5.09107 22.8862 5.10681 22.8107C5.35747 22.9903 5.69693 22.6806 5.918 23.0067C6.01607 22.9577 6.10405 22.9137 6.20817 22.8615C6.24621 22.8979 6.28799 22.9378 6.33424 22.9819C7.10532 22.8108 7.88385 22.9336 8.6767 23.0019C8.71472 22.9768 8.76569 22.9155 8.81873 22.9133C9.03309 22.9047 9.30338 22.8346 9.45036 22.9357C9.68898 23.1004 10.0166 22.8677 10.1894 23.1792C10.3197 23.1038 10.4405 23.0339 10.5699 22.9588C10.629 23.0026 10.6903 23.0481 10.7653 23.1037C10.8281 23.067 10.8969 23.0266 11.0034 22.9647C11.2012 23.011 11.4312 23.0647 11.7033 23.1282C11.623 23.2598 11.5756 23.3373 11.5097 23.4447C11.6974 23.4461 11.8666 23.4473 12.036 23.4484C12.0666 23.3822 12.0968 23.3163 12.1449 23.2108C12.2485 23.261 12.339 23.3293 12.4378 23.3449C12.5242 23.3586 12.6202 23.313 12.7104 23.294C12.7344 23.2348 12.7634 23.1632 12.8128 23.0415C12.9202 23.0943 13.012 23.1397 13.1666 23.2156C13.1786 23.2538 13.2184 23.3792 13.2635 23.5218L13.4737 23.3835C13.6843 23.4982 13.8305 23.58 14.0904 23.4785C14.5323 23.3057 15.0314 23.3244 15.5074 23.2753C15.5804 23.2677 15.6634 23.3586 15.7407 23.4036C15.7599 23.3406 15.776 23.2883 15.7743 23.2936C16.0398 23.3271 16.2922 23.3235 16.5195 23.3975C16.7505 23.4725 16.957 23.6242 17.2289 23.7724C17.3727 23.744 17.3306 23.6153 17.0883 23.3718C17.3532 23.4576 17.4422 23.4863 17.55 23.5214C17.5603 23.6078 17.5709 23.6968 17.591 23.8662C17.6978 23.7158 17.7696 23.6148 17.8505 23.5008C17.9011 23.504 17.9596 23.5073 18.055 23.513C18.0683 23.4346 18.1286 23.307 18.0909 23.2626C17.9065 23.0453 17.9025 22.7926 17.8815 22.5581C17.532 22.244 17.5226 21.7732 17.3303 21.3947C17.1181 20.9782 16.924 20.5439 16.7977 20.096C16.6764 19.6672 16.5643 19.2253 16.3603 18.8433C16.1436 18.4377 16.0512 17.9972 15.8677 17.5854C15.6807 17.1655 15.552 16.7151 15.4412 16.2671C15.3348 15.8353 15.1282 15.4421 15.0271 15.0042C14.9242 14.5591 14.7833 14.1071 14.6062 13.6858C14.4306 13.2682 14.3854 12.8269 14.2376 12.4085C14.0904 11.9916 13.9628 11.5669 13.8481 11.1398C13.7289 10.6965 13.6392 10.2452 13.5297 9.79913C13.4245 9.37039 13.3105 8.94356 13.191 8.4798C13.2223 8.32812 13.2635 8.12764 13.3043 7.92987C13.3568 7.9376 13.4165 7.946 13.4704 7.95397C13.7028 7.82392 13.5752 7.63446 13.5653 7.4927C13.7613 7.30491 13.9445 7.12899 14.1427 6.93892C14.1734 6.94409 14.2336 6.95406 14.2894 6.96343C14.4013 6.5426 14.7539 6.57496 15.0579 6.59494C15.3649 6.61539 15.6667 6.7112 15.9919 6.77825C16.3906 7.23193 17.0812 7.3991 17.3029 8.07009C17.39 8.03546 17.4437 8.014 17.5337 7.97795C17.7858 8.25146 18.0523 8.54086 18.354 8.86844C18.3683 8.86418 18.4389 8.84307 18.4913 8.82744C18.7607 9.06287 19.0282 9.28508 19.2807 9.52316C19.38 9.61679 19.5082 9.74252 19.5143 9.85952C19.5301 10.1569 19.6489 10.3355 19.9143 10.4675C20.0363 10.5282 20.1081 10.6887 20.2706 10.7531L20.0029 10.3462C20.0847 10.3346 20.139 10.318 20.144 10.3278C20.298 10.6157 20.5661 10.7983 20.808 10.9886C21.0118 11.1489 21.2001 11.3559 21.2144 11.5604C21.233 11.8257 21.4249 11.9387 21.5069 12.2503C21.5631 12.1032 21.5795 12.0606 21.596 12.0173C21.996 12.1949 22.1354 12.2871 22.1751 12.6072C22.2068 12.8632 22.387 12.9752 22.5492 13.1269C22.4742 12.9789 22.3992 12.8309 22.2702 12.5764C22.5623 12.8651 22.7674 13.0679 23.0567 13.354C22.887 12.2906 22.9984 11.3364 23.0047 10.3818C23.011 9.4095 23.0907 8.90679 23.3463 8.14227C23.3926 8.00333 23.3498 7.83658 23.3862 7.69215C23.4497 7.44221 23.5641 7.20393 23.6172 6.95232C23.6658 6.72135 23.6263 6.46954 23.6875 6.24349C23.8497 5.64531 24.1107 5.07673 24.2339 4.46443C24.246 4.40444 24.3545 4.36357 24.4256 4.30833C24.4228 4.20503 24.384 4.07812 24.4224 3.98197C24.6101 3.51209 24.7883 3.03426 25.0293 2.59145C25.2208 2.23949 25.3835 1.87245 25.6068 1.52951C25.8273 1.19068 26.1321 0.959621 26.3819 0.670481C26.6403 0.371469 27.0392 0.233638 27.4724 0.169663C27.3976 0.743302 28.0242 0.825233 28.2452 1.20917C28.1443 1.02641 28.0433 0.843462 27.9423 0.660517C27.971 0.644105 28 0.627736 28.0287 0.611277L28.2546 0.954668C28.3229 1.05851 28.3896 1.16351 28.4598 1.26581C28.539 1.3803 28.5888 1.53149 28.7701 1.52369C28.6595 1.6886 28.9213 1.69543 28.8961 1.80493C28.8512 2.00156 29.145 1.88758 29.1215 2.07804C29.1087 2.1832 29.1645 2.30539 29.215 2.40711C29.2775 2.53273 29.3667 2.64499 29.4371 2.75209C29.3707 2.83919 29.3245 2.89984 29.2513 2.99571C29.3635 2.96707 29.4345 2.94901 29.5333 2.92355C29.5742 2.97539 29.6226 3.03648 29.7016 3.13661C29.6677 3.30176 29.6275 3.49747 29.5913 3.67335C29.6567 3.76198 29.704 3.82596 29.7472 3.88456C29.8382 3.86306 29.9124 3.84561 30.0149 3.82128C29.9548 3.92098 29.9089 3.9973 29.863 4.07381L29.9378 4.18757C30.025 4.17516 30.1184 4.16204 30.2212 4.14725C30.3205 4.50953 30.3646 4.87903 30.5869 5.19993C30.6874 5.3453 30.6785 5.56651 30.7235 5.77379C30.7199 5.77236 30.7547 5.78432 30.808 5.80272C30.91 6.10983 31.0158 6.42808 31.146 6.82023C30.9805 6.76802 30.87 6.73304 30.7672 6.70067C30.8529 6.8814 30.9377 6.98258 31.1149 7.10993C31.1137 7.12956 31.1146 7.14946 31.1113 7.16903C31.104 7.20976 31.0949 7.25011 31.0849 7.29759C31.1255 7.30413 31.166 7.3097 31.206 7.3174C31.2254 7.32129 31.2442 7.3291 31.2646 7.33578C31.31 7.50165 31.3556 7.66874 31.4155 7.88826L30.9594 8.18836C30.9633 8.21926 30.9675 8.25005 30.9718 8.28101C31.0651 8.2807 31.1584 8.28008 31.2912 8.27968C31.3151 8.2345 31.3573 8.15437 31.4379 8.00219C31.5364 8.28131 31.617 8.50902 31.695 8.73028C31.6414 8.7855 31.6009 8.82677 31.559 8.86991C31.9084 9.01484 31.8915 9.3015 31.8689 9.59655C31.8618 9.69063 31.8748 9.79079 31.9009 9.88166C31.9589 10.0855 32.0309 10.2853 32.1112 10.5279C32.1063 10.5337 32.0691 10.5774 31.9925 10.6682C32.0624 10.7602 32.1461 10.8705 32.2794 11.0458C32.2847 11.0001 32.2626 11.0572 32.2747 11.1053C32.3722 11.4958 32.5159 11.8742 32.5811 12.2734C32.5874 12.311 32.6231 12.3425 32.6362 12.3799C32.7214 12.6238 32.5141 12.8948 32.6968 13.1265C32.8581 13.3311 32.7756 13.5794 32.8377 13.8018C32.9046 14.041 32.9491 14.2865 32.9992 14.5299C33.0148 14.605 33.0024 14.6878 33.0289 14.7573C33.0573 14.8329 33.1159 14.8971 33.1821 14.9977C33.15 15.0881 33.1091 15.2041 33.0786 15.2899L33.3101 15.6418C33.2288 15.9933 33.1407 16.3475 33.392 16.6755C33.4144 16.7047 33.4376 16.7524 33.4293 16.7829C33.2887 17.2995 33.5954 17.7658 33.5892 18.2758C33.5832 18.7676 33.7407 19.2592 33.7771 19.7545C33.8255 20.4106 33.8267 21.07 33.8446 21.7281C33.8465 21.7885 33.8351 21.857 33.8069 21.9094C33.5435 22.3994 33.2748 22.8867 33.0331 23.3289C32.7455 23.4472 32.509 23.5444 32.2051 23.6695C32.0991 23.6198 31.9251 23.538 31.756 23.4588C31.6806 23.1105 31.5907 22.7766 31.5401 22.4367C31.4893 22.0951 31.4523 21.7471 31.4542 21.4024C31.4578 20.6478 31.2924 19.9116 31.2416 19.1644C31.2115 18.7222 31.0492 18.2883 31.1522 17.8375C30.9121 17.1216 30.8783 16.3709 30.7577 15.6345C30.7055 15.3161 30.7006 14.9863 30.5957 14.672C30.4988 14.3826 30.4475 14.078 30.3749 13.7805C30.1487 12.85 29.9267 11.9188 29.6935 10.9902C29.5722 10.5066 29.4399 10.0251 29.2961 9.54756C29.1511 9.06667 28.9531 8.59276 28.8325 8.11579C28.6211 7.27989 28.19 6.53813 27.9497 5.71798C27.8229 5.28489 27.5441 4.89265 27.3088 4.49687C27.0798 4.11109 26.819 3.74411 26.501 3.26074Z" fill="#004DB3"/>
</svg>
