<svg width="32" height="32" viewBox="0 0 18 19" fill="none" xmlns="http://www.w3.org/2000/svg">
<rect x="0.0722656" y="0.785583" width="17.5918" height="17.5918" rx="2.19897" fill="#9269CD" fill-opacity="0.2"/>
<mask id="mask0_25_251" style="mask-type:alpha" maskUnits="userSpaceOnUse" x="4" y="5" width="10" height="9">
<rect x="4.47021" y="5.18353" width="8.79588" height="8.79588" fill="#D9D9D9"/>
</mask>
<g mask="url(#mask0_25_251)">
<path d="M7.95212 11.2307V7.93225L10.5176 9.58148L7.95212 11.2307ZM8.86836 13.6129C8.20867 13.6129 7.59027 13.4617 7.01316 13.1592C6.43581 12.857 5.95472 12.434 5.5699 11.8904V12.8799H4.83691V10.681H7.03588V11.414H6.13797C6.44949 11.8721 6.84494 12.231 7.32432 12.4907C7.80394 12.7502 8.31862 12.8799 8.86836 12.8799C9.57081 12.8799 10.2075 12.6784 10.7785 12.2752C11.3498 11.8721 11.7515 11.3376 11.9836 10.6718L12.6982 10.8367C12.4234 11.6674 11.9347 12.3379 11.2323 12.8481C10.5298 13.358 9.74184 13.6129 8.86836 13.6129ZM4.85524 9.21499C4.898 8.80573 4.99573 8.41322 5.14843 8.03744C5.30114 7.6619 5.51188 7.31532 5.78064 6.99769L6.30289 7.51995C6.10743 7.77038 5.94862 8.03756 5.82645 8.32147C5.70429 8.60563 5.62793 8.90346 5.59739 9.21499H4.85524ZM6.81599 7.00685L6.29373 6.4846C6.61747 6.21583 6.96564 6.00351 7.33824 5.84763C7.71085 5.69199 8.09872 5.5989 8.50187 5.56836V6.30135C8.19034 6.33189 7.89409 6.40824 7.61311 6.53041C7.33213 6.65257 7.06643 6.81139 6.81599 7.00685ZM10.9299 7.00685C10.6795 6.81139 10.4123 6.65257 10.1284 6.53041C9.84421 6.40824 9.54638 6.33189 9.23486 6.30135V5.56836C9.64411 5.60501 10.0365 5.69969 10.412 5.85239C10.7878 6.0051 11.1345 6.21583 11.4522 6.4846L10.9299 7.00685ZM12.1485 9.21499C12.118 8.90346 12.0416 8.60563 11.9194 8.32147C11.7973 8.03756 11.6385 7.77038 11.443 7.51995L11.9652 6.99769C12.234 7.31532 12.4447 7.6619 12.5974 8.03744C12.7502 8.41322 12.8448 8.80573 12.8815 9.21499H12.1485Z" fill="#9269CD"/>
</g>
</svg>
