<svg width="32" height="32" viewBox="0 0 18 18" fill="none" xmlns="http://www.w3.org/2000/svg">
<rect x="0.0722656" width="17.5918" height="17.5918" rx="2.19897" fill="#3FA96A" fill-opacity="0.2"/>
<mask id="mask0_25_236" style="mask-type:alpha" maskUnits="userSpaceOnUse" x="4" y="4" width="10" height="10">
<rect x="4.47021" y="4.39795" width="8.79588" height="8.79588" fill="#D9D9D9"/>
</mask>
<g mask="url(#mask0_25_236)">
<path d="M9.60127 11.9936V11.2422C10.151 11.0834 10.5939 10.778 10.9298 10.326C11.2658 9.874 11.4337 9.3609 11.4337 8.78673C11.4337 8.21255 11.2658 7.69946 10.9298 7.24745C10.5939 6.79544 10.151 6.49002 9.60127 6.33121V5.5799C10.3587 5.75093 10.9756 6.13416 11.4521 6.72959C11.9285 7.32527 12.1667 8.01098 12.1667 8.78673C12.1667 9.56248 11.9285 10.2481 11.4521 10.8435C10.9756 11.4392 10.3587 11.8225 9.60127 11.9936ZM5.56982 9.89537V7.6964H7.0358L8.86828 5.86393V11.7279L7.0358 9.89537H5.56982ZM9.60127 10.2619V7.31158C9.88836 7.44597 10.1129 7.64754 10.2749 7.9163C10.4366 8.18506 10.5175 8.47826 10.5175 8.79589C10.5175 9.10741 10.4366 9.39596 10.2749 9.66155C10.1129 9.92738 9.88836 10.1275 9.60127 10.2619Z" fill="#3FA96A"/>
</g>
</svg>
