<svg width="32" height="32" viewBox="0 0 19 18" fill="none" xmlns="http://www.w3.org/2000/svg">
<rect x="0.85791" width="17.5918" height="17.5918" rx="2.19897" fill="#F79E8E" fill-opacity="0.2"/>
<mask id="mask0_25_243" style="mask-type:alpha" maskUnits="userSpaceOnUse" x="5" y="4" width="10" height="10">
<rect x="5.25586" y="4.39795" width="8.79588" height="8.79588" fill="#D9D9D9"/>
</mask>
<g mask="url(#mask0_25_243)">
<path d="M5.62256 8.79585C5.62256 8.23389 5.72799 7.70858 5.93884 7.21992C6.14946 6.73126 6.43801 6.30515 6.80451 5.94159C7.171 5.57827 7.59858 5.29118 8.08724 5.08032C8.5759 4.86971 9.09815 4.7644 9.654 4.7644C10.2099 4.7644 10.7321 4.86971 11.2208 5.08032C11.7094 5.29118 12.137 5.57827 12.5035 5.94159C12.87 6.30515 13.1587 6.73126 13.3695 7.21992C13.5801 7.70858 13.6855 8.23389 13.6855 8.79585H12.9525C12.9525 8.33773 12.8655 7.90857 12.6915 7.50835C12.5173 7.10838 12.2806 6.75875 11.9812 6.45944C11.6819 6.16014 11.3323 5.92497 10.9323 5.75394C10.5321 5.58291 10.106 5.49739 9.654 5.49739C9.20199 5.49739 8.77588 5.58291 8.37567 5.75394C7.9757 5.92497 7.62607 6.16014 7.32676 6.45944C7.02746 6.75875 6.7907 7.10838 6.61649 7.50835C6.44253 7.90857 6.35555 8.33773 6.35555 8.79585H5.62256ZM7.08854 8.79585C7.08854 8.07508 7.33898 7.46731 7.83985 6.97254C8.34073 6.47777 8.94545 6.23038 9.654 6.23038C10.3626 6.23038 10.9673 6.47777 11.4682 6.97254C11.969 7.46731 12.2195 8.07508 12.2195 8.79585H11.4865C11.4865 8.28887 11.3079 7.85665 10.9507 7.49919C10.5932 7.14198 10.161 6.96337 9.654 6.96337C9.14702 6.96337 8.71492 7.14198 8.35771 7.49919C8.00026 7.85665 7.82153 8.28887 7.82153 8.79585H7.08854ZM8.55452 12.6074L8.04143 12.0943L9.28751 10.8482V9.63879C9.12259 9.56549 8.98979 9.45249 8.88913 9.29978C8.78822 9.14707 8.73777 8.9791 8.73777 8.79585C8.73777 8.5393 8.82634 8.32246 9.00348 8.14532C9.18062 7.96818 9.39746 7.87961 9.654 7.87961C9.91055 7.87961 10.1274 7.96818 10.3045 8.14532C10.4817 8.32246 10.5702 8.5393 10.5702 8.79585C10.5702 8.9791 10.5199 9.14707 10.4192 9.29978C10.3183 9.45249 10.1854 9.56549 10.0205 9.63879V10.8482L11.2666 12.0943L10.7535 12.6074L9.654 11.5079L8.55452 12.6074Z" fill="#F69E8E"/>
</g>
</svg>
