<svg width="32" height="32" viewBox="0 0 19 19" fill="none" xmlns="http://www.w3.org/2000/svg">
<rect x="0.85791" y="0.785583" width="17.5918" height="17.5918" rx="2.19897" fill="#5978CF" fill-opacity="0.2"/>
<mask id="mask0_25_258" style="mask-type:alpha" maskUnits="userSpaceOnUse" x="5" y="5" width="10" height="9">
<rect x="5.25586" y="5.18353" width="8.79588" height="8.79588" fill="#D9D9D9"/>
</mask>
<g mask="url(#mask0_25_258)">
<path d="M8.18766 11.7804H11.1196V11.0474H8.18766V11.7804ZM8.18766 10.3144H11.1196V9.58145H8.18766V10.3144ZM7.45467 13.2464C7.2531 13.2464 7.0806 13.1747 6.93718 13.0313C6.79351 12.8876 6.72168 12.715 6.72168 12.5134V6.64949C6.72168 6.44792 6.79351 6.2753 6.93718 6.13164C7.0806 5.98821 7.2531 5.9165 7.45467 5.9165H10.3866L12.5856 8.11547V12.5134C12.5856 12.715 12.5139 12.8876 12.3705 13.0313C12.2268 13.1747 12.0542 13.2464 11.8526 13.2464H7.45467ZM10.0201 8.48197V6.64949H7.45467V12.5134H11.8526V8.48197H10.0201Z" fill="#5978CF"/>
</g>
</svg>
