<svg width="125" height="50" viewBox="0 0 125 50" fill="none" xmlns="http://www.w3.org/2000/svg">
<path d="M23.2 3.732C23.3253 3.57533 23.4507 3.41866 23.576 3.262C23.8267 2.98 24.093 2.71367 24.375 2.463C24.7197 2.181 25.1583 1.899 25.691 1.617C26.255 1.335 26.8973 1.20967 27.618 1.241C27.8687 1.241 28.1037 1.27233 28.323 1.335C28.511 1.39767 28.6833 1.49167 28.84 1.617C28.9967 1.711 29.1063 1.86766 29.169 2.087C30.861 1.67967 32.5687 1.31933 34.292 1.006C36.0153 0.661331 37.676 0.410664 39.274 0.253997C40.872 0.0973309 42.376 0.0503315 43.786 0.112999C45.196 0.144332 46.4337 0.300999 47.499 0.582999C48.5643 0.864999 49.4103 1.288 50.037 1.852C50.695 2.416 51.0553 3.13667 51.118 4.014C51.118 4.296 51.1023 4.578 51.071 4.86C51.0083 5.11067 50.93 5.36133 50.836 5.612C50.7733 5.86267 50.648 6.11333 50.46 6.364C50.272 6.61467 50.037 6.75566 49.755 6.787C49.5043 6.787 49.2067 6.61466 48.862 6.27C48.58 5.988 47.8593 5.706 46.7 5.424C45.5407 5.11067 43.974 4.907 42 4.813C40.0573 4.719 37.7387 4.78167 35.044 5.001C32.3807 5.22033 29.3883 5.72167 26.067 6.505C24.9703 8.07167 23.8423 9.889 22.683 11.957C21.5237 13.9937 20.4583 15.952 19.487 17.832C18.359 20.0253 17.2467 22.25 16.15 24.506C14.4893 27.8273 13.1577 30.6787 12.155 33.06C11.1837 35.41 10.4787 37.431 10.04 39.123C9.41333 41.5043 9.03733 43.2903 8.912 44.481C8.78667 45.703 8.75533 46.5803 8.818 47.113C8.912 47.6457 9.03733 47.9747 9.194 48.1C9.35067 48.2567 9.41333 48.4447 9.382 48.664C9.31933 48.9147 9.20967 49.1027 9.053 49.228C8.92767 49.3533 8.78667 49.4473 8.63 49.51C8.442 49.5727 8.254 49.604 8.066 49.604C7.502 49.5727 7.04767 49.3847 6.703 49.04C6.35833 48.6953 6.092 48.2567 5.904 47.724C5.74733 47.1913 5.63767 46.596 5.575 45.938C5.54367 45.28 5.54367 44.6063 5.575 43.917C5.669 42.319 5.96667 40.5173 6.468 38.512C6.96933 36.1307 7.75267 33.5613 8.818 30.804C9.91467 28.0153 11.121 25.258 12.437 22.532C13.753 19.7747 15.116 17.1427 16.526 14.636C17.936 12.1293 19.205 9.95167 20.333 8.103C17.2937 9.231 14.7557 10.3433 12.719 11.44C10.7137 12.5053 9.08433 13.555 7.831 14.589C6.609 15.5917 5.70033 16.563 5.105 17.503C4.541 18.4117 4.18067 19.289 4.024 20.135C3.86733 20.9497 3.85167 21.7173 3.977 22.438C4.13367 23.1273 4.32167 23.754 4.541 24.318C4.76033 24.8507 4.94833 25.305 5.105 25.681C5.26167 26.057 5.27733 26.339 5.152 26.527C4.90133 26.8717 4.541 27.0127 4.071 26.95C3.63233 26.8873 3.24067 26.715 2.896 26.433C2.64533 26.245 2.44167 26.0257 2.285 25.775C2.12833 25.5243 2.003 25.2893 1.909 25.07C1.78367 24.8193 1.68967 24.553 1.627 24.271C1.157 22.6417 1.063 21.122 1.345 19.712C1.627 18.302 2.15967 16.986 2.943 15.764C3.75767 14.5107 4.776 13.367 5.998 12.333C7.22 11.299 8.52033 10.359 9.899 9.513C11.309 8.667 12.7503 7.915 14.223 7.257C15.6957 6.599 17.09 6.01933 18.406 5.518C18.4373 5.48666 18.453 5.471 18.453 5.471C18.4843 5.471 18.5157 5.45533 18.547 5.424C19.2363 5.142 19.9727 4.86 20.756 4.578C21.5393 4.296 22.354 4.014 23.2 3.732ZM13.894 8.949C13.9567 8.91766 14.0037 8.902 14.035 8.902C14.0977 8.87067 14.1603 8.83933 14.223 8.808C14.317 8.74533 14.4267 8.68266 14.552 8.62C14.8027 8.526 15.022 8.432 15.21 8.338C15.4293 8.21267 15.633 8.103 15.821 8.009C17.4503 7.257 18.7193 6.693 19.628 6.317C19.8787 6.223 20.0823 6.14467 20.239 6.082C20.3957 6.01933 20.5367 5.95667 20.662 5.894C20.7247 5.86266 20.7717 5.847 20.803 5.847C20.8657 5.847 20.9127 5.83133 20.944 5.8C20.9753 5.8 21.0067 5.78433 21.038 5.753C20.7247 5.81567 20.474 5.87833 20.286 5.941C20.2233 5.97233 20.1607 5.988 20.098 5.988C20.0353 5.988 19.9727 6.00367 19.91 6.035C19.8473 6.06633 19.7847 6.082 19.722 6.082C19.5967 6.14467 19.534 6.176 19.534 6.176C19.2833 6.23867 19.017 6.317 18.735 6.411C18.4843 6.47367 18.2337 6.552 17.983 6.646C17.4503 6.834 16.9177 7.03767 16.385 7.257C15.8523 7.445 15.3197 7.64867 14.787 7.868L14.411 8.056C14.3483 8.08733 14.2857 8.11867 14.223 8.15C14.1603 8.18133 14.0977 8.21267 14.035 8.244C13.8783 8.30667 13.7373 8.36933 13.612 8.432C13.518 8.49466 13.3927 8.55733 13.236 8.62C12.9853 8.714 12.7347 8.83933 12.484 8.996C12.4213 9.02733 12.3587 9.05867 12.296 9.09C12.2333 9.12133 12.1707 9.15267 12.108 9.184C12.0453 9.24667 11.92 9.30933 11.732 9.372C11.262 9.654 10.792 9.936 10.322 10.218C9.88333 10.5 9.44467 10.782 9.006 11.064C8.56733 11.3773 8.16 11.675 7.784 11.957C7.43933 12.239 7.09467 12.5367 6.75 12.85C6.43667 13.132 6.139 13.414 5.857 13.696C5.60633 13.9467 5.37133 14.1973 5.152 14.448C4.93267 14.6987 4.74467 14.918 4.588 15.106C4.46267 15.294 4.33733 15.4663 4.212 15.623C4.14933 15.717 4.08667 15.8267 4.024 15.952C3.99267 15.9833 3.977 16.0147 3.977 16.046C3.977 16.0773 3.96133 16.093 3.93 16.093C3.99267 15.999 4.05533 15.9207 4.118 15.858C4.18067 15.764 4.24333 15.6857 4.306 15.623C4.33733 15.5917 4.353 15.5603 4.353 15.529C4.38433 15.4977 4.41567 15.4663 4.447 15.435L4.635 15.247C4.79167 15.0903 4.917 14.9493 5.011 14.824C5.13633 14.6987 5.27733 14.5733 5.434 14.448C5.93533 14.0093 6.468 13.5707 7.032 13.132C7.56467 12.6933 8.09733 12.3017 8.63 11.957C9.16267 11.6123 9.69533 11.2833 10.228 10.97C10.7607 10.6567 11.262 10.3747 11.732 10.124C12.2333 9.842 12.719 9.57567 13.189 9.325C13.3143 9.231 13.4397 9.16833 13.565 9.137C13.6277 9.10567 13.6747 9.07433 13.706 9.043C13.7687 9.01167 13.8313 8.98033 13.894 8.949ZM20.803 9.842C19.393 12.098 18.077 14.307 16.855 16.469C16.2283 17.5343 15.6487 18.584 15.116 19.618C14.5833 20.652 14.0663 21.6703 13.565 22.673C11.591 26.6523 10.0713 30.193 9.006 33.295C8.75533 34.0783 8.52033 34.8147 8.301 35.504C8.08167 36.1933 7.89367 36.8513 7.737 37.478C7.67433 37.7913 7.61167 38.089 7.549 38.371C7.48633 38.653 7.42367 38.935 7.361 39.217C7.32967 39.3423 7.29833 39.4677 7.267 39.593C7.267 39.7183 7.25133 39.8437 7.22 39.969C7.22 40.0317 7.20433 40.0787 7.173 40.11C7.173 40.1727 7.173 40.2353 7.173 40.298C7.173 40.3607 7.15733 40.4233 7.126 40.486C7.126 40.5487 7.126 40.6113 7.126 40.674C7.06333 41.1127 7.01633 41.4887 6.985 41.802C6.985 42.1467 6.985 42.4287 6.985 42.648V43.165V43.353C7.01633 43.1023 7.032 42.8673 7.032 42.648C7.06333 42.46 7.09467 42.2407 7.126 41.99L7.408 40.58C7.47067 40.3293 7.51767 40.0943 7.549 39.875C7.61167 39.6557 7.67433 39.4207 7.737 39.17L8.16 37.76C8.75533 35.9113 9.44467 34.0157 10.228 32.073C10.6353 31.133 11.027 30.193 11.403 29.253C11.8103 28.313 12.2177 27.3887 12.625 26.48C13.0637 25.5713 13.471 24.6783 13.847 23.801C14.2543 22.9237 14.6617 22.0777 15.069 21.263C15.8523 19.6023 16.5887 18.0827 17.278 16.704C17.9673 15.294 18.5783 14.0877 19.111 13.085C19.6123 12.051 20.0353 11.252 20.38 10.688L20.803 9.842ZM50.225 4.531C50.2877 4.155 50.2407 3.779 50.084 3.403C49.9273 2.99567 49.708 2.651 49.426 2.369C49.2693 2.21233 49.097 2.087 48.909 1.993C48.7523 1.86766 48.5957 1.758 48.439 1.664C48.0317 1.44466 47.6713 1.31933 47.358 1.288C47.0133 1.194 46.6843 1.13133 46.371 1.1C46.0577 1.06866 45.7913 1.053 45.572 1.053H45.055H44.914H44.867C44.9923 1.08433 45.1177 1.11566 45.243 1.147C45.3683 1.147 45.4937 1.16266 45.619 1.194L46.324 1.335C46.5747 1.39767 46.794 1.46033 46.982 1.523C47.2013 1.58567 47.405 1.64833 47.593 1.711C47.781 1.805 47.9533 1.899 48.11 1.993C48.298 2.05567 48.4703 2.134 48.627 2.228C48.7837 2.322 48.9247 2.416 49.05 2.51C49.1753 2.604 49.285 2.71366 49.379 2.839C49.5983 3.05833 49.755 3.27767 49.849 3.497C49.943 3.685 50.0213 3.85733 50.084 4.014C50.1153 4.108 50.131 4.18633 50.131 4.249C50.1623 4.28033 50.178 4.32733 50.178 4.39C50.178 4.42133 50.1937 4.45267 50.225 4.484V4.531ZM31.331 25.963C31.6757 25.9943 31.8637 26.3077 31.895 26.903C31.9577 27.467 31.8793 28.078 31.66 28.736C31.4093 29.4253 31.049 30.1147 30.579 30.804C30.1403 31.462 29.5763 32.0573 28.887 32.59C28.229 33.0913 27.4457 33.483 26.537 33.765C25.6597 34.047 24.6727 34.141 23.576 34.047C22.542 33.953 21.6333 33.6397 20.85 33.107C20.192 32.6683 19.5967 32.0103 19.064 31.133C18.5627 30.2243 18.3903 28.9397 18.547 27.279C18.641 26.2137 18.8917 25.1327 19.299 24.036C19.6437 23.096 20.1607 22.0933 20.85 21.028C21.5707 19.9313 22.5577 18.8973 23.811 17.926C24.4063 17.4873 25.0173 17.1113 25.644 16.798C26.1767 16.5473 26.7563 16.3593 27.383 16.234C28.0097 16.0773 28.5893 16.1243 29.122 16.375C30.062 16.7823 30.626 17.3933 30.814 18.208C31.002 19.0227 30.955 19.759 30.673 20.417C30.5163 20.7617 30.297 21.1847 30.015 21.686C29.7643 22.156 29.357 22.6573 28.793 23.19C28.2603 23.7227 27.524 24.2553 26.584 24.788C25.644 25.3207 24.4377 25.7907 22.965 26.198C22.589 27.2007 22.354 28.1093 22.26 28.924C22.1973 29.6447 22.2443 30.334 22.401 30.992C22.589 31.6187 23.0747 32.0573 23.858 32.308C24.61 32.5587 25.315 32.5587 25.973 32.308C26.6623 32.0573 27.2733 31.6813 27.806 31.18C28.37 30.6787 28.84 30.099 29.216 29.441C29.6233 28.783 29.921 28.172 30.109 27.608C30.1717 27.4827 30.2343 27.326 30.297 27.138C30.391 26.95 30.485 26.762 30.579 26.574C30.7043 26.386 30.8297 26.245 30.955 26.151C31.0803 26.0257 31.2057 25.963 31.331 25.963ZM28.088 21.451C28.276 21.2003 28.3857 20.9497 28.417 20.699C28.4797 20.4483 28.4483 20.2447 28.323 20.088C28.229 19.9313 28.041 19.853 27.759 19.853C27.477 19.853 27.1323 19.9783 26.725 20.229C26.3177 20.4797 25.9103 20.8243 25.503 21.263C25.127 21.6703 24.798 22.0777 24.516 22.485C24.234 22.8923 23.999 23.2527 23.811 23.566C23.6543 23.848 23.6073 23.989 23.67 23.989C23.9207 23.989 24.2497 23.9107 24.657 23.754C25.0957 23.5973 25.5187 23.3937 25.926 23.143C26.3647 22.861 26.772 22.579 27.148 22.297C27.5553 21.9837 27.8687 21.7017 28.088 21.451ZM19.581 26.997C19.863 26.0883 20.239 25.1797 20.709 24.271C21.1163 23.4877 21.6177 22.6573 22.213 21.78C22.8397 20.9027 23.5917 20.1037 24.469 19.383C25.6597 18.4117 26.631 17.8163 27.383 17.597C28.1663 17.3777 28.7617 17.3463 29.169 17.503C29.0437 17.3777 28.9027 17.2523 28.746 17.127C28.4013 16.9077 27.9313 16.845 27.336 16.939C26.96 17.0017 26.4117 17.2523 25.691 17.691C25.0017 18.1297 24.2653 18.7563 23.482 19.571C22.6987 20.3857 21.9467 21.4197 21.226 22.673C20.5367 23.895 19.9883 25.3363 19.581 26.997ZM44.6731 15.106C45.3625 15.764 45.7385 16.469 45.8011 17.221C45.8951 17.973 45.8011 18.7093 45.5191 19.43C45.3938 19.6807 45.2528 19.9 45.0961 20.088C44.9395 20.2447 44.7671 20.3857 44.5791 20.511C44.3911 20.6363 44.1718 20.6677 43.9211 20.605C43.7018 20.5423 43.5138 20.4013 43.3571 20.182C43.2005 19.9313 43.2005 19.6023 43.3571 19.195C43.4198 18.9443 43.4825 18.725 43.5451 18.537C43.6078 18.349 43.6548 18.1767 43.6861 18.02C43.7175 17.8633 43.7488 17.7067 43.7801 17.55C42.9968 18.1767 42.2448 18.9913 41.5241 19.994C40.8035 20.9967 40.1455 22.0933 39.5501 23.284C38.9548 24.4747 38.4221 25.681 37.9521 26.903C37.4821 28.125 37.1218 29.253 36.8711 30.287C36.6205 31.321 36.4795 32.1983 36.4481 32.919C36.4168 33.6397 36.5421 34.0783 36.8241 34.235C37.2001 34.4543 37.7171 34.376 38.3751 34C39.0331 33.6553 39.6911 33.201 40.3491 32.637C41.0071 32.073 41.5868 31.509 42.0881 30.945C42.6208 30.3497 42.9498 29.958 43.0751 29.77C43.2318 29.582 43.3885 29.4723 43.5451 29.441C43.7331 29.4097 43.8898 29.4723 44.0151 29.629C44.1405 29.817 44.1718 30.0363 44.1091 30.287L44.0151 30.663C43.9211 30.9763 43.7018 31.3837 43.3571 31.885C43.0438 32.3863 42.6521 32.8877 42.1821 33.389C41.7121 33.8903 41.1951 34.3603 40.6311 34.799C40.0985 35.269 39.5501 35.6137 38.9861 35.833C38.1088 36.1777 37.3568 36.35 36.7301 36.35C36.1348 36.35 35.6178 36.2717 35.1791 36.115C34.6778 35.9583 34.2548 35.7077 33.9101 35.363C33.2835 34.7677 32.8605 34.0157 32.6411 33.107C32.4531 32.167 32.4061 31.1487 32.5001 30.052C32.6255 28.924 32.8605 27.7647 33.2051 26.574C33.5811 25.3833 34.0198 24.2397 34.5211 23.143C35.0538 22.015 35.6021 20.981 36.1661 20.041C36.7615 19.0697 37.3411 18.255 37.9051 17.597C38.6571 16.6883 39.4405 15.952 40.2551 15.388C40.9445 14.918 41.6651 14.6047 42.4171 14.448C43.2005 14.26 43.9525 14.4793 44.6731 15.106ZM33.7221 31.321C34.1608 29.1903 34.7248 27.2633 35.4141 25.54C36.1035 23.7853 36.7771 22.2813 37.4351 21.028C38.2185 19.5553 39.0331 18.2393 39.8791 17.08C38.4065 18.5213 37.2628 20.0723 36.4481 21.733C35.6335 23.3623 35.0225 24.8977 34.6151 26.339C34.1451 28.031 33.8475 29.6917 33.7221 31.321ZM52.7439 5.471C53.1512 4.49967 53.6369 3.66933 54.2009 2.98C54.6709 2.38467 55.2506 1.88333 55.9399 1.476C56.6292 1.03733 57.4126 0.943332 58.2899 1.194C58.6346 1.288 58.9636 1.476 59.2769 1.758C59.5276 2.00866 59.7469 2.35333 59.9349 2.792C60.1542 3.19933 60.2639 3.74767 60.2639 4.437C60.2326 4.813 60.1699 5.236 60.0759 5.706C60.0132 6.176 59.9036 6.693 59.7469 7.257C59.4336 8.291 58.9792 9.419 58.3839 10.641C57.7886 11.8317 57.0992 13.0067 56.3159 14.166C55.5326 15.3253 54.6709 16.4063 53.7309 17.409C52.7909 18.4117 51.8039 19.2263 50.7699 19.853C50.2372 21.357 49.7672 22.7513 49.3599 24.036C48.9526 25.3207 48.6079 26.48 48.3259 27.514C48.8272 26.6367 49.4226 25.6497 50.1119 24.553C50.8326 23.425 51.5846 22.391 52.3679 21.451C53.1826 20.4797 53.9972 19.6807 54.8119 19.054C55.6579 18.4273 56.4569 18.1297 57.2089 18.161C57.8356 18.2237 58.3212 18.49 58.6659 18.96C58.9479 19.3673 59.1046 19.994 59.1359 20.84C59.1672 21.686 58.8852 22.908 58.2899 24.506C58.0079 25.2893 57.6789 26.1197 57.3029 26.997C56.9269 27.843 56.5979 28.6577 56.3159 29.441C55.6579 31.2897 55.2506 32.7153 55.0939 33.718C54.9372 34.7207 54.9842 35.3003 55.2349 35.457C55.2662 35.4883 55.2976 35.504 55.3289 35.504C55.4229 35.4727 55.5326 35.4727 55.6579 35.504C55.8146 35.5353 55.9712 35.6293 56.1279 35.786C56.2532 35.9113 56.3316 36.0523 56.3629 36.209C56.4256 36.397 56.3786 36.6163 56.2219 36.867C55.9712 37.2117 55.6579 37.431 55.2819 37.525C54.9372 37.619 54.5926 37.6347 54.2479 37.572C53.9032 37.5093 53.5742 37.384 53.2609 37.196C52.9476 37.0393 52.6969 36.8357 52.5089 36.585C52.2582 36.2717 52.0859 35.88 51.9919 35.41C51.9292 34.9713 51.8979 34.5483 51.8979 34.141C51.8979 33.671 51.9292 33.1853 51.9919 32.684C52.2112 30.9293 52.5716 29.3 53.0729 27.796C53.5742 26.292 54.0286 25.0857 54.4359 24.177C54.8432 23.2683 55.1252 22.5947 55.2819 22.156C55.4386 21.686 55.4542 21.3727 55.3289 21.216C55.2662 21.1533 55.1722 21.1533 55.0469 21.216C54.9216 21.2473 54.7962 21.31 54.6709 21.404C54.5456 21.5293 54.3889 21.6703 54.2009 21.827C53.4489 22.5477 52.6812 23.472 51.8979 24.6C51.1146 25.6967 50.3939 26.7933 49.7359 27.89C49.0779 28.9553 48.5296 29.911 48.0909 30.757C47.6522 31.603 47.4016 32.0887 47.3389 32.214C47.2449 32.496 47.0882 32.6683 46.8689 32.731C46.6809 32.7623 46.4616 32.731 46.2109 32.637C45.9916 32.5117 45.7722 32.355 45.5529 32.167C45.3336 31.9477 45.1456 31.7283 44.9889 31.509C44.8322 31.321 44.7382 31.0703 44.7069 30.757C44.6756 30.4437 44.6756 30.1147 44.7069 29.77C44.7382 29.394 44.8009 28.9867 44.8949 28.548C45.1142 27.326 45.3806 26.0883 45.6939 24.835C46.0072 23.5817 46.3519 22.3283 46.7279 21.075C46.8219 20.7303 46.9002 20.4483 46.9629 20.229C47.0569 20.0097 47.1352 19.7903 47.1979 19.571C47.6679 18.1297 48.1536 16.7353 48.6549 15.388C49.1562 14.0093 49.6419 12.7247 50.1119 11.534C50.6132 10.312 51.0832 9.184 51.5219 8.15C51.9919 7.116 52.3992 6.223 52.7439 5.471ZM56.9269 24.553C56.6762 25.1797 56.4726 25.7437 56.3159 26.245C56.1906 26.715 56.0966 27.1223 56.0339 27.467C55.9399 27.8743 55.8772 28.2347 55.8459 28.548C56.0966 27.702 56.4256 26.809 56.8329 25.869C57.2402 24.929 57.6162 23.9263 57.9609 22.861C58.1176 22.3283 58.1959 21.9053 58.1959 21.592C58.2272 21.2473 58.2116 20.9653 58.1489 20.746C58.0862 20.4953 57.9922 20.3073 57.8669 20.182C57.9296 20.9027 57.8669 21.5763 57.6789 22.203C57.5222 22.7983 57.2716 23.5817 56.9269 24.553ZM56.2689 7.21C55.4856 8.68267 54.7336 10.2023 54.0129 11.769C53.3236 13.3357 52.6656 14.918 52.0389 16.516C52.8536 15.67 53.6996 14.5733 54.5769 13.226C55.4856 11.8787 56.3472 10.1867 57.1619 8.15C57.5379 7.42933 57.8199 6.787 58.0079 6.223C58.1646 5.753 58.2586 5.34567 58.2899 5.001C58.3526 4.625 58.2429 4.51533 57.9609 4.672C57.8669 4.73467 57.7572 4.82866 57.6319 4.954C57.1932 5.58066 56.8642 6.09766 56.6449 6.505C56.5196 6.75567 56.3942 6.99067 56.2689 7.21ZM53.9189 5.706C53.3549 6.67733 52.7909 7.74266 52.2269 8.902C51.7569 9.90466 51.2556 11.0483 50.7229 12.333C50.2216 13.6177 49.7986 14.9807 49.4539 16.422C49.9866 15.1373 50.5349 13.8683 51.0989 12.615C51.5689 11.5183 52.0546 10.359 52.5559 9.137C53.0886 7.915 53.5429 6.77133 53.9189 5.706ZM86.1268 3.732C86.2521 3.57533 86.3774 3.41866 86.5028 3.262C86.7534 2.98 87.0198 2.71367 87.3018 2.463C87.6464 2.181 88.0851 1.899 88.6178 1.617C89.1818 1.335 89.8241 1.20967 90.5448 1.241C90.7954 1.241 91.0304 1.27233 91.2498 1.335C91.4378 1.39767 91.6101 1.49167 91.7668 1.617C91.9234 1.711 92.0331 1.86766 92.0958 2.087C93.7878 1.67967 95.4954 1.31933 97.2188 1.006C98.9421 0.661331 100.603 0.410664 102.201 0.253997C103.799 0.0973309 105.303 0.0503315 106.713 0.112999C108.123 0.144332 109.36 0.300999 110.426 0.582999C111.491 0.864999 112.337 1.288 112.964 1.852C113.622 2.416 113.982 3.13667 114.045 4.014C114.045 4.296 114.029 4.578 113.998 4.86C113.935 5.11067 113.857 5.36133 113.763 5.612C113.7 5.86267 113.575 6.11333 113.387 6.364C113.199 6.61467 112.964 6.75566 112.682 6.787C112.431 6.787 112.133 6.61466 111.789 6.27C111.507 5.988 110.786 5.706 109.627 5.424C108.467 5.11067 106.901 4.907 104.927 4.813C102.984 4.719 100.665 4.78167 97.9708 5.001C95.3074 5.22033 92.3151 5.72167 88.9938 6.505C87.8971 8.07167 86.7691 9.889 85.6098 11.957C84.4504 13.9937 83.3851 15.952 82.4138 17.832C81.2858 20.0253 80.1734 22.25 79.0768 24.506C77.4161 27.8273 76.0844 30.6787 75.0818 33.06C74.1104 35.41 73.4054 37.431 72.9668 39.123C72.3401 41.5043 71.9641 43.2903 71.8388 44.481C71.7134 45.703 71.6821 46.5803 71.7448 47.113C71.8388 47.6457 71.9641 47.9747 72.1208 48.1C72.2774 48.2567 72.3401 48.4447 72.3088 48.664C72.2461 48.9147 72.1364 49.1027 71.9798 49.228C71.8544 49.3533 71.7134 49.4473 71.5568 49.51C71.3688 49.5727 71.1808 49.604 70.9928 49.604C70.4288 49.5727 69.9744 49.3847 69.6298 49.04C69.2851 48.6953 69.0188 48.2567 68.8308 47.724C68.6741 47.1913 68.5644 46.596 68.5018 45.938C68.4704 45.28 68.4704 44.6063 68.5018 43.917C68.5958 42.319 68.8934 40.5173 69.3948 38.512C69.8961 36.1307 70.6794 33.5613 71.7448 30.804C72.8414 28.0153 74.0478 25.258 75.3638 22.532C76.6798 19.7747 78.0428 17.1427 79.4528 14.636C80.8628 12.1293 82.1318 9.95167 83.2598 8.103C80.2204 9.231 77.6824 10.3433 75.6458 11.44C73.6404 12.5053 72.0111 13.555 70.7578 14.589C69.5358 15.5917 68.6271 16.563 68.0318 17.503C67.4678 18.4117 67.1074 19.289 66.9508 20.135C66.7941 20.9497 66.7784 21.7173 66.9038 22.438C67.0604 23.1273 67.2484 23.754 67.4678 24.318C67.6871 24.8507 67.8751 25.305 68.0318 25.681C68.1884 26.057 68.2041 26.339 68.0788 26.527C67.8281 26.8717 67.4678 27.0127 66.9978 26.95C66.5591 26.8873 66.1674 26.715 65.8228 26.433C65.5721 26.245 65.3684 26.0257 65.2118 25.775C65.0551 25.5243 64.9298 25.2893 64.8358 25.07C64.7104 24.8193 64.6164 24.553 64.5538 24.271C64.0838 22.6417 63.9898 21.122 64.2718 19.712C64.5538 18.302 65.0864 16.986 65.8698 15.764C66.6844 14.5107 67.7028 13.367 68.9248 12.333C70.1468 11.299 71.4471 10.359 72.8258 9.513C74.2358 8.667 75.6771 7.915 77.1498 7.257C78.6224 6.599 80.0168 6.01933 81.3328 5.518C81.3641 5.48666 81.3798 5.471 81.3798 5.471C81.4111 5.471 81.4424 5.45533 81.4738 5.424C82.1631 5.142 82.8994 4.86 83.6828 4.578C84.4661 4.296 85.2808 4.014 86.1268 3.732ZM76.8208 8.949C76.8834 8.91766 76.9304 8.902 76.9618 8.902C77.0244 8.87067 77.0871 8.83933 77.1498 8.808C77.2438 8.74533 77.3534 8.68266 77.4788 8.62C77.7294 8.526 77.9488 8.432 78.1368 8.338C78.3561 8.21267 78.5598 8.103 78.7478 8.009C80.3771 7.257 81.6461 6.693 82.5548 6.317C82.8054 6.223 83.0091 6.14467 83.1658 6.082C83.3224 6.01933 83.4634 5.95667 83.5888 5.894C83.6514 5.86266 83.6984 5.847 83.7298 5.847C83.7924 5.847 83.8394 5.83133 83.8708 5.8C83.9021 5.8 83.9334 5.78433 83.9648 5.753C83.6514 5.81567 83.4008 5.87833 83.2128 5.941C83.1501 5.97233 83.0874 5.988 83.0248 5.988C82.9621 5.988 82.8994 6.00367 82.8368 6.035C82.7741 6.06633 82.7114 6.082 82.6488 6.082C82.5234 6.14467 82.4608 6.176 82.4608 6.176C82.2101 6.23867 81.9438 6.317 81.6618 6.411C81.4111 6.47367 81.1604 6.552 80.9098 6.646C80.3771 6.834 79.8444 7.03767 79.3118 7.257C78.7791 7.445 78.2464 7.64867 77.7138 7.868L77.3378 8.056C77.2751 8.08733 77.2124 8.11867 77.1498 8.15C77.0871 8.18133 77.0244 8.21267 76.9618 8.244C76.8051 8.30667 76.6641 8.36933 76.5388 8.432C76.4448 8.49466 76.3194 8.55733 76.1628 8.62C75.9121 8.714 75.6614 8.83933 75.4108 8.996C75.3481 9.02733 75.2854 9.05867 75.2228 9.09C75.1601 9.12133 75.0974 9.15267 75.0348 9.184C74.9721 9.24667 74.8468 9.30933 74.6588 9.372C74.1888 9.654 73.7188 9.936 73.2488 10.218C72.8101 10.5 72.3714 10.782 71.9328 11.064C71.4941 11.3773 71.0868 11.675 70.7108 11.957C70.3661 12.239 70.0214 12.5367 69.6768 12.85C69.3634 13.132 69.0658 13.414 68.7838 13.696C68.5331 13.9467 68.2981 14.1973 68.0788 14.448C67.8594 14.6987 67.6714 14.918 67.5148 15.106C67.3894 15.294 67.2641 15.4663 67.1388 15.623C67.0761 15.717 67.0134 15.8267 66.9508 15.952C66.9194 15.9833 66.9038 16.0147 66.9038 16.046C66.9038 16.0773 66.8881 16.093 66.8568 16.093C66.9194 15.999 66.9821 15.9207 67.0448 15.858C67.1074 15.764 67.1701 15.6857 67.2328 15.623C67.2641 15.5917 67.2798 15.5603 67.2798 15.529C67.3111 15.4977 67.3424 15.4663 67.3738 15.435L67.5618 15.247C67.7184 15.0903 67.8438 14.9493 67.9378 14.824C68.0631 14.6987 68.2041 14.5733 68.3608 14.448C68.8621 14.0093 69.3948 13.5707 69.9588 13.132C70.4914 12.6933 71.0241 12.3017 71.5568 11.957C72.0894 11.6123 72.6221 11.2833 73.1548 10.97C73.6874 10.6567 74.1888 10.3747 74.6588 10.124C75.1601 9.842 75.6458 9.57567 76.1158 9.325C76.2411 9.231 76.3664 9.16833 76.4918 9.137C76.5544 9.10567 76.6014 9.07433 76.6328 9.043C76.6954 9.01167 76.7581 8.98033 76.8208 8.949ZM83.7298 9.842C82.3198 12.098 81.0038 14.307 79.7818 16.469C79.1551 17.5343 78.5754 18.584 78.0428 19.618C77.5101 20.652 76.9931 21.6703 76.4918 22.673C74.5178 26.6523 72.9981 30.193 71.9328 33.295C71.6821 34.0783 71.4471 34.8147 71.2278 35.504C71.0084 36.1933 70.8204 36.8513 70.6638 37.478C70.6011 37.7913 70.5384 38.089 70.4758 38.371C70.4131 38.653 70.3504 38.935 70.2878 39.217C70.2564 39.3423 70.2251 39.4677 70.1938 39.593C70.1938 39.7183 70.1781 39.8437 70.1468 39.969C70.1468 40.0317 70.1311 40.0787 70.0998 40.11C70.0998 40.1727 70.0998 40.2353 70.0998 40.298C70.0998 40.3607 70.0841 40.4233 70.0528 40.486C70.0528 40.5487 70.0528 40.6113 70.0528 40.674C69.9901 41.1127 69.9431 41.4887 69.9118 41.802C69.9118 42.1467 69.9118 42.4287 69.9118 42.648V43.165V43.353C69.9431 43.1023 69.9588 42.8673 69.9588 42.648C69.9901 42.46 70.0214 42.2407 70.0528 41.99L70.3348 40.58C70.3974 40.3293 70.4444 40.0943 70.4758 39.875C70.5384 39.6557 70.6011 39.4207 70.6638 39.17L71.0868 37.76C71.6821 35.9113 72.3714 34.0157 73.1548 32.073C73.5621 31.133 73.9538 30.193 74.3298 29.253C74.7371 28.313 75.1444 27.3887 75.5518 26.48C75.9904 25.5713 76.3978 24.6783 76.7738 23.801C77.1811 22.9237 77.5884 22.0777 77.9958 21.263C78.7791 19.6023 79.5154 18.0827 80.2048 16.704C80.8941 15.294 81.5051 14.0877 82.0378 13.085C82.5391 12.051 82.9621 11.252 83.3068 10.688L83.7298 9.842ZM113.152 4.531C113.214 4.155 113.167 3.779 113.011 3.403C112.854 2.99567 112.635 2.651 112.353 2.369C112.196 2.21233 112.024 2.087 111.836 1.993C111.679 1.86766 111.522 1.758 111.366 1.664C110.958 1.44466 110.598 1.31933 110.285 1.288C109.94 1.194 109.611 1.13133 109.298 1.1C108.984 1.06866 108.718 1.053 108.499 1.053H107.982H107.841H107.794C107.919 1.08433 108.044 1.11566 108.17 1.147C108.295 1.147 108.42 1.16266 108.546 1.194L109.251 1.335C109.501 1.39767 109.721 1.46033 109.909 1.523C110.128 1.58567 110.332 1.64833 110.52 1.711C110.708 1.805 110.88 1.899 111.037 1.993C111.225 2.05567 111.397 2.134 111.554 2.228C111.71 2.322 111.851 2.416 111.977 2.51C112.102 2.604 112.212 2.71366 112.306 2.839C112.525 3.05833 112.682 3.27767 112.776 3.497C112.87 3.685 112.948 3.85733 113.011 4.014C113.042 4.108 113.058 4.18633 113.058 4.249C113.089 4.28033 113.105 4.32733 113.105 4.39C113.105 4.42133 113.12 4.45267 113.152 4.484V4.531ZM84.6007 21.686C84.6947 21.4353 84.7887 21.1847 84.8827 20.934C84.9767 20.652 85.0551 20.417 85.1177 20.229C85.2117 20.0097 85.3057 19.7903 85.3997 19.571C85.4624 19.383 85.5877 19.1637 85.7757 18.913C85.9637 18.6623 86.2301 18.584 86.5747 18.678C86.7627 18.7093 87.0134 18.819 87.3267 19.007C87.6401 19.1637 87.9221 19.3987 88.1727 19.712C88.4547 20.0253 88.6427 20.4327 88.7367 20.934C88.8307 21.4353 88.7681 22.0307 88.5487 22.72C88.3294 23.3153 88.0944 23.9107 87.8437 24.506C87.6244 25.1013 87.4051 25.681 87.1857 26.245C86.5277 28.0623 86.1204 29.4723 85.9637 30.475C85.8071 31.4777 85.8541 32.073 86.1047 32.261H86.1517C86.2771 32.3237 86.3711 32.4177 86.4337 32.543C86.5591 32.7937 86.5591 33.0443 86.4337 33.295C86.3397 33.4517 86.1674 33.5927 85.9167 33.718C85.6974 33.8433 85.4467 33.9373 85.1647 34C84.8827 34.0313 84.5851 34.0157 84.2717 33.953C83.9897 33.8903 83.7234 33.765 83.4727 33.577C83.3474 33.5143 83.2221 33.4203 83.0967 33.295C83.0027 33.1383 82.9244 32.9817 82.8617 32.825C82.7677 32.6683 82.6894 32.496 82.6267 32.308C82.5327 32.0573 82.4544 31.8067 82.3917 31.556C82.3604 31.3053 82.3291 31.086 82.2977 30.898C82.2664 30.6787 82.2664 30.475 82.2977 30.287C82.2977 29.7543 82.3761 29.1277 82.5327 28.407C82.6894 27.6863 82.8774 26.95 83.0967 26.198C83.3161 25.4147 83.5511 24.6313 83.8017 23.848C84.0837 23.0647 84.3501 22.344 84.6007 21.686ZM84.9297 23.848C85.1804 23.0647 85.3997 22.391 85.5877 21.827C85.8071 21.263 85.9794 20.7147 86.1047 20.182C85.5094 21.4667 85.0081 22.7043 84.6007 23.895C84.2561 24.8977 83.9427 25.9473 83.6607 27.044C83.4101 28.1407 83.3474 29.065 83.4727 29.817C83.5981 29.2217 83.7234 28.595 83.8487 27.937C83.9741 27.373 84.1151 26.7463 84.2717 26.057C84.4597 25.3363 84.6791 24.6 84.9297 23.848ZM91.8387 12.145C92.1521 12.3017 92.3557 12.4897 92.4497 12.709C92.5437 12.9283 92.5594 13.1477 92.4967 13.367C92.4654 13.5237 92.3871 13.696 92.2617 13.884C92.1991 13.978 92.1364 14.0563 92.0737 14.119C91.6351 14.6203 91.2591 15.153 90.9457 15.717C90.6324 16.2497 90.3974 16.657 90.2407 16.939C90.1781 17.033 90.0841 17.174 89.9587 17.362C89.8647 17.55 89.7394 17.738 89.5827 17.926C89.4261 18.0827 89.2537 18.2237 89.0657 18.349C88.8777 18.443 88.6741 18.4587 88.4547 18.396C87.8594 18.0827 87.4364 17.738 87.1857 17.362C87.0917 17.2367 87.0447 17.0487 87.0447 16.798C87.0761 16.5473 87.1074 16.2967 87.1387 16.046C87.2014 15.7953 87.2641 15.576 87.3267 15.388C87.3894 15.1687 87.4364 15.0277 87.4677 14.965C87.5304 14.7143 87.5774 14.5263 87.6087 14.401C87.6714 14.2757 87.7341 14.1503 87.7967 14.025C87.9847 13.4923 88.2511 13.0693 88.5957 12.756C88.9404 12.4427 89.3007 12.2233 89.6767 12.098C90.0841 11.9413 90.4757 11.8787 90.8517 11.91C91.2277 11.9413 91.5567 12.0197 91.8387 12.145ZM87.7027 16.469C87.8907 15.905 88.1101 15.4037 88.3607 14.965C88.6427 14.495 88.9091 14.0877 89.1597 13.743C89.4417 13.367 89.7237 13.0223 90.0057 12.709C89.5671 12.7717 89.2067 13.0067 88.9247 13.414C88.6427 13.8213 88.4077 14.2443 88.2197 14.683C88.0004 15.247 87.8281 15.8423 87.7027 16.469ZM92.5731 34.188C92.5418 34.2507 92.5104 34.329 92.4791 34.423C92.4164 34.5797 92.3381 34.705 92.2441 34.799C92.1188 34.9557 91.9778 35.0497 91.8211 35.081C91.6958 35.1437 91.5704 35.1907 91.4451 35.222C91.3198 35.2533 91.1788 35.269 91.0221 35.269C90.5834 35.2377 90.2388 35.1123 89.9881 34.893C89.7374 34.6737 89.5338 34.4073 89.3771 34.094C89.2204 33.7807 89.1108 33.436 89.0481 33.06C88.9854 32.684 88.9541 32.3237 88.9541 31.979C88.9854 30.8197 89.2204 29.3627 89.6591 27.608C89.8158 26.9813 90.0194 26.2763 90.2701 25.493C90.5208 24.6783 90.8028 23.848 91.1161 23.002C91.4608 22.1247 91.8368 21.2473 92.2441 20.37C92.6514 19.4613 93.0901 18.584 93.5601 17.738C93.9361 17.0173 94.3904 16.2967 94.9231 15.576C95.4871 14.8553 96.1921 14.3383 97.0381 14.025C97.5708 13.7743 98.1034 13.7273 98.6361 13.884C99.1688 14.0407 99.5134 14.307 99.6701 14.683C99.7641 14.9337 99.7484 15.1373 99.6231 15.294C99.5604 15.388 99.4978 15.4507 99.4351 15.482C98.9024 16.0773 98.3541 16.8607 97.7901 17.832C97.2888 18.6467 96.7248 19.6963 96.0981 20.981C95.4714 22.2657 94.8291 23.8323 94.1711 25.681C94.2338 25.5243 94.2964 25.3833 94.3591 25.258C94.4218 25.1327 94.4844 24.9917 94.5471 24.835C95.4244 23.0177 96.2391 21.545 96.9911 20.417C97.7744 19.2577 98.4794 18.349 99.1061 17.691C99.7328 17.033 100.265 16.5787 100.704 16.328C101.174 16.046 101.55 15.8737 101.832 15.811C101.957 15.7797 102.098 15.764 102.255 15.764C102.443 15.7327 102.662 15.7483 102.913 15.811C103.07 15.8423 103.226 15.905 103.383 15.999C103.508 16.0617 103.634 16.1713 103.759 16.328C103.916 16.4533 104.041 16.6257 104.135 16.845C104.542 17.691 104.527 18.866 104.088 20.37C104.997 18.8973 105.827 17.8007 106.579 17.08C107.331 16.328 107.973 15.7953 108.506 15.482C109.133 15.1373 109.697 14.9807 110.198 15.012C110.762 15.106 111.185 15.3723 111.467 15.811C111.718 16.2183 111.827 16.8293 111.796 17.644C111.796 18.4587 111.498 19.6493 110.903 21.216C110.59 21.9993 110.261 22.8297 109.916 23.707C109.571 24.553 109.242 25.3677 108.929 26.151C108.396 27.655 108.036 28.8927 107.848 29.864C107.66 30.804 107.597 31.462 107.66 31.838L107.754 32.261C107.785 32.449 107.801 32.6683 107.801 32.919C107.801 33.1697 107.754 33.4047 107.66 33.624C107.597 33.8433 107.472 34.0157 107.284 34.141C107.127 34.2663 106.877 34.2977 106.532 34.235C106.25 34.141 105.984 34.0157 105.733 33.859C105.482 33.7023 105.279 33.5143 105.122 33.295C104.871 32.9817 104.699 32.6057 104.605 32.167C104.542 31.697 104.511 31.2583 104.511 30.851C104.511 30.381 104.542 29.8953 104.605 29.394C104.824 27.6393 105.185 26.01 105.686 24.506C106.187 23.002 106.642 21.7957 107.049 20.887C107.456 19.9783 107.754 19.289 107.942 18.819C108.161 18.349 108.161 18.0513 107.942 17.926C107.848 17.8947 107.723 17.926 107.566 18.02C107.441 18.0827 107.237 18.302 106.955 18.678C106.673 19.054 106.266 19.6337 105.733 20.417C105.232 21.169 104.542 22.203 103.665 23.519C102.788 24.8663 102.083 26.1197 101.55 27.279C101.049 28.407 100.657 29.394 100.375 30.24C100.03 31.2427 99.7954 32.1513 99.6701 32.966C99.6388 33.2793 99.5291 33.4987 99.3411 33.624C99.1844 33.7493 98.9964 33.8277 98.7771 33.859C98.5264 33.9217 98.2444 33.9217 97.9311 33.859C97.4611 33.765 97.1008 33.5927 96.8501 33.342C96.5994 33.06 96.4114 32.7623 96.2861 32.449C96.1921 32.1043 96.1451 31.7753 96.1451 31.462C96.1764 31.1173 96.2078 30.8353 96.2391 30.616C96.4271 29.582 96.7718 28.4227 97.2731 27.138C97.7744 25.8533 98.2758 24.647 98.7771 23.519C99.3098 22.391 99.7798 21.4353 100.187 20.652C100.594 19.8373 100.814 19.3673 100.845 19.242C100.908 19.0853 100.892 18.9913 100.798 18.96C100.735 18.9287 100.563 19.054 100.281 19.336C99.9991 19.618 99.6074 20.1037 99.1061 20.793C98.6048 21.4823 97.9624 22.4537 97.1791 23.707C96.5211 24.741 95.9414 25.775 95.4401 26.809C94.9388 27.843 94.5001 28.83 94.1241 29.77C93.7481 30.6787 93.4348 31.5247 93.1841 32.308C92.9334 33.06 92.7298 33.6867 92.5731 34.188ZM90.3171 29.206C90.9124 27.3887 91.5391 25.6183 92.1971 23.895C92.4791 23.1743 92.7768 22.4223 93.0901 21.639C93.4348 20.8557 93.7794 20.1037 94.1241 19.383C94.4688 18.631 94.8134 17.926 95.1581 17.268C95.5341 16.61 95.9101 16.0147 96.2861 15.482C95.5028 16.328 94.7508 17.3933 94.0301 18.678C93.4034 19.7747 92.7454 21.2003 92.0561 22.955C91.3981 24.6783 90.8184 26.762 90.3171 29.206ZM98.0251 28.971C98.4011 27.937 98.7928 26.903 99.2001 25.869C99.5448 24.9603 99.9208 24.0047 100.328 23.002C100.735 21.968 101.143 21.028 101.55 20.182C100.923 21.1847 100.359 22.203 99.8581 23.237C99.4194 24.1143 99.0121 25.07 98.6361 26.104C98.2914 27.1067 98.0878 28.0623 98.0251 28.971ZM109.54 21.263C109.289 21.8897 109.086 22.4537 108.929 22.955C108.804 23.425 108.71 23.8323 108.647 24.177C108.553 24.5843 108.49 24.9447 108.459 25.258C108.71 24.412 109.039 23.5347 109.446 22.626C109.853 21.686 110.229 20.6677 110.574 19.571C110.731 19.0383 110.809 18.6153 110.809 18.302C110.84 17.9573 110.825 17.6753 110.762 17.456C110.699 17.2053 110.605 17.0173 110.48 16.892C110.574 17.6127 110.527 18.2863 110.339 18.913C110.182 19.5083 109.916 20.2917 109.54 21.263ZM123.587 25.963C123.932 25.9943 124.12 26.3077 124.151 26.903C124.214 27.467 124.135 28.078 123.916 28.736C123.665 29.4253 123.305 30.1147 122.835 30.804C122.396 31.462 121.832 32.0573 121.143 32.59C120.485 33.0913 119.702 33.483 118.793 33.765C117.916 34.047 116.929 34.141 115.832 34.047C114.798 33.953 113.889 33.6397 113.106 33.107C112.448 32.6683 111.853 32.0103 111.32 31.133C110.819 30.2243 110.646 28.9397 110.803 27.279C110.897 26.2137 111.148 25.1327 111.555 24.036C111.9 23.096 112.417 22.0933 113.106 21.028C113.827 19.9313 114.814 18.8973 116.067 17.926C116.662 17.4873 117.273 17.1113 117.9 16.798C118.433 16.5473 119.012 16.3593 119.639 16.234C120.266 16.0773 120.845 16.1243 121.378 16.375C122.318 16.7823 122.882 17.3933 123.07 18.208C123.258 19.0227 123.211 19.759 122.929 20.417C122.772 20.7617 122.553 21.1847 122.271 21.686C122.02 22.156 121.613 22.6573 121.049 23.19C120.516 23.7227 119.78 24.2553 118.84 24.788C117.9 25.3207 116.694 25.7907 115.221 26.198C114.845 27.2007 114.61 28.1093 114.516 28.924C114.453 29.6447 114.5 30.334 114.657 30.992C114.845 31.6187 115.331 32.0573 116.114 32.308C116.866 32.5587 117.571 32.5587 118.229 32.308C118.918 32.0573 119.529 31.6813 120.062 31.18C120.626 30.6787 121.096 30.099 121.472 29.441C121.879 28.783 122.177 28.172 122.365 27.608C122.428 27.4827 122.49 27.326 122.553 27.138C122.647 26.95 122.741 26.762 122.835 26.574C122.96 26.386 123.086 26.245 123.211 26.151C123.336 26.0257 123.462 25.963 123.587 25.963ZM120.344 21.451C120.532 21.2003 120.642 20.9497 120.673 20.699C120.736 20.4483 120.704 20.2447 120.579 20.088C120.485 19.9313 120.297 19.853 120.015 19.853C119.733 19.853 119.388 19.9783 118.981 20.229C118.574 20.4797 118.166 20.8243 117.759 21.263C117.383 21.6703 117.054 22.0777 116.772 22.485C116.49 22.8923 116.255 23.2527 116.067 23.566C115.91 23.848 115.863 23.989 115.926 23.989C116.177 23.989 116.506 23.9107 116.913 23.754C117.352 23.5973 117.775 23.3937 118.182 23.143C118.621 22.861 119.028 22.579 119.404 22.297C119.811 21.9837 120.125 21.7017 120.344 21.451ZM111.837 26.997C112.119 26.0883 112.495 25.1797 112.965 24.271C113.372 23.4877 113.874 22.6573 114.469 21.78C115.096 20.9027 115.848 20.1037 116.725 19.383C117.916 18.4117 118.887 17.8163 119.639 17.597C120.422 17.3777 121.018 17.3463 121.425 17.503C121.3 17.3777 121.159 17.2523 121.002 17.127C120.657 16.9077 120.187 16.845 119.592 16.939C119.216 17.0017 118.668 17.2523 117.947 17.691C117.258 18.1297 116.521 18.7563 115.738 19.571C114.955 20.3857 114.203 21.4197 113.482 22.673C112.793 23.895 112.244 25.3363 111.837 26.997Z" fill="white"/>
</svg>
