<svg width="48" height="13" viewBox="0 0 48 13" fill="none" xmlns="http://www.w3.org/2000/svg">
<path d="M15.4937 9.50313L16.0851 8.1254C16.7243 8.60378 17.5733 8.85254 18.4128 8.85254C19.0329 8.85254 19.424 8.61335 19.424 8.24978C19.4145 7.23562 15.7131 8.02973 15.6844 5.48476C15.6749 4.19314 16.8197 3.19812 18.4414 3.19812C19.4049 3.19812 20.3684 3.43731 21.0553 3.98266L20.502 5.38909C19.8724 4.98725 19.0901 4.70022 18.346 4.70022C17.8404 4.70022 17.5065 4.93941 17.5065 5.24557C17.5161 6.2406 21.2461 5.69525 21.2842 8.1254C21.2842 9.44572 20.1681 10.3738 18.5654 10.3738C17.392 10.3738 16.3141 10.0963 15.4937 9.50313Z" fill="white"/>
<path d="M38.1886 7.62789C37.8929 8.14454 37.3396 8.49854 36.7004 8.49854C35.756 8.49854 34.9928 7.73313 34.9928 6.78595C34.9928 5.83876 35.756 5.07336 36.7004 5.07336C37.3396 5.07336 37.8929 5.42736 38.1886 5.944L39.8199 5.03509C39.2094 3.94439 38.036 3.19812 36.7004 3.19812C34.7257 3.19812 33.123 4.80547 33.123 6.78595C33.123 8.76643 34.7257 10.3738 36.7004 10.3738C38.0455 10.3738 39.2094 9.63707 39.8199 8.53681L38.1886 7.62789Z" fill="white"/>
<path d="M24.146 0.222656H22.1045V10.2399H24.146V0.222656Z" fill="white"/>
<path d="M40.6211 0.222656V10.2399H42.6626V7.23566L45.0857 10.2399H47.6995L44.6182 6.67118L47.4706 3.34167H44.9712L42.6626 6.10669V0.222656H40.6211Z" fill="white"/>
<path d="M30.2134 7.64703C29.9176 8.13497 29.3071 8.49854 28.6202 8.49854C27.6758 8.49854 26.9126 7.73313 26.9126 6.78595C26.9126 5.83876 27.6758 5.07336 28.6202 5.07336C29.3071 5.07336 29.9176 5.45606 30.2134 5.95357V7.64703ZM30.2134 3.34163V4.15487C29.8795 3.59039 29.0495 3.19812 28.1814 3.19812C26.3879 3.19812 24.9761 4.78633 24.9761 6.77638C24.9761 8.76643 26.3879 10.3738 28.1814 10.3738C29.0495 10.3738 29.8795 9.98151 30.2134 9.41702V10.2303H32.2549V3.34163H30.2134Z" fill="white"/>
<path d="M2.87297 7.63743C2.87297 8.33586 2.31013 8.90034 1.61373 8.90034C0.917333 8.90034 0.354492 8.33586 0.354492 7.63743C0.354492 6.939 0.917333 6.37451 1.61373 6.37451H2.87297V7.63743Z" fill="white"/>
<path d="M3.50244 7.63743C3.50244 6.939 4.06528 6.37451 4.76168 6.37451C5.45808 6.37451 6.02092 6.939 6.02092 7.63743V10.7947C6.02092 11.4931 5.45808 12.0576 4.76168 12.0576C4.06528 12.0576 3.50244 11.4931 3.50244 10.7947V7.63743Z" fill="white"/>
<path d="M4.76168 2.56672C4.06528 2.56672 3.50244 2.00224 3.50244 1.30381C3.50244 0.605379 4.06528 0.0408936 4.76168 0.0408936C5.45808 0.0408936 6.02092 0.605379 6.02092 1.30381V2.56672H4.76168Z" fill="white"/>
<path d="M4.7616 3.20776C5.45799 3.20776 6.02083 3.77225 6.02083 4.47068C6.02083 5.16911 5.45799 5.73359 4.7616 5.73359H1.60396C0.907568 5.73359 0.344727 5.16911 0.344727 4.47068C0.344727 3.77225 0.907568 3.20776 1.60396 3.20776H4.7616Z" fill="white"/>
<path d="M9.80811 4.47068C9.80811 3.77225 10.3709 3.20776 11.0673 3.20776C11.7637 3.20776 12.3266 3.77225 12.3266 4.47068C12.3266 5.16911 11.7637 5.73359 11.0673 5.73359H9.80811V4.47068Z" fill="white"/>
<path d="M9.17863 4.47066C9.17863 5.1691 8.61579 5.73358 7.91939 5.73358C7.223 5.73358 6.66016 5.1691 6.66016 4.47066V1.30381C6.66016 0.605379 7.223 0.0408936 7.91939 0.0408936C8.61579 0.0408936 9.17863 0.605379 9.17863 1.30381V4.47066Z" fill="white"/>
<path d="M7.91939 9.53186C8.61579 9.53186 9.17863 10.0963 9.17863 10.7948C9.17863 11.4932 8.61579 12.0577 7.91939 12.0577C7.223 12.0577 6.66016 11.4932 6.66016 10.7948V9.53186H7.91939Z" fill="white"/>
<path d="M7.91939 8.90034C7.223 8.90034 6.66016 8.33586 6.66016 7.63743C6.66016 6.939 7.223 6.37451 7.91939 6.37451H11.077C11.7734 6.37451 12.3363 6.939 12.3363 7.63743C12.3363 8.33586 11.7734 8.90034 11.077 8.90034H7.91939Z" fill="white"/>
</svg>
