<svg width="40" height="17" viewBox="0 0 40 17" fill="none" xmlns="http://www.w3.org/2000/svg">
<path fill-rule="evenodd" clip-rule="evenodd" d="M39.11 8.31798C39.11 5.56683 37.7809 3.396 35.2406 3.396C32.6895 3.396 31.146 5.56683 31.146 8.29649C31.146 11.5312 32.9682 13.1647 35.5836 13.1647C36.8591 13.1647 37.8238 12.8746 38.5527 12.4662V10.3169C37.8238 10.6823 36.9877 10.9079 35.9266 10.9079C34.8868 10.9079 33.965 10.5426 33.8471 9.27444H39.0886C39.0886 9.13473 39.11 8.5759 39.11 8.31798ZM33.815 7.29705C33.815 6.08267 34.5546 5.57758 35.2298 5.57758C35.8837 5.57758 36.5804 6.08267 36.5804 7.29705H33.815Z" fill="white"/>
<path fill-rule="evenodd" clip-rule="evenodd" d="M27.0085 3.396C25.9581 3.396 25.2828 3.89034 24.9076 4.23424L24.7683 3.56794H22.4102V16.0986L25.0898 15.529L25.1006 12.4877C25.4864 12.7671 26.0545 13.1647 26.9978 13.1647C28.9164 13.1647 30.6636 11.6172 30.6636 8.21052C30.6529 5.09397 28.8843 3.396 27.0085 3.396ZM26.3654 10.8005C25.733 10.8005 25.3578 10.5748 25.1006 10.2954L25.0898 6.30835C25.3685 5.9967 25.7544 5.78176 26.3654 5.78176C27.3408 5.78176 28.0161 6.87793 28.0161 8.28574C28.0161 9.7258 27.3515 10.8005 26.3654 10.8005Z" fill="white"/>
<path fill-rule="evenodd" clip-rule="evenodd" d="M18.7231 2.7619L21.4136 2.18158V0L18.7231 0.569575V2.7619Z" fill="white"/>
<path d="M21.4136 3.57861H18.7231V12.982H21.4136V3.57861Z" fill="white"/>
<path fill-rule="evenodd" clip-rule="evenodd" d="M15.8398 4.37399L15.6683 3.57874H13.353V12.9821H16.0327V6.6093C16.6651 5.78181 17.737 5.93226 18.0693 6.05048V3.57874C17.7263 3.44978 16.4722 3.21335 15.8398 4.37399Z" fill="white"/>
<path fill-rule="evenodd" clip-rule="evenodd" d="M10.4801 1.24658L7.86472 1.80541L7.854 10.4135C7.854 12.004 9.04379 13.1754 10.6302 13.1754C11.5091 13.1754 12.1522 13.0142 12.5059 12.8208V10.6392C12.1629 10.7789 10.4694 11.2733 10.4694 9.68274V5.86766H12.5059V3.57862H10.4694L10.4801 1.24658Z" fill="white"/>
<path fill-rule="evenodd" clip-rule="evenodd" d="M3.23431 6.30835C3.23431 5.88923 3.57731 5.72803 4.1454 5.72803C4.96003 5.72803 5.98903 5.9752 6.80365 6.41582V3.89034C5.914 3.5357 5.03506 3.396 4.1454 3.396C1.96949 3.396 0.522461 4.53515 0.522461 6.43731C0.522461 9.4034 4.59559 8.93055 4.59559 10.2094C4.59559 10.7038 4.16684 10.865 3.56659 10.865C2.67693 10.865 1.54074 10.4996 0.640367 10.0052V12.5629C1.63721 12.9928 2.64478 13.1755 3.56659 13.1755C5.79609 13.1755 7.32887 12.0686 7.32887 10.1449C7.31815 6.94241 3.23431 7.51198 3.23431 6.30835Z" fill="white"/>
</svg>
