<svg width="39" height="10" viewBox="0 0 39 10" fill="none" xmlns="http://www.w3.org/2000/svg">
<g clip-path="url(#clip0_25_266)">
<path d="M8.09175 9.28797H1.23062C0.775459 9.28797 0.354014 9.05249 0.134862 8.6488C-0.101147 8.17784 -0.0168578 7.62277 0.354014 7.26955L5.12477 2.50943H1.70264C0.758602 2.50943 0 1.7357 0 0.810587H6.32168C6.77684 0.810587 7.19829 1.04607 7.41744 1.44975C7.65345 1.92072 7.56916 2.47579 7.19829 2.82901L2.42752 7.58913H6.38911C7.33315 7.58913 8.09175 8.36286 8.09175 9.28797ZM35.2665 0.676025C34.2888 0.676025 33.3953 1.09653 32.7884 1.78616C32.1816 1.11335 31.2881 0.676025 30.3103 0.676025C28.4897 0.676025 26.9894 2.22348 26.9894 4.04007V9.28797C27.9334 9.28797 28.692 8.53106 28.692 7.58913V4.02325C28.692 3.1486 29.3663 2.40851 30.2429 2.37487C31.1701 2.34123 31.9287 3.08131 31.9287 3.98961V7.58913C31.9287 8.53106 32.6873 9.28797 33.6313 9.28797V4.02325C33.6313 3.1486 34.3056 2.40851 35.1823 2.37487C36.1094 2.34123 36.868 3.08131 36.868 3.98961V7.58913C36.868 8.53106 37.6266 9.28797 38.5707 9.28797V4.04007C38.5875 2.22348 37.0872 0.676025 35.2665 0.676025ZM16.6892 5.04928C16.6892 7.45457 14.7169 9.42253 12.3062 9.42253C9.87868 9.42253 7.92317 7.45457 7.92317 5.04928C7.92317 2.64399 9.89553 0.676025 12.3062 0.676025C14.7169 0.676025 16.6892 2.64399 16.6892 5.04928ZM14.9866 5.04928C14.9866 3.5691 13.7897 2.37487 12.3062 2.37487C10.8227 2.37487 9.62581 3.5691 9.62581 5.04928C9.62581 6.52946 10.8227 7.72369 12.3062 7.72369C13.7897 7.72369 14.9866 6.52946 14.9866 5.04928ZM26.1465 5.04928C26.1465 7.45457 24.1741 9.42253 21.7634 9.42253C19.3359 9.42253 17.3804 7.45457 17.3804 5.04928C17.3804 2.64399 19.3528 0.676025 21.7634 0.676025C24.1741 0.676025 26.1465 2.64399 26.1465 5.04928ZM24.4438 5.04928C24.4438 3.5691 23.2469 2.37487 21.7634 2.37487C20.2799 2.37487 19.083 3.5691 19.083 5.04928C19.083 6.52946 20.2799 7.72369 21.7634 7.72369C23.2469 7.72369 24.4438 6.52946 24.4438 5.04928Z" fill="white"/>
</g>
<defs>
<clipPath id="clip0_25_266">
<rect width="38.5875" height="8.74651" fill="white" transform="translate(0 0.676025)"/>
</clipPath>
</defs>
</svg>
