<svg width="17" height="19" viewBox="0 0 17 19" fill="none" xmlns="http://www.w3.org/2000/svg">
<path fill-rule="evenodd" clip-rule="evenodd" d="M8.49736 4.72135C8.46231 4.9796 8.4246 5.25776 8.38155 5.53582C8.33805 5.79357 8.22926 6.0279 8.12046 6.26222C7.77233 6.94177 7.4677 6.9652 7.07606 6.33253C6.44505 5.3015 6.22747 4.12991 6.09692 2.93485C6.09149 2.86455 6.08468 2.79425 6.0779 2.72395C6.0575 2.51306 6.03709 2.30217 6.05342 2.09129C6.07517 1.78667 6.11867 1.45862 6.24922 1.17743C6.4668 0.685353 6.98902 0.45103 7.48948 0.568191C7.98992 0.661921 8.33805 1.06027 8.42509 1.64608C8.47143 2.16162 8.50677 2.67716 8.54675 3.25972C8.56311 3.49794 8.58022 3.74751 8.59914 4.01273C8.56617 4.21408 8.53316 4.45737 8.49736 4.72135ZM16.313 9.36181C16.3602 9.31996 16.4071 9.2785 16.454 9.23813C16.4431 9.21471 16.4376 9.1854 16.4322 9.15613C16.4268 9.12682 16.4213 9.09754 16.4105 9.07408C16.3683 9.04814 16.3261 9.02039 16.2834 8.99232C16.1721 8.91907 16.0576 8.84373 15.9318 8.79291C14.4087 8.04308 12.7768 8.08993 11.1667 8.27741C11.1086 8.27741 11.0506 8.29825 10.9926 8.31905C10.9635 8.32943 10.9346 8.33989 10.9056 8.34768C10.3833 8.55858 10.057 9.05066 10.0787 9.58962C10.1005 10.1285 10.4486 10.6206 10.9708 10.7612C11.1667 10.8315 11.3842 10.8315 11.5801 10.8315C12.1023 10.8081 12.6245 10.7612 13.1467 10.7144C14.0823 10.6206 14.9526 10.316 15.7577 9.80048C15.9626 9.6718 16.1407 9.51424 16.313 9.36181ZM6.31451 13.245C6.22747 13.9246 6.18396 14.5807 6.14042 15.2602C6.09692 15.9632 6.11867 16.6661 6.31451 17.3925C6.44505 17.8846 6.64089 18.3298 7.03253 18.6579C7.38066 18.9391 7.55474 18.9157 7.79408 18.5173C8.09871 18.0018 8.3163 17.4629 8.38155 16.8536C8.46738 16.0527 8.53438 15.2416 8.60115 14.4337C8.63593 14.0126 8.67065 13.5923 8.70793 13.1747C8.70793 13.081 8.70793 12.9638 8.68618 12.8467C8.62089 12.2843 8.22926 11.8625 7.75058 11.7688C7.27186 11.6517 6.77143 11.9094 6.53209 12.4015C6.4233 12.6592 6.35801 12.9638 6.31451 13.245ZM6.28937 10.5785C6.4801 10.5051 6.67979 10.4283 6.77143 10.152L6.44505 10.0114C4.6826 9.68336 2.92018 9.68332 1.13598 9.82394C0.874877 9.84737 0.613776 9.94111 0.396189 10.0817C-0.169531 10.48 -0.126015 11.3236 0.504982 11.6282C0.744325 11.7454 1.04894 11.7688 1.31005 11.7688C1.73834 11.7468 2.14751 11.6837 2.57341 11.618C2.60188 11.6136 2.63044 11.6092 2.65907 11.6048C3.85579 11.4173 5.05252 11.1127 6.18396 10.6206C6.21825 10.6058 6.25366 10.5922 6.28937 10.5785Z" fill="#004DB3"/>
</svg>
