<svg width="9" height="6" viewBox="0 0 9 6" fill="none" xmlns="http://www.w3.org/2000/svg">
<path d="M5.264 2.09753V1.53086C5.44733 1.45308 5.63489 1.39475 5.82666 1.35586C6.01822 1.31697 6.21955 1.29753 6.43066 1.29753C6.57511 1.29753 6.71678 1.30864 6.85566 1.33086C6.99455 1.35308 7.13066 1.38086 7.264 1.41419V1.94753C7.13066 1.89753 6.996 1.86008 6.86 1.83519C6.72378 1.81008 6.58066 1.79753 6.43066 1.79753C6.21955 1.79753 6.01678 1.82397 5.82233 1.87686C5.62789 1.92953 5.44178 2.00308 5.264 2.09753ZM5.264 3.93086V3.36419C5.44733 3.28641 5.63489 3.22808 5.82666 3.18919C6.01822 3.1503 6.21955 3.13086 6.43066 3.13086C6.57511 3.13086 6.71678 3.14197 6.85566 3.16419C6.99455 3.18642 7.13066 3.21419 7.264 3.24753V3.78086C7.13066 3.73086 6.996 3.69342 6.86 3.66853C6.72378 3.64342 6.58066 3.63086 6.43066 3.63086C6.21955 3.63086 6.01678 3.65586 5.82233 3.70586C5.62789 3.75586 5.44178 3.83086 5.264 3.93086ZM5.264 3.01419V2.44753C5.44733 2.36975 5.63489 2.31142 5.82666 2.27253C6.01822 2.23364 6.21955 2.21419 6.43066 2.21419C6.57511 2.21419 6.71678 2.2253 6.85566 2.24753C6.99455 2.26975 7.13066 2.29753 7.264 2.33086V2.86419C7.13066 2.81419 6.996 2.77675 6.86 2.75186C6.72378 2.72675 6.58066 2.71419 6.43066 2.71419C6.21955 2.71419 6.01678 2.74064 5.82233 2.79353C5.62789 2.84619 5.44178 2.91975 5.264 3.01419ZM2.764 4.13086C3.02511 4.13086 3.27933 4.15997 3.52666 4.21819C3.77378 4.27664 4.01955 4.36419 4.264 4.48086V1.19753C4.03622 1.06419 3.79455 0.964193 3.539 0.897526C3.28344 0.830859 3.02511 0.797526 2.764 0.797526C2.564 0.797526 2.36544 0.816971 2.16833 0.855859C1.971 0.894748 1.78066 0.953082 1.59733 1.03086V4.33086C1.79178 4.26419 1.98489 4.21419 2.17666 4.18086C2.36822 4.14753 2.564 4.13086 2.764 4.13086ZM4.93066 4.48086C5.17511 4.36419 5.421 4.27664 5.66833 4.21819C5.91544 4.15997 6.16955 4.13086 6.43066 4.13086C6.63066 4.13086 6.82655 4.14753 7.01833 4.18086C7.20989 4.21419 7.40289 4.26419 7.59733 4.33086V1.03086C7.414 0.953082 7.22378 0.894748 7.02666 0.855859C6.82933 0.816971 6.63066 0.797526 6.43066 0.797526C6.16955 0.797526 5.91122 0.830859 5.65566 0.897526C5.40011 0.964193 5.15844 1.06419 4.93066 1.19753V4.48086ZM4.59733 5.46419C4.33066 5.25308 4.04178 5.08919 3.73066 4.97253C3.41955 4.85586 3.09733 4.79753 2.764 4.79753C2.53066 4.79753 2.30155 4.82808 2.07666 4.88919C1.85155 4.9503 1.63622 5.03641 1.43066 5.14753C1.314 5.20864 1.20155 5.20586 1.09333 5.13919C0.984886 5.07253 0.930664 4.9753 0.930664 4.84753V0.830859C0.930664 0.769748 0.945997 0.711415 0.976664 0.655859C1.00711 0.600304 1.05289 0.558637 1.114 0.530859C1.36955 0.397526 1.63622 0.297526 1.914 0.230859C2.19178 0.164193 2.47511 0.130859 2.764 0.130859C3.08622 0.130859 3.40155 0.172526 3.71 0.255859C4.01822 0.339193 4.314 0.464193 4.59733 0.630859C4.88066 0.464193 5.17655 0.339193 5.485 0.255859C5.79322 0.172526 6.10844 0.130859 6.43066 0.130859C6.71955 0.130859 7.00289 0.164193 7.28066 0.230859C7.55844 0.297526 7.82511 0.397526 8.08066 0.530859C8.14178 0.558637 8.18766 0.600304 8.21833 0.655859C8.24878 0.711415 8.264 0.769748 8.264 0.830859V4.84753C8.264 4.9753 8.20989 5.07253 8.10166 5.13919C7.99322 5.20586 7.88066 5.20864 7.764 5.14753C7.55844 5.03641 7.34311 4.9503 7.118 4.88919C6.89311 4.82808 6.664 4.79753 6.43066 4.79753C6.09733 4.79753 5.77511 4.85586 5.464 4.97253C5.15289 5.08919 4.864 5.25308 4.59733 5.46419Z" fill="#A1A1A1"/>
</svg>
