<svg width="16" height="16" viewBox="0 0 16 16" fill="none" xmlns="http://www.w3.org/2000/svg">
<mask id="mask0_25_1297" style="mask-type:alpha" maskUnits="userSpaceOnUse" x="0" y="0" width="9" height="9">
<rect x="0.597168" y="0.797485" width="8" height="8" fill="#D9D9D9"/>
</mask>
<g mask="url(#mask0_25_1297)">
<path d="M5.264 4.0974V3.53074C5.44733 3.45296 5.63489 3.39463 5.82666 3.35574C6.01822 3.31685 6.21955 3.2974 6.43066 3.2974C6.57511 3.2974 6.71678 3.30852 6.85566 3.33074C6.99455 3.35296 7.13066 3.38074 7.264 3.41407V3.9474C7.13066 3.8974 6.996 3.85996 6.86 3.83507C6.72378 3.80996 6.58066 3.7974 6.43066 3.7974C6.21955 3.7974 6.01678 3.82385 5.82233 3.87674C5.62789 3.9294 5.44178 4.00296 5.264 4.0974ZM5.264 5.93074V5.36407C5.44733 5.28629 5.63489 5.22796 5.82666 5.18907C6.01822 5.15018 6.21955 5.13074 6.43066 5.13074C6.57511 5.13074 6.71678 5.14185 6.85566 5.16407C6.99455 5.18629 7.13066 5.21407 7.264 5.2474V5.78074C7.13066 5.73074 6.996 5.69329 6.86 5.6684C6.72378 5.64329 6.58066 5.63074 6.43066 5.63074C6.21955 5.63074 6.01678 5.65574 5.82233 5.70574C5.62789 5.75574 5.44178 5.83074 5.264 5.93074ZM5.264 5.01407V4.4474C5.44733 4.36963 5.63489 4.31129 5.82666 4.2724C6.01822 4.23352 6.21955 4.21407 6.43066 4.21407C6.57511 4.21407 6.71678 4.22518 6.85566 4.2474C6.99455 4.26963 7.13066 4.2974 7.264 4.33074V4.86407C7.13066 4.81407 6.996 4.77663 6.86 4.75174C6.72378 4.72663 6.58066 4.71407 6.43066 4.71407C6.21955 4.71407 6.01678 4.74052 5.82233 4.7934C5.62789 4.84607 5.44178 4.91963 5.264 5.01407ZM2.764 6.13074C3.02511 6.13074 3.27933 6.15985 3.52666 6.21807C3.77378 6.27651 4.01955 6.36407 4.264 6.48074V3.1974C4.03622 3.06407 3.79455 2.96407 3.539 2.8974C3.28344 2.83074 3.02511 2.7974 2.764 2.7974C2.564 2.7974 2.36544 2.81685 2.16833 2.85574C1.971 2.89463 1.78066 2.95296 1.59733 3.03074V6.33074C1.79178 6.26407 1.98489 6.21407 2.17666 6.18074C2.36822 6.1474 2.564 6.13074 2.764 6.13074ZM4.93066 6.48074C5.17511 6.36407 5.421 6.27651 5.66833 6.21807C5.91544 6.15985 6.16955 6.13074 6.43066 6.13074C6.63066 6.13074 6.82655 6.1474 7.01833 6.18074C7.20989 6.21407 7.40289 6.26407 7.59733 6.33074V3.03074C7.414 2.95296 7.22378 2.89463 7.02666 2.85574C6.82933 2.81685 6.63066 2.7974 6.43066 2.7974C6.16955 2.7974 5.91122 2.83074 5.65566 2.8974C5.40011 2.96407 5.15844 3.06407 4.93066 3.1974V6.48074ZM4.59733 7.46407C4.33066 7.25296 4.04178 7.08907 3.73066 6.9724C3.41955 6.85574 3.09733 6.7974 2.764 6.7974C2.53066 6.7974 2.30155 6.82796 2.07666 6.88907C1.85155 6.95018 1.63622 7.03629 1.43066 7.1474C1.314 7.20851 1.20155 7.20574 1.09333 7.13907C0.984886 7.0724 0.930664 6.97518 0.930664 6.8474V2.83074C0.930664 2.76963 0.945997 2.71129 0.976664 2.65574C1.00711 2.60018 1.05289 2.55852 1.114 2.53074C1.36955 2.3974 1.63622 2.2974 1.914 2.23074C2.19178 2.16407 2.47511 2.13074 2.764 2.13074C3.08622 2.13074 3.40155 2.1724 3.71 2.25574C4.01822 2.33907 4.314 2.46407 4.59733 2.63074C4.88066 2.46407 5.17655 2.33907 5.485 2.25574C5.79322 2.1724 6.10844 2.13074 6.43066 2.13074C6.71955 2.13074 7.00289 2.16407 7.28066 2.23074C7.55844 2.2974 7.82511 2.3974 8.08066 2.53074C8.14178 2.55852 8.18766 2.60018 8.21833 2.65574C8.24878 2.71129 8.264 2.76963 8.264 2.83074V6.8474C8.264 6.97518 8.20989 7.0724 8.10166 7.13907C7.99322 7.20574 7.88066 7.20851 7.764 7.1474C7.55844 7.03629 7.34311 6.95018 7.118 6.88907C6.89311 6.82796 6.664 6.7974 6.43066 6.7974C6.09733 6.7974 5.77511 6.85574 5.464 6.9724C5.15289 7.08907 4.864 7.25296 4.59733 7.46407Z" fill="#A1A1A1"/>
</g>
</svg>
