<svg width="16" height="16" viewBox="0 0 16 16" fill="none" xmlns="http://www.w3.org/2000/svg">
<mask id="mask0_25_433" style="mask-type:alpha" maskUnits="userSpaceOnUse" x="0" y="0" width="8" height="9">
<rect y="0.797485" width="8" height="8" fill="#D9D9D9"/>
</mask>
<g mask="url(#mask0_25_433)">
<path d="M5.09984 6.36411L5.5665 5.89744L4.33317 4.66411V3.13078H3.6665V4.93078L5.09984 6.36411ZM3.99984 8.13078C3.53873 8.13078 3.10539 8.04322 2.69984 7.86811C2.29428 7.69322 1.9415 7.45578 1.6415 7.15578C1.3415 6.85578 1.10406 6.503 0.929171 6.09744C0.754059 5.69189 0.666504 5.25856 0.666504 4.79744C0.666504 4.33633 0.754059 3.903 0.929171 3.49744C1.10406 3.09189 1.3415 2.73911 1.6415 2.43911C1.9415 2.13911 2.29428 1.90156 2.69984 1.72644C3.10539 1.55156 3.53873 1.46411 3.99984 1.46411C4.46095 1.46411 4.89428 1.55156 5.29984 1.72644C5.70539 1.90156 6.05817 2.13911 6.35817 2.43911C6.65817 2.73911 6.89562 3.09189 7.0705 3.49744C7.24562 3.903 7.33317 4.33633 7.33317 4.79744C7.33317 5.25856 7.24562 5.69189 7.0705 6.09744C6.89562 6.503 6.65817 6.85578 6.35817 7.15578C6.05817 7.45578 5.70539 7.69322 5.29984 7.86811C4.89428 8.04322 4.46095 8.13078 3.99984 8.13078ZM3.99984 7.46411C4.73873 7.46411 5.36795 7.20444 5.8875 6.68511C6.40684 6.16556 6.6665 5.53633 6.6665 4.79744C6.6665 4.05856 6.40684 3.42933 5.8875 2.90978C5.36795 2.39044 4.73873 2.13078 3.99984 2.13078C3.26095 2.13078 2.63184 2.39044 2.1125 2.90978C1.59295 3.42933 1.33317 4.05856 1.33317 4.79744C1.33317 5.53633 1.59295 6.16556 2.1125 6.68511C2.63184 7.20444 3.26095 7.46411 3.99984 7.46411Z" fill="#A1A1A1"/>
</g>
</svg>
