<svg width="8" height="8" viewBox="0 0 8 8" fill="none" xmlns="http://www.w3.org/2000/svg">
<path d="M5.09984 5.36387L5.5665 4.8972L4.33317 3.66387V2.13053H3.6665V3.93053L5.09984 5.36387ZM3.99984 7.13053C3.53873 7.13053 3.10539 7.04298 2.69984 6.86787C2.29428 6.69298 1.9415 6.45553 1.6415 6.15553C1.3415 5.85553 1.10406 5.50276 0.929171 5.0972C0.754059 4.69165 0.666504 4.25831 0.666504 3.7972C0.666504 3.33609 0.754059 2.90276 0.929171 2.4972C1.10406 2.09165 1.3415 1.73887 1.6415 1.43887C1.9415 1.13887 2.29428 0.901312 2.69984 0.726201C3.10539 0.551312 3.53873 0.463867 3.99984 0.463867C4.46095 0.463867 4.89428 0.551312 5.29984 0.726201C5.70539 0.901312 6.05817 1.13887 6.35817 1.43887C6.65817 1.73887 6.89562 2.09165 7.0705 2.4972C7.24562 2.90276 7.33317 3.33609 7.33317 3.7972C7.33317 4.25831 7.24562 4.69165 7.0705 5.0972C6.89562 5.50276 6.65817 5.85553 6.35817 6.15553C6.05817 6.45553 5.70539 6.69298 5.29984 6.86787C4.89428 7.04298 4.46095 7.13053 3.99984 7.13053ZM3.99984 6.46387C4.73873 6.46387 5.36795 6.2042 5.8875 5.68487C6.40684 5.16531 6.6665 4.53609 6.6665 3.7972C6.6665 3.05831 6.40684 2.42909 5.8875 1.90953C5.36795 1.3902 4.73873 1.13053 3.99984 1.13053C3.26095 1.13053 2.63184 1.3902 2.1125 1.90953C1.59295 2.42909 1.33317 3.05831 1.33317 3.7972C1.33317 4.53609 1.59295 5.16531 2.1125 5.68487C2.63184 6.2042 3.26095 6.46387 3.99984 6.46387Z" fill="#A1A1A1"/>
</svg>
