<svg width="17" height="19" viewBox="0 0 17 19" fill="none" xmlns="http://www.w3.org/2000/svg">
<path fill-rule="evenodd" clip-rule="evenodd" d="M8.49736 4.72148C8.46231 4.97972 8.4246 5.25789 8.38155 5.53594C8.33805 5.79369 8.22926 6.02802 8.12046 6.26234C7.77233 6.94189 7.4677 6.96532 7.07606 6.33265C6.44505 5.30162 6.22747 4.13003 6.09692 2.93497C6.09149 2.86467 6.08468 2.79437 6.0779 2.72407C6.0575 2.51319 6.03709 2.3023 6.05342 2.09141C6.07517 1.78679 6.11867 1.45874 6.24922 1.17755C6.4668 0.685475 6.98902 0.451152 7.48948 0.568314C7.98992 0.662043 8.33805 1.06039 8.42509 1.6462C8.47142 2.16174 8.50677 2.67728 8.54675 3.25984C8.56311 3.49807 8.58022 3.74763 8.59914 4.01285C8.56617 4.2142 8.53316 4.45749 8.49736 4.72148ZM16.313 9.36194C16.3602 9.32008 16.4071 9.27862 16.454 9.23825C16.4431 9.21483 16.4376 9.18552 16.4322 9.15625C16.4268 9.12694 16.4213 9.09767 16.4105 9.0742C16.3683 9.04826 16.3261 9.02051 16.2834 8.99245C16.1721 8.91919 16.0576 8.84385 15.9318 8.79303C14.4087 8.0432 12.7768 8.09006 11.1667 8.27753C11.1086 8.27753 11.0506 8.29837 10.9926 8.31917C10.9635 8.32955 10.9346 8.34001 10.9056 8.34781C10.3833 8.5587 10.057 9.05078 10.0787 9.58974C10.1005 10.1287 10.4486 10.6207 10.9708 10.7613C11.1667 10.8316 11.3842 10.8316 11.5801 10.8316C12.1023 10.8082 12.6245 10.7613 13.1467 10.7145C14.0823 10.6207 14.9526 10.3161 15.7577 9.8006C15.9626 9.67192 16.1407 9.51436 16.313 9.36194ZM6.31451 13.2452C6.22747 13.9247 6.18396 14.5808 6.14042 15.2603C6.09692 15.9633 6.11867 16.6663 6.31451 17.3927C6.44505 17.8847 6.64089 18.33 7.03253 18.658C7.38066 18.9392 7.55474 18.9158 7.79408 18.5174C8.09871 18.0019 8.3163 17.463 8.38155 16.8537C8.46738 16.0528 8.53438 15.2417 8.60115 14.4338C8.63593 14.0127 8.67065 13.5924 8.70793 13.1749C8.70793 13.0811 8.70793 12.964 8.68618 12.8468C8.62089 12.2844 8.22926 11.8626 7.75058 11.7689C7.27186 11.6518 6.77143 11.9095 6.53209 12.4016C6.4233 12.6594 6.35801 12.964 6.31451 13.2452ZM6.28937 10.5786C6.4801 10.5052 6.67979 10.4284 6.77143 10.1521L6.44505 10.0115C4.6826 9.68348 2.92018 9.68344 1.13598 9.82407C0.874877 9.84749 0.613776 9.94123 0.396189 10.0818C-0.169531 10.4802 -0.126015 11.3237 0.504982 11.6284C0.744325 11.7455 1.04894 11.7689 1.31005 11.7689C1.73834 11.747 2.14751 11.6838 2.57341 11.6181C2.60188 11.6137 2.63044 11.6093 2.65907 11.6049C3.85579 11.4175 5.05252 11.1128 6.18396 10.6207C6.21825 10.606 6.25366 10.5924 6.28937 10.5786Z" fill="#004DB3"/>
</svg>
