<svg width="32" height="26" viewBox="0 0 32 26" fill="none" xmlns="http://www.w3.org/2000/svg">
<g clip-path="url(#clip0_25_854)">
<mask id="mask0_25_854" style="mask-type:luminance" maskUnits="userSpaceOnUse" x="0" y="0" width="32" height="26">
<path d="M32 0.605713H0V25.3944H32V0.605713Z" fill="white"/>
</mask>
<g mask="url(#mask0_25_854)">
<path d="M27.0894 2.81314C25.0498 1.8773 22.8626 1.18781 20.5759 0.792916C20.5342 0.785295 20.4926 0.804341 20.4712 0.842435C20.1899 1.34272 19.8783 1.99539 19.6601 2.50838C17.2005 2.14015 14.7536 2.14015 12.3444 2.50838C12.1262 1.98398 11.8033 1.34272 11.5208 0.842435C11.4993 0.805612 11.4577 0.786566 11.4161 0.792916C9.13055 1.18655 6.94341 1.87604 4.90258 2.81314C4.88491 2.82076 4.86977 2.83347 4.85972 2.84997C0.711189 9.04778 -0.425267 15.0933 0.13224 21.0638C0.134763 21.093 0.15116 21.1209 0.173864 21.1387C2.91095 23.1487 5.56228 24.369 8.16437 25.1779C8.20602 25.1906 8.25014 25.1753 8.27664 25.141C8.89217 24.3005 9.44086 23.4142 9.9113 22.4821C9.93906 22.4275 9.91256 22.3628 9.85582 22.3412C8.98551 22.011 8.1568 21.6085 7.35964 21.1514C7.29659 21.1146 7.29154 21.0244 7.34954 20.9812C7.5173 20.8555 7.68509 20.7247 7.84527 20.5927C7.87425 20.5685 7.91464 20.5635 7.94871 20.5787C13.1857 22.9697 18.8554 22.9697 24.0306 20.5787C24.0647 20.5622 24.1051 20.5673 24.1353 20.5914C24.2955 20.7235 24.4633 20.8555 24.6323 20.9812C24.6903 21.0244 24.6865 21.1146 24.6235 21.1514C23.8263 21.6174 22.9976 22.011 22.126 22.3399C22.0693 22.3615 22.044 22.4275 22.0718 22.4821C22.5523 23.4129 23.101 24.2992 23.7052 25.1398C23.7304 25.1753 23.7758 25.1906 23.8175 25.1779C26.4322 24.369 29.0835 23.1487 31.8206 21.1387C31.8446 21.1209 31.8597 21.0942 31.8622 21.065C32.5294 14.1625 30.7447 8.16656 27.131 2.85123C27.1221 2.83347 27.107 2.82076 27.0894 2.81314ZM10.6934 17.4284C9.11666 17.4284 7.81751 15.9808 7.81751 14.2031C7.81751 12.4254 9.09147 10.9779 10.6934 10.9779C12.3078 10.9779 13.5944 12.4381 13.5692 14.2031C13.5692 15.9808 12.2952 17.4284 10.6934 17.4284ZM21.3263 17.4284C19.7497 17.4284 18.4505 15.9808 18.4505 14.2031C18.4505 12.4254 19.7244 10.9779 21.3263 10.9779C22.9408 10.9779 24.2274 12.4381 24.2022 14.2031C24.2022 15.9808 22.9408 17.4284 21.3263 17.4284Z" fill="#AAC4E6"/>
</g>
</g>
<defs>
<clipPath id="clip0_25_854">
<rect width="32" height="24.7887" fill="white" transform="translate(0 0.605713)"/>
</clipPath>
</defs>
</svg>
