<svg width="96" height="40" viewBox="0 0 96 40" fill="none" xmlns="http://www.w3.org/2000/svg">
<path d="M17.7836 3.61889C17.8805 3.49786 17.9773 3.37684 18.0741 3.25582C18.2677 3.03799 18.4735 2.83225 18.6913 2.63862C18.9575 2.42079 19.2964 2.20295 19.7079 1.98511C20.1435 1.76728 20.6397 1.67046 21.1964 1.69466C21.39 1.69466 21.5716 1.71887 21.741 1.76728C21.8862 1.81568 22.0194 1.8883 22.1404 1.98511C22.2614 2.05772 22.3461 2.17874 22.3945 2.34817C23.7015 2.03352 25.0207 1.75517 26.3519 1.51313C27.6831 1.24689 28.9659 1.05326 30.2003 0.932235C31.4347 0.811215 32.5965 0.77491 33.6857 0.823319C34.7749 0.847522 35.731 0.968542 36.5539 1.18638C37.3768 1.40422 38.0303 1.73097 38.5144 2.16664C39.0227 2.60232 39.301 3.15901 39.3495 3.83672C39.3495 4.05456 39.3374 4.2724 39.3132 4.49023C39.2647 4.68386 39.2042 4.8775 39.1316 5.07113C39.0832 5.26476 38.9864 5.45839 38.8412 5.65203C38.6959 5.84566 38.5144 5.95458 38.2966 5.97878C38.1029 5.97878 37.873 5.84566 37.6068 5.57941C37.3889 5.36158 36.8322 5.14374 35.9367 4.9259C35.0411 4.68386 33.8309 4.52654 32.3061 4.45392C30.8054 4.38131 29.0143 4.42972 26.9328 4.59915C24.8754 4.76858 22.5639 5.15584 19.9983 5.76094C19.1512 6.97115 18.2798 8.37498 17.3843 9.97245C16.4887 11.5457 15.6658 13.0585 14.9155 14.5107C14.0441 16.205 13.1849 17.9235 12.3377 19.6662C11.0549 22.2318 10.0262 24.4344 9.25172 26.2739C8.50139 28.0892 7.9568 29.6503 7.61795 30.9574C7.13386 32.7969 6.84342 34.1765 6.7466 35.0963C6.64978 36.0402 6.62558 36.7179 6.67399 37.1294C6.7466 37.5409 6.84342 37.795 6.96444 37.8918C7.08546 38.0128 7.13386 38.1581 7.10966 38.3275C7.06125 38.5211 6.97654 38.6664 6.85552 38.7632C6.7587 38.86 6.64978 38.9326 6.52876 38.981C6.38354 39.0294 6.23831 39.0536 6.09309 39.0536C5.65742 39.0294 5.30646 38.8842 5.04021 38.6179C4.77397 38.3517 4.56823 38.0128 4.42301 37.6014C4.30199 37.1899 4.21728 36.73 4.16887 36.2217C4.14466 35.7135 4.14466 35.1931 4.16887 34.6606C4.24148 33.4262 4.47142 32.0344 4.85868 30.4854C5.24595 28.6459 5.85105 26.6611 6.67399 24.5312C7.52113 22.377 8.45298 20.2471 9.46956 18.1413C10.4861 16.0114 11.539 13.9782 12.6282 12.0419C13.7174 10.1056 14.6976 8.42339 15.569 6.99535C13.2212 7.8667 11.2607 8.72594 9.68739 9.57308C8.13833 10.396 6.87972 11.2069 5.91156 12.0056C4.9676 12.7801 4.26568 13.5304 3.80581 14.2566C3.37013 14.9585 3.09179 15.6362 2.97077 16.2897C2.84975 16.919 2.83764 17.512 2.93446 18.0687C3.05548 18.6012 3.20071 19.0853 3.37013 19.5209C3.53956 19.9324 3.68479 20.2834 3.80581 20.5738C3.92683 20.8643 3.93893 21.0821 3.84211 21.2273C3.64848 21.4936 3.37013 21.6025 3.00707 21.5541C2.66822 21.5057 2.36567 21.3726 2.09942 21.1547C1.90579 21.0095 1.74846 20.8401 1.62744 20.6464C1.50642 20.4528 1.40961 20.2713 1.33699 20.1018C1.24018 19.9082 1.16757 19.7025 1.11916 19.4846C0.756096 18.226 0.683484 17.0521 0.90132 15.963C1.11916 14.8738 1.53063 13.8572 2.13573 12.9132C2.76503 11.9451 3.55166 11.0616 4.49562 10.2629C5.43958 9.46416 6.44405 8.73804 7.50903 8.08453C8.59821 7.43102 9.7116 6.85013 10.8492 6.34184C11.9868 5.83356 13.0639 5.38578 14.0804 4.99852C14.1046 4.97431 14.1167 4.96221 14.1167 4.96221C14.1409 4.96221 14.1651 4.95011 14.1893 4.9259C14.7218 4.70807 15.2906 4.49023 15.8957 4.27239C16.5008 4.05456 17.1301 3.83672 17.7836 3.61889ZM10.595 7.64886C10.6435 7.62466 10.6798 7.61255 10.704 7.61255C10.7524 7.58835 10.8008 7.56415 10.8492 7.53994C10.9218 7.49153 11.0065 7.44313 11.1033 7.39472C11.297 7.32211 11.4664 7.24949 11.6116 7.17688C11.781 7.08007 11.9384 6.99535 12.0836 6.92274C13.3422 6.34184 14.3225 5.90617 15.0244 5.61572C15.218 5.54311 15.3753 5.4826 15.4964 5.43419C15.6174 5.38578 15.7263 5.33737 15.8231 5.28896C15.8715 5.26476 15.9078 5.25266 15.932 5.25266C15.9804 5.25266 16.0168 5.24056 16.041 5.21635C16.0652 5.21635 16.0894 5.20425 16.1136 5.18005C15.8715 5.22846 15.6779 5.27686 15.5327 5.32527C15.4843 5.34948 15.4359 5.36158 15.3874 5.36158C15.339 5.36158 15.2906 5.37368 15.2422 5.39788C15.1938 5.42209 15.1454 5.43419 15.097 5.43419C15.0002 5.4826 14.9518 5.5068 14.9518 5.5068C14.7581 5.55521 14.5524 5.61572 14.3346 5.68833C14.1409 5.73674 13.9473 5.79725 13.7537 5.86986C13.3422 6.01509 12.9307 6.17241 12.5193 6.34184C12.1078 6.48707 11.6963 6.64439 11.2849 6.81382L10.9944 6.95904C10.946 6.98325 10.8976 7.00745 10.8492 7.03166C10.8008 7.05586 10.7524 7.08007 10.704 7.10427C10.5829 7.15268 10.474 7.20109 10.3772 7.24949C10.3046 7.2979 10.2078 7.34631 10.0868 7.39472C9.89313 7.46733 9.69949 7.56415 9.50586 7.68517C9.45745 7.70937 9.40904 7.73357 9.36064 7.75778C9.31223 7.78198 9.26382 7.80619 9.21541 7.83039C9.167 7.8788 9.07019 7.92721 8.92496 7.97561C8.5619 8.19345 8.19884 8.41129 7.83578 8.62912C7.49692 8.84696 7.15807 9.0648 6.81921 9.28263C6.48035 9.52467 6.1657 9.75461 5.87525 9.97245C5.60901 10.1903 5.34276 10.4202 5.07652 10.6623C4.83448 10.8801 4.60454 11.0979 4.3867 11.3158C4.19307 11.5094 4.01154 11.703 3.84211 11.8967C3.67268 12.0903 3.52746 12.2597 3.40644 12.405C3.30962 12.5502 3.21281 12.6833 3.11599 12.8043C3.06758 12.8769 3.01917 12.9617 2.97077 13.0585C2.94656 13.0827 2.93446 13.1069 2.93446 13.1311C2.93446 13.1553 2.92236 13.1674 2.89815 13.1674C2.94656 13.0948 2.99497 13.0343 3.04338 12.9859C3.09179 12.9132 3.1402 12.8527 3.1886 12.8043C3.21281 12.7801 3.22491 12.7559 3.22491 12.7317C3.24911 12.7075 3.27332 12.6833 3.29752 12.6591L3.44275 12.5139C3.56377 12.3929 3.66058 12.2839 3.73319 12.1871C3.83001 12.0903 3.93893 11.9935 4.05995 11.8967C4.44721 11.5578 4.85868 11.219 5.29436 10.8801C5.70582 10.5412 6.11729 10.2387 6.52876 9.97245C6.94023 9.70621 7.3517 9.45206 7.76317 9.21002C8.17464 8.96798 8.5619 8.75015 8.92496 8.55651C9.31223 8.33868 9.68739 8.13294 10.0505 7.93931C10.1473 7.8667 10.2441 7.81829 10.3409 7.79408C10.3893 7.76988 10.4256 7.74568 10.4498 7.72147C10.4982 7.69727 10.5466 7.67306 10.595 7.64886ZM15.932 8.33868C14.8429 10.0814 13.8263 11.7878 12.8823 13.4578C12.3982 14.2808 11.9505 15.0916 11.539 15.8903C11.1275 16.6891 10.7282 17.4757 10.3409 18.2502C8.81605 21.3241 7.64215 24.0592 6.81921 26.4554C6.62558 27.0605 6.44405 27.6293 6.27462 28.1618C6.10519 28.6943 5.95997 29.2026 5.83895 29.6866C5.79054 29.9287 5.74213 30.1586 5.69372 30.3765C5.64531 30.5943 5.59691 30.8121 5.5485 31.03C5.52429 31.1268 5.50009 31.2236 5.47589 31.3204C5.47589 31.4172 5.46378 31.5141 5.43958 31.6109C5.43958 31.6593 5.42748 31.6956 5.40327 31.7198C5.40327 31.7682 5.40327 31.8166 5.40327 31.865C5.40327 31.9134 5.39117 31.9618 5.36697 32.0102C5.36697 32.0586 5.36697 32.1071 5.36697 32.1555C5.31856 32.4943 5.28225 32.7848 5.25805 33.0268C5.25805 33.2931 5.25805 33.5109 5.25805 33.6803V34.0797V34.2249C5.28225 34.0313 5.29436 33.8497 5.29436 33.6803C5.31856 33.5351 5.34276 33.3657 5.36697 33.172L5.5848 32.0829C5.63321 31.8892 5.66952 31.7077 5.69372 31.5383C5.74213 31.3688 5.79054 31.1873 5.83895 30.9937L6.1657 29.9045C6.62558 28.4764 7.15807 27.0121 7.76317 25.5115C8.07782 24.7853 8.38037 24.0592 8.67082 23.3331C8.98547 22.607 9.30013 21.8929 9.61478 21.191C9.95364 20.4891 10.2683 19.7993 10.5587 19.1216C10.8734 18.4439 11.188 17.7904 11.5027 17.1611C12.1078 15.8782 12.6766 14.7043 13.2091 13.6394C13.7416 12.5502 14.2135 11.6183 14.625 10.8438C15.0123 10.0451 15.339 9.42786 15.6053 8.99219L15.932 8.33868ZM38.6596 4.23609C38.708 3.94564 38.6717 3.65519 38.5507 3.36474C38.4297 3.05009 38.2603 2.78385 38.0424 2.56601C37.9214 2.44499 37.7883 2.34817 37.6431 2.27556C37.5221 2.17874 37.401 2.09403 37.28 2.02142C36.9654 1.85199 36.687 1.75517 36.445 1.73097C36.1787 1.65836 35.9246 1.60995 35.6825 1.58575C35.4405 1.56154 35.2348 1.54944 35.0653 1.54944H34.666H34.5571H34.5208C34.6176 1.57364 34.7144 1.59785 34.8112 1.62205C34.908 1.62205 35.0048 1.63415 35.1016 1.65836L35.6462 1.76728C35.8399 1.81568 36.0093 1.86409 36.1545 1.9125C36.324 1.96091 36.4813 2.00932 36.6265 2.05772C36.7717 2.13034 36.9048 2.20295 37.0259 2.27556C37.1711 2.32397 37.3042 2.38448 37.4252 2.45709C37.5463 2.5297 37.6552 2.60232 37.752 2.67493C37.8488 2.74754 37.9335 2.83225 38.0061 2.92907C38.1756 3.0985 38.2966 3.26793 38.3692 3.43735C38.4418 3.58258 38.5023 3.7157 38.5507 3.83672C38.5749 3.90933 38.587 3.96984 38.587 4.01825C38.6112 4.04246 38.6233 4.07876 38.6233 4.12717C38.6233 4.15138 38.6354 4.17558 38.6596 4.19978V4.23609ZM24.0646 20.7917C24.3308 20.8159 24.4761 21.0579 24.5003 21.5178C24.5487 21.9535 24.4882 22.4254 24.3187 22.9337C24.1251 23.4662 23.8468 23.9987 23.4837 24.5312C23.1448 25.0395 22.7092 25.4993 22.1767 25.9108C21.6684 26.2981 21.0633 26.6006 20.3614 26.8185C19.6837 27.0363 18.9212 27.1089 18.0741 27.0363C17.2754 26.9637 16.5734 26.7217 15.9683 26.3102C15.4601 25.9713 15.0002 25.463 14.5887 24.7853C14.2014 24.0834 14.0683 23.091 14.1893 21.8082C14.262 20.9853 14.4556 20.1503 14.7702 19.3031C15.0365 18.577 15.4359 17.8025 15.9683 16.9795C16.525 16.1324 17.2875 15.3336 18.2556 14.5833C18.7155 14.2445 19.1875 13.954 19.6716 13.712C20.083 13.5183 20.5308 13.3731 21.0149 13.2763C21.499 13.1553 21.9467 13.1916 22.3582 13.3852C23.0843 13.6999 23.52 14.1719 23.6652 14.8012C23.8105 15.4305 23.7741 15.9993 23.5563 16.5075C23.4353 16.7738 23.2659 17.1005 23.048 17.4878C22.8544 17.8509 22.5397 18.2381 22.1041 18.6496C21.6926 19.0611 21.1238 19.4725 20.3977 19.884C19.6716 20.2955 18.7397 20.6585 17.6021 20.9732C17.3117 21.7477 17.1301 22.4496 17.0575 23.0789C17.0091 23.6356 17.0454 24.1681 17.1664 24.6764C17.3117 25.1605 17.6868 25.4993 18.2919 25.693C18.8728 25.8866 19.4174 25.8866 19.9257 25.693C20.4582 25.4993 20.9302 25.2089 21.3416 24.8216C21.7773 24.4344 22.1404 23.9866 22.4308 23.4783C22.7455 22.97 22.9754 22.498 23.1206 22.0624C23.169 21.9656 23.2175 21.8445 23.2659 21.6993C23.3385 21.5541 23.4111 21.4089 23.4837 21.2636C23.5805 21.1184 23.6773 21.0095 23.7741 20.9369C23.871 20.8401 23.9678 20.7917 24.0646 20.7917ZM21.5595 17.3063C21.7047 17.1126 21.7894 16.919 21.8136 16.7254C21.862 16.5317 21.8378 16.3744 21.741 16.2534C21.6684 16.1324 21.5232 16.0719 21.3053 16.0719C21.0875 16.0719 20.8213 16.1687 20.5066 16.3623C20.1919 16.556 19.8773 16.8222 19.5626 17.1611C19.2722 17.4757 19.0181 17.7904 18.8002 18.105C18.5824 18.4197 18.4008 18.698 18.2556 18.9401C18.1346 19.1579 18.0983 19.2668 18.1467 19.2668C18.3403 19.2668 18.5945 19.2063 18.9091 19.0853C19.248 18.9643 19.5747 18.8069 19.8894 18.6133C20.2283 18.3955 20.5429 18.1776 20.8334 17.9598C21.148 17.7177 21.39 17.4999 21.5595 17.3063ZM14.9881 21.5904C15.2059 20.8885 15.4964 20.1866 15.8594 19.4846C16.1741 18.8795 16.5613 18.2381 17.0212 17.5604C17.5053 16.8827 18.0862 16.2655 18.7639 15.7088C19.6837 14.9585 20.434 14.4986 21.0149 14.3292C21.62 14.1598 22.0799 14.1355 22.3945 14.2566C22.2977 14.1598 22.1888 14.0629 22.0678 13.9661C21.8015 13.7967 21.4385 13.7483 20.9786 13.8209C20.6881 13.8693 20.2646 14.0629 19.7079 14.4018C19.1754 14.7406 18.6066 15.2247 18.0015 15.854C17.3964 16.4833 16.8155 17.2821 16.2588 18.2502C15.7263 19.1942 15.3027 20.3076 14.9881 21.5904ZM34.371 12.405C34.9035 12.9132 35.1939 13.4578 35.2423 14.0387C35.3149 14.6196 35.2423 15.1884 35.0245 15.7451C34.9277 15.9387 34.8188 16.1082 34.6977 16.2534C34.5767 16.3744 34.4436 16.4833 34.2984 16.5802C34.1531 16.677 33.9837 16.7012 33.7901 16.6528C33.6207 16.6044 33.4754 16.4954 33.3544 16.326C33.2334 16.1324 33.2334 15.8782 33.3544 15.5636C33.4028 15.37 33.4512 15.2005 33.4996 15.0553C33.548 14.9101 33.5844 14.777 33.6086 14.6559C33.6328 14.5349 33.657 14.4139 33.6812 14.2929C33.0761 14.777 32.4952 15.4063 31.9385 16.1808C31.3818 16.9553 30.8735 17.8025 30.4136 18.7222C29.9537 19.642 29.5423 20.5738 29.1792 21.5178C28.8162 22.4617 28.5378 23.3331 28.3442 24.1318C28.1505 24.9306 28.0416 25.6083 28.0174 26.165C27.9932 26.7217 28.09 27.0605 28.3079 27.1815C28.5983 27.351 28.9977 27.2904 29.506 27C30.0143 26.7338 30.5225 26.3828 31.0308 25.9471C31.5391 25.5115 31.9869 25.0758 32.3742 24.6401C32.7856 24.1802 33.0398 23.8777 33.1366 23.7325C33.2576 23.5872 33.3786 23.5025 33.4996 23.4783C33.6449 23.4541 33.7659 23.5025 33.8627 23.6235C33.9595 23.7688 33.9837 23.9382 33.9353 24.1318L33.8627 24.4223C33.7901 24.6643 33.6207 24.979 33.3544 25.3662C33.1124 25.7535 32.8098 26.1408 32.4468 26.528C32.0837 26.9153 31.6843 27.2783 31.2487 27.6172C30.8372 27.9803 30.4136 28.2465 29.9779 28.4159C29.3002 28.6822 28.7193 28.8153 28.2353 28.8153C27.7754 28.8153 27.376 28.7548 27.0372 28.6338C26.6499 28.5128 26.3231 28.3191 26.0569 28.0529C25.5728 27.593 25.2461 27.0121 25.0766 26.3102C24.9314 25.5841 24.8951 24.7974 24.9677 23.9503C25.0645 23.0789 25.2461 22.1834 25.5123 21.2636C25.8027 20.3439 26.1416 19.4604 26.5289 18.6133C26.9403 17.742 27.3639 16.9432 27.7996 16.2171C28.2595 15.4668 28.7072 14.8375 29.1429 14.3292C29.7238 13.6273 30.3289 13.0585 30.9582 12.6228C31.4907 12.2597 32.0474 12.0177 32.6283 11.8967C33.2334 11.7514 33.8143 11.9209 34.371 12.405ZM25.9117 24.9306C26.2505 23.2847 26.6862 21.7961 27.2187 20.4649C27.7512 19.1095 28.2716 17.9477 28.7798 16.9795C29.3849 15.8419 30.0143 14.8254 30.6678 13.9298C29.5302 15.0432 28.6467 16.2413 28.0174 17.5241C27.3881 18.7827 26.9161 19.9687 26.6015 21.0821C26.2384 22.3891 26.0085 23.6719 25.9117 24.9306ZM40.6054 4.96221C40.9201 4.21189 41.2952 3.57048 41.7309 3.03799C42.094 2.57811 42.5417 2.19085 43.0742 1.87619C43.6067 1.53734 44.2118 1.46473 44.8895 1.65836C45.1558 1.73097 45.4099 1.87619 45.652 2.09403C45.8456 2.28766 46.015 2.55391 46.1602 2.89276C46.3297 3.20742 46.4144 3.63099 46.4144 4.16348C46.3902 4.45393 46.3418 4.78068 46.2692 5.14374C46.2208 5.5068 46.136 5.90617 46.015 6.34184C45.773 7.14058 45.422 8.01192 44.9621 8.95588C44.5023 9.87563 43.9698 10.7833 43.3647 11.6788C42.7596 12.5744 42.094 13.4094 41.3678 14.184C40.6417 14.9585 39.8793 15.5878 39.0806 16.0719C38.6691 17.2337 38.306 18.3107 37.9914 19.3031C37.6767 20.2955 37.4105 21.191 37.1926 21.9898C37.5799 21.312 38.0398 20.5496 38.5723 19.7025C39.129 18.8311 39.7099 18.0324 40.315 17.3063C40.9443 16.556 41.5736 15.9387 42.2029 15.4547C42.8564 14.9706 43.4736 14.7406 44.0545 14.7649C44.5386 14.8133 44.9137 15.019 45.18 15.3821C45.3978 15.6967 45.5188 16.1808 45.543 16.8343C45.5672 17.4878 45.3494 18.4318 44.8895 19.6662C44.6717 20.2713 44.4176 20.9127 44.1271 21.5904C43.8367 22.2439 43.5825 22.8732 43.3647 23.4783C42.8564 24.9063 42.5417 26.0076 42.4207 26.7822C42.2997 27.5567 42.336 28.0045 42.5296 28.1255C42.5538 28.1497 42.578 28.1618 42.6023 28.1618C42.6749 28.1376 42.7596 28.1376 42.8564 28.1618C42.9774 28.186 43.0984 28.2586 43.2195 28.3796C43.3163 28.4764 43.3768 28.5854 43.401 28.7064C43.4494 28.8516 43.4131 29.021 43.2921 29.2147C43.0984 29.4809 42.8564 29.6503 42.5659 29.723C42.2997 29.7956 42.0335 29.8077 41.7672 29.7593C41.501 29.7109 41.2468 29.614 41.0048 29.4688C40.7627 29.3478 40.5691 29.1905 40.4239 28.9968C40.2303 28.7548 40.0971 28.4522 40.0245 28.0892C39.9761 27.7503 39.9519 27.4236 39.9519 27.1089C39.9519 26.7459 39.9761 26.3707 40.0245 25.9834C40.1939 24.628 40.4723 23.3694 40.8596 22.2076C41.2468 21.0458 41.5978 20.1139 41.9124 19.412C42.2271 18.7101 42.4449 18.1897 42.5659 17.8509C42.687 17.4878 42.6991 17.2458 42.6023 17.1247C42.5538 17.0763 42.4812 17.0763 42.3844 17.1247C42.2876 17.149 42.1908 17.1974 42.094 17.27C41.9972 17.3668 41.8761 17.4757 41.7309 17.5967C41.15 18.1534 40.557 18.8674 39.9519 19.7388C39.3468 20.5859 38.7901 21.4331 38.2818 22.2802C37.7735 23.1031 37.35 23.8414 37.0111 24.4949C36.6723 25.1484 36.4786 25.5236 36.4302 25.6204C36.3576 25.8382 36.2366 25.9713 36.0672 26.0197C35.9219 26.0439 35.7525 26.0197 35.5589 25.9471C35.3894 25.8503 35.22 25.7293 35.0506 25.5841C34.8812 25.4146 34.7359 25.2452 34.6149 25.0758C34.4939 24.9306 34.4213 24.7369 34.3971 24.4949C34.3729 24.2528 34.3729 23.9987 34.3971 23.7325C34.4213 23.442 34.4697 23.1274 34.5423 22.7885C34.7117 21.8445 34.9175 20.8885 35.1595 19.9203C35.4015 18.9522 35.6678 17.984 35.9582 17.0158C36.0309 16.7496 36.0914 16.5317 36.1398 16.3623C36.2124 16.1929 36.2729 16.0235 36.3213 15.854C36.6844 14.7406 37.0595 13.6636 37.4468 12.6228C37.8341 11.5578 38.2092 10.5654 38.5723 9.6457C38.9595 8.70174 39.3226 7.83039 39.6615 7.03166C40.0245 6.23292 40.3392 5.54311 40.6054 4.96221ZM43.8367 19.7025C43.643 20.1866 43.4857 20.6222 43.3647 21.0095C43.2679 21.3726 43.1953 21.6872 43.1468 21.9535C43.0742 22.2681 43.0258 22.5465 43.0016 22.7885C43.1953 22.135 43.4494 21.4452 43.764 20.719C44.0787 19.9929 44.3691 19.2184 44.6354 18.3955C44.7564 17.984 44.8169 17.6572 44.8169 17.4152C44.8411 17.149 44.829 16.9311 44.7806 16.7617C44.7322 16.5681 44.6596 16.4228 44.5628 16.326C44.6112 16.8827 44.5628 17.4031 44.4176 17.8872C44.2965 18.3471 44.1029 18.9522 43.8367 19.7025ZM43.3284 6.30553C42.7233 7.44313 42.1424 8.61702 41.5857 9.82723C41.0532 11.0374 40.5449 12.2597 40.0608 13.4941C40.6901 12.8406 41.3436 11.9935 42.0214 10.9527C42.7233 9.91194 43.3889 8.60492 44.0182 7.03166C44.3086 6.47496 44.5265 5.97878 44.6717 5.54311C44.7927 5.18005 44.8653 4.86539 44.8895 4.59915C44.9379 4.3087 44.8532 4.22399 44.6354 4.34501C44.5628 4.39342 44.4781 4.46603 44.3812 4.56284C44.0424 5.04692 43.7883 5.44629 43.6188 5.76094C43.522 5.95458 43.4252 6.13611 43.3284 6.30553ZM41.5131 5.14374C41.0774 5.89407 40.6417 6.717 40.2061 7.61255C39.843 8.38708 39.4557 9.27053 39.0443 10.2629C38.657 11.2553 38.3302 12.3081 38.064 13.4215C38.4755 12.4292 38.899 11.4489 39.3347 10.4807C39.6978 9.63359 40.0729 8.73804 40.4602 7.79408C40.8717 6.85013 41.2226 5.96668 41.5131 5.14374ZM66.3927 3.61889C66.4895 3.49786 66.5863 3.37684 66.6831 3.25582C66.8767 3.03799 67.0825 2.83225 67.3003 2.63862C67.5666 2.42079 67.9054 2.20295 68.3169 1.98511C68.7526 1.76728 69.2487 1.67046 69.8054 1.69466C69.9991 1.69466 70.1806 1.71887 70.35 1.76728C70.4952 1.81568 70.6284 1.8883 70.7494 1.98511C70.8704 2.05772 70.9551 2.17874 71.0035 2.34817C72.3105 2.03352 73.6297 1.75517 74.9609 1.51313C76.2921 1.24689 77.5749 1.05326 78.8093 0.932235C80.0437 0.811215 81.2055 0.77491 82.2947 0.823319C83.3839 0.847522 84.34 0.968542 85.1629 1.18638C85.9858 1.40422 86.6393 1.73097 87.1234 2.16664C87.6317 2.60232 87.9101 3.15901 87.9585 3.83672C87.9585 4.05456 87.9464 4.2724 87.9222 4.49023C87.8738 4.68386 87.8132 4.8775 87.7406 5.07113C87.6922 5.26476 87.5954 5.45839 87.4502 5.65203C87.305 5.84566 87.1234 5.95458 86.9056 5.97878C86.712 5.97878 86.482 5.84566 86.2158 5.57941C85.9979 5.36158 85.4412 5.14374 84.5457 4.9259C83.6501 4.68386 82.4399 4.52654 80.9151 4.45392C79.4144 4.38131 77.6233 4.42972 75.5418 4.59915C73.4844 4.76858 71.173 5.15584 68.6073 5.76094C67.7602 6.97115 66.8888 8.37498 65.9933 9.97245C65.0977 11.5457 64.2748 13.0585 63.5245 14.5107C62.6531 16.205 61.7939 17.9235 60.9467 19.6662C59.6639 22.2318 58.6353 24.4344 57.8607 26.2739C57.1104 28.0892 56.5658 29.6503 56.227 30.9574C55.7429 32.7969 55.4524 34.1765 55.3556 35.0963C55.2588 36.0402 55.2346 36.7179 55.283 37.1294C55.3556 37.5409 55.4524 37.795 55.5734 37.8918C55.6945 38.0128 55.7429 38.1581 55.7187 38.3275C55.6703 38.5211 55.5856 38.6664 55.4645 38.7632C55.3677 38.86 55.2588 38.9326 55.1378 38.981C54.9926 39.0294 54.8473 39.0536 54.7021 39.0536C54.2664 39.0294 53.9155 38.8842 53.6492 38.6179C53.383 38.3517 53.1772 38.0128 53.032 37.6014C52.911 37.1899 52.8263 36.73 52.7779 36.2217C52.7537 35.7135 52.7537 35.1931 52.7779 34.6606C52.8505 33.4262 53.0804 32.0344 53.4677 30.4854C53.855 28.6459 54.4601 26.6611 55.283 24.5312C56.1301 22.377 57.062 20.2471 58.0786 18.1413C59.0951 16.0114 60.148 13.9782 61.2372 12.0419C62.3264 10.1056 63.3066 8.42339 64.178 6.99535C61.8302 7.8667 59.8697 8.72594 58.2964 9.57308C56.7473 10.396 55.4887 11.2069 54.5206 12.0056C53.5766 12.7801 52.8747 13.5304 52.4148 14.2566C51.9791 14.9585 51.7008 15.6362 51.5798 16.2897C51.4588 16.919 51.4467 17.512 51.5435 18.0687C51.6645 18.6012 51.8097 19.0853 51.9791 19.5209C52.1486 19.9324 52.2938 20.2834 52.4148 20.5738C52.5358 20.8643 52.5479 21.0821 52.4511 21.2273C52.2575 21.4936 51.9791 21.6025 51.6161 21.5541C51.2772 21.5057 50.9747 21.3726 50.7084 21.1547C50.5148 21.0095 50.3575 20.8401 50.2365 20.6464C50.1154 20.4528 50.0186 20.2713 49.946 20.1018C49.8492 19.9082 49.7766 19.7025 49.7282 19.4846C49.3651 18.226 49.2925 17.0521 49.5103 15.963C49.7282 14.8738 50.1396 13.8572 50.7447 12.9132C51.374 11.9451 52.1607 11.0616 53.1046 10.2629C54.0486 9.46416 55.0531 8.73804 56.118 8.08453C57.2072 7.43102 58.3206 6.85013 59.4582 6.34184C60.5958 5.83356 61.6729 5.38578 62.6894 4.99852C62.7136 4.97431 62.7257 4.96221 62.7257 4.96221C62.7499 4.96221 62.7742 4.95011 62.7984 4.9259C63.3308 4.70807 63.8996 4.49023 64.5047 4.27239C65.1098 4.05456 65.7391 3.83672 66.3927 3.61889ZM59.2041 7.64886C59.2525 7.62466 59.2888 7.61255 59.313 7.61255C59.3614 7.58835 59.4098 7.56415 59.4582 7.53994C59.5308 7.49153 59.6155 7.44313 59.7123 7.39472C59.906 7.32211 60.0754 7.24949 60.2206 7.17688C60.3901 7.08007 60.5474 6.99535 60.6926 6.92274C61.9512 6.34184 62.9315 5.90617 63.6334 5.61572C63.827 5.54311 63.9844 5.4826 64.1054 5.43419C64.2264 5.38578 64.3353 5.33737 64.4321 5.28896C64.4805 5.26476 64.5168 5.25266 64.541 5.25266C64.5895 5.25266 64.6258 5.24056 64.65 5.21635C64.6742 5.21635 64.6984 5.20425 64.7226 5.18005C64.4805 5.22846 64.2869 5.27686 64.1417 5.32527C64.0933 5.34948 64.0449 5.36158 63.9965 5.36158C63.948 5.36158 63.8996 5.37368 63.8512 5.39788C63.8028 5.42209 63.7544 5.43419 63.706 5.43419C63.6092 5.4826 63.5608 5.5068 63.5608 5.5068C63.3672 5.55521 63.1614 5.61572 62.9436 5.68833C62.7499 5.73674 62.5563 5.79725 62.3627 5.86986C61.9512 6.01509 61.5397 6.17241 61.1283 6.34184C60.7168 6.48707 60.3053 6.64439 59.8939 6.81382L59.6034 6.95904C59.555 6.98325 59.5066 7.00745 59.4582 7.03166C59.4098 7.05586 59.3614 7.08007 59.313 7.10427C59.192 7.15268 59.083 7.20109 58.9862 7.24949C58.9136 7.2979 58.8168 7.34631 58.6958 7.39472C58.5021 7.46733 58.3085 7.56415 58.1149 7.68517C58.0665 7.70937 58.0181 7.73357 57.9696 7.75778C57.9212 7.78198 57.8728 7.80619 57.8244 7.83039C57.776 7.8788 57.6792 7.92721 57.534 7.97561C57.1709 8.19345 56.8079 8.41129 56.4448 8.62912C56.1059 8.84696 55.7671 9.0648 55.4282 9.28263C55.0894 9.52467 54.7747 9.75461 54.4843 9.97245C54.218 10.1903 53.9518 10.4202 53.6855 10.6623C53.4435 10.8801 53.2136 11.0979 52.9957 11.3158C52.8021 11.5094 52.6206 11.703 52.4511 11.8967C52.2817 12.0903 52.1365 12.2597 52.0155 12.405C51.9186 12.5502 51.8218 12.6833 51.725 12.8043C51.6766 12.8769 51.6282 12.9617 51.5798 13.0585C51.5556 13.0827 51.5435 13.1069 51.5435 13.1311C51.5435 13.1553 51.5314 13.1674 51.5072 13.1674C51.5556 13.0948 51.604 13.0343 51.6524 12.9859C51.7008 12.9132 51.7492 12.8527 51.7976 12.8043C51.8218 12.7801 51.8339 12.7559 51.8339 12.7317C51.8581 12.7075 51.8823 12.6833 51.9065 12.6591L52.0518 12.5139C52.1728 12.3929 52.2696 12.2839 52.3422 12.1871C52.439 12.0903 52.5479 11.9935 52.669 11.8967C53.0562 11.5578 53.4677 11.219 53.9034 10.8801C54.3148 10.5412 54.7263 10.2387 55.1378 9.97245C55.5492 9.70621 55.9607 9.45206 56.3722 9.21002C56.7837 8.96798 57.1709 8.75015 57.534 8.55651C57.9212 8.33868 58.2964 8.13294 58.6595 7.93931C58.7563 7.8667 58.8531 7.81829 58.9499 7.79408C58.9983 7.76988 59.0346 7.74568 59.0588 7.72147C59.1072 7.69727 59.1556 7.67306 59.2041 7.64886ZM64.541 8.33868C63.4519 10.0814 62.4353 11.7878 61.4913 13.4578C61.0073 14.2808 60.5595 15.0916 60.148 15.8903C59.7365 16.6891 59.3372 17.4757 58.9499 18.2502C57.4251 21.3241 56.2512 24.0592 55.4282 26.4554C55.2346 27.0605 55.0531 27.6293 54.8836 28.1618C54.7142 28.6943 54.569 29.2026 54.448 29.6866C54.3996 29.9287 54.3511 30.1586 54.3027 30.3765C54.2543 30.5943 54.2059 30.8121 54.1575 31.03C54.1333 31.1268 54.1091 31.2236 54.0849 31.3204C54.0849 31.4172 54.0728 31.5141 54.0486 31.6109C54.0486 31.6593 54.0365 31.6956 54.0123 31.7198C54.0123 31.7682 54.0123 31.8166 54.0123 31.865C54.0123 31.9134 54.0002 31.9618 53.976 32.0102C53.976 32.0586 53.976 32.1071 53.976 32.1555C53.9276 32.4943 53.8913 32.7848 53.8671 33.0268C53.8671 33.2931 53.8671 33.5109 53.8671 33.6803V34.0797V34.2249C53.8913 34.0313 53.9034 33.8497 53.9034 33.6803C53.9276 33.5351 53.9518 33.3657 53.976 33.172L54.1938 32.0829C54.2422 31.8892 54.2785 31.7077 54.3027 31.5383C54.3511 31.3688 54.3996 31.1873 54.448 30.9937L54.7747 29.9045C55.2346 28.4764 55.7671 27.0121 56.3722 25.5115C56.6868 24.7853 56.9894 24.0592 57.2798 23.3331C57.5945 22.607 57.9091 21.8929 58.2238 21.191C58.5626 20.4891 58.8773 19.7993 59.1677 19.1216C59.4824 18.4439 59.7971 17.7904 60.1117 17.1611C60.7168 15.8782 61.2856 14.7043 61.8181 13.6394C62.3506 12.5502 62.8226 11.6183 63.234 10.8438C63.6213 10.0451 63.9481 9.42786 64.2143 8.99219L64.541 8.33868ZM87.2687 4.23609C87.3171 3.94564 87.2808 3.65519 87.1597 3.36474C87.0387 3.05009 86.8693 2.78385 86.6515 2.56601C86.5304 2.44499 86.3973 2.34817 86.2521 2.27556C86.1311 2.17874 86.01 2.09403 85.889 2.02142C85.5744 1.85199 85.296 1.75517 85.054 1.73097C84.7877 1.65836 84.5336 1.60995 84.2916 1.58575C84.0495 1.56154 83.8438 1.54944 83.6744 1.54944H83.275H83.1661H83.1298C83.2266 1.57364 83.3234 1.59785 83.4202 1.62205C83.517 1.62205 83.6138 1.63415 83.7107 1.65836L84.2552 1.76728C84.4489 1.81568 84.6183 1.86409 84.7635 1.9125C84.933 1.96091 85.0903 2.00932 85.2355 2.05772C85.3807 2.13034 85.5139 2.20295 85.6349 2.27556C85.7801 2.32397 85.9132 2.38448 86.0342 2.45709C86.1553 2.5297 86.2642 2.60232 86.361 2.67493C86.4578 2.74754 86.5425 2.83225 86.6151 2.92907C86.7846 3.0985 86.9056 3.26793 86.9782 3.43735C87.0508 3.58258 87.1113 3.7157 87.1597 3.83672C87.1839 3.90933 87.196 3.96984 87.196 4.01825C87.2202 4.04246 87.2323 4.07876 87.2323 4.12717C87.2323 4.15138 87.2444 4.17558 87.2687 4.19978V4.23609ZM65.2138 17.4878C65.2865 17.2942 65.3591 17.1005 65.4317 16.9069C65.5043 16.6891 65.5648 16.5075 65.6132 16.3623C65.6858 16.1929 65.7584 16.0235 65.831 15.854C65.8795 15.7088 65.9763 15.5394 66.1215 15.3457C66.2667 15.1521 66.4725 15.0916 66.7387 15.1642C66.8839 15.1884 67.0776 15.2731 67.3196 15.4184C67.5616 15.5394 67.7795 15.7209 67.9731 15.963C68.1909 16.205 68.3362 16.5196 68.4088 16.9069C68.4814 17.2942 68.433 17.7541 68.2636 18.2865C68.0941 18.7464 67.9126 19.2063 67.719 19.6662C67.5495 20.126 67.3801 20.5738 67.2107 21.0095C66.7024 22.4133 66.3877 23.5025 66.2667 24.277C66.1457 25.0516 66.182 25.5115 66.3756 25.6567H66.4119C66.5088 25.7051 66.5814 25.7777 66.6298 25.8745C66.7266 26.0681 66.7266 26.2618 66.6298 26.4554C66.5572 26.5764 66.424 26.6853 66.2304 26.7822C66.061 26.879 65.8674 26.9516 65.6495 27C65.4317 27.0242 65.2017 27.0121 64.9597 26.9637C64.7419 26.9153 64.5361 26.8185 64.3425 26.6732C64.2457 26.6248 64.1489 26.5522 64.0521 26.4554C63.9794 26.3344 63.9189 26.2134 63.8705 26.0923C63.7979 25.9713 63.7374 25.8382 63.689 25.693C63.6164 25.4993 63.5559 25.3057 63.5075 25.1121C63.4833 24.9185 63.4591 24.749 63.4348 24.6038C63.4106 24.4344 63.4106 24.277 63.4348 24.1318C63.4348 23.7204 63.4954 23.2363 63.6164 22.6796C63.7374 22.1229 63.8826 21.5541 64.0521 20.9732C64.2215 20.3681 64.403 19.763 64.5966 19.1579C64.8145 18.5528 65.0202 17.9961 65.2138 17.4878ZM65.468 19.1579C65.6616 18.5528 65.831 18.0324 65.9763 17.5967C66.1457 17.1611 66.2788 16.7375 66.3756 16.326C65.9158 17.3184 65.5285 18.2744 65.2138 19.1942C64.9476 19.9687 64.7056 20.7796 64.4877 21.6267C64.2941 22.4738 64.2457 23.1879 64.3425 23.7688C64.4393 23.3089 64.5361 22.8248 64.6329 22.3165C64.7298 21.8808 64.8387 21.3968 64.9597 20.8643C65.1049 20.3076 65.2744 19.7388 65.468 19.1579ZM70.805 10.1177C71.047 10.2387 71.2043 10.3839 71.277 10.5533C71.3496 10.7228 71.3617 10.8922 71.3133 11.0616C71.2891 11.1827 71.2286 11.3158 71.1317 11.461C71.0833 11.5336 71.0349 11.5941 70.9865 11.6425C70.6477 12.0298 70.3572 12.4413 70.1152 12.8769C69.8731 13.2884 69.6916 13.6031 69.5706 13.8209C69.5222 13.8935 69.4496 14.0024 69.3527 14.1476C69.2801 14.2929 69.1833 14.4381 69.0623 14.5833C68.9413 14.7043 68.8081 14.8133 68.6629 14.9101C68.5177 14.9827 68.3604 14.9948 68.1909 14.9464C67.7311 14.7043 67.4043 14.4381 67.2107 14.1476C67.1381 14.0508 67.1018 13.9056 67.1018 13.712C67.126 13.5183 67.1502 13.3247 67.1744 13.1311C67.2228 12.9374 67.2712 12.768 67.3196 12.6228C67.368 12.4534 67.4043 12.3444 67.4285 12.296C67.4769 12.1024 67.5132 11.9572 67.5374 11.8604C67.5858 11.7635 67.6343 11.6667 67.6827 11.5699C67.8279 11.1584 68.0336 10.8317 68.2999 10.5897C68.5661 10.3476 68.8445 10.1782 69.1349 10.0814C69.4496 9.96035 69.7521 9.91194 70.0426 9.93614C70.333 9.96035 70.5871 10.0209 70.805 10.1177ZM67.61 13.4578C67.7553 13.0222 67.9247 12.6349 68.1183 12.296C68.3362 11.933 68.5419 11.6183 68.7355 11.3521C68.9534 11.0616 69.1712 10.7954 69.389 10.5533C69.0502 10.6018 68.7718 10.7833 68.554 11.0979C68.3362 11.4126 68.1546 11.7393 68.0094 12.0782C67.84 12.5139 67.7069 12.9738 67.61 13.4578ZM71.3723 27.1452C71.3481 27.1936 71.3239 27.2541 71.2997 27.3268C71.2512 27.4478 71.1907 27.5446 71.1181 27.6172C71.0213 27.7382 70.9124 27.8108 70.7914 27.835C70.6946 27.8834 70.5977 27.9198 70.5009 27.944C70.4041 27.9682 70.2952 27.9803 70.1742 27.9803C69.8353 27.9561 69.5691 27.8592 69.3754 27.6898C69.1818 27.5204 69.0245 27.3147 68.9035 27.0726C68.7824 26.8306 68.6977 26.5643 68.6493 26.2739C68.6009 25.9834 68.5767 25.7051 68.5767 25.4388C68.6009 24.5433 68.7824 23.4178 69.1213 22.0624C69.2423 21.5783 69.3996 21.0337 69.5933 20.4286C69.7869 19.7993 70.0047 19.1579 70.2468 18.5044C70.513 17.8267 70.8035 17.149 71.1181 16.4712C71.4328 15.7693 71.7716 15.0916 72.1347 14.4381C72.4251 13.8814 72.7761 13.3247 73.1876 12.768C73.6232 12.2113 74.1678 11.812 74.8213 11.5699C75.2328 11.3763 75.6443 11.34 76.0558 11.461C76.4672 11.582 76.7335 11.7878 76.8545 12.0782C76.9271 12.2718 76.915 12.4292 76.8182 12.5502C76.7698 12.6228 76.7214 12.6712 76.673 12.6954C76.2615 13.1553 75.8379 13.7604 75.4022 14.5107C75.015 15.14 74.5793 15.9509 74.0952 16.9432C73.6111 17.9356 73.115 19.1458 72.6067 20.5738C72.6551 20.4528 72.7035 20.3439 72.7519 20.2471C72.8003 20.1503 72.8487 20.0413 72.8971 19.9203C73.5748 18.5165 74.2041 17.3789 74.785 16.5075C75.3901 15.612 75.9347 14.9101 76.4188 14.4018C76.9029 13.8935 77.3144 13.5425 77.6532 13.3489C78.0163 13.1311 78.3067 12.998 78.5246 12.9495C78.6214 12.9253 78.7303 12.9132 78.8513 12.9132C78.9965 12.889 79.166 12.9011 79.3596 12.9495C79.4806 12.9738 79.6016 13.0222 79.7227 13.0948C79.8195 13.1432 79.9163 13.2279 80.0131 13.3489C80.1341 13.4457 80.2309 13.5789 80.3036 13.7483C80.6182 14.4018 80.6061 15.3094 80.2673 16.4712C80.9692 15.3336 81.6106 14.4865 82.1915 13.9298C82.7724 13.3489 83.2686 12.9374 83.68 12.6954C84.1641 12.4292 84.5998 12.3081 84.987 12.3323C85.4227 12.405 85.7495 12.6107 85.9673 12.9495C86.1609 13.2642 86.2457 13.7362 86.2215 14.3655C86.2215 14.9948 85.9915 15.9145 85.5316 17.1247C85.2896 17.7298 85.0355 18.3713 84.7692 19.049C84.503 19.7025 84.2488 20.3318 84.0068 20.9369C83.5953 22.0987 83.317 23.0547 83.1717 23.8051C83.0265 24.5312 82.9781 25.0395 83.0265 25.3299L83.0991 25.6567C83.1233 25.8019 83.1354 25.9713 83.1354 26.165C83.1354 26.3586 83.0991 26.5401 83.0265 26.7096C82.9781 26.879 82.8813 27.0121 82.7361 27.1089C82.615 27.2057 82.4214 27.2299 82.1552 27.1815C81.9373 27.1089 81.7316 27.0121 81.538 26.8911C81.3443 26.7701 81.187 26.6248 81.066 26.4554C80.8724 26.2134 80.7392 25.9229 80.6666 25.5841C80.6182 25.221 80.594 24.8821 80.594 24.5675C80.594 24.2044 80.6182 23.8293 80.6666 23.442C80.8361 22.0866 81.1144 20.828 81.5017 19.6662C81.8889 18.5044 82.2399 17.5725 82.5545 16.8706C82.8692 16.1687 83.0991 15.6362 83.2444 15.2731C83.4138 14.9101 83.4138 14.6801 83.2444 14.5833C83.1717 14.5591 83.0749 14.5833 82.9539 14.6559C82.8571 14.7043 82.6998 14.8738 82.4819 15.1642C82.2641 15.4547 81.9494 15.9024 81.538 16.5075C81.1507 17.0884 80.6182 17.8872 79.9405 18.9037C79.2628 19.9445 78.7182 20.9127 78.3067 21.8082C77.9195 22.6796 77.6169 23.442 77.3991 24.0955C77.1328 24.87 76.9513 25.572 76.8545 26.2013C76.8303 26.4433 76.7456 26.6127 76.6003 26.7096C76.4793 26.8064 76.3341 26.8669 76.1647 26.8911C75.971 26.9395 75.7532 26.9395 75.5112 26.8911C75.1481 26.8185 74.8698 26.6853 74.6761 26.4917C74.4825 26.2739 74.3373 26.0439 74.2404 25.8019C74.1678 25.5357 74.1315 25.2815 74.1315 25.0395C74.1557 24.7732 74.1799 24.5554 74.2041 24.386C74.3494 23.5872 74.6156 22.6917 75.0029 21.6993C75.3901 20.7069 75.7774 19.7751 76.1647 18.9037C76.5761 18.0324 76.9392 17.2942 77.2539 16.6891C77.5685 16.0598 77.7379 15.6967 77.7621 15.5999C77.8105 15.4789 77.7984 15.4063 77.7258 15.3821C77.6774 15.3579 77.5443 15.4547 77.3265 15.6725C77.1086 15.8903 76.8061 16.2655 76.4188 16.798C76.0315 17.3305 75.5354 18.0808 74.9303 19.049C74.422 19.8477 73.9742 20.6464 73.5869 21.4452C73.1997 22.2439 72.8608 23.0063 72.5704 23.7325C72.2799 24.4344 72.0379 25.0879 71.8442 25.693C71.6506 26.2739 71.4933 26.758 71.3723 27.1452ZM69.6296 23.2968C70.0895 21.8929 70.5735 20.5254 71.0818 19.1942C71.2997 18.6375 71.5296 18.0566 71.7716 17.4515C72.0379 16.8464 72.3041 16.2655 72.5704 15.7088C72.8366 15.1279 73.1029 14.5833 73.3691 14.075C73.6595 13.5668 73.95 13.1069 74.2404 12.6954C73.6353 13.3489 73.0544 14.1719 72.4978 15.1642C72.0137 16.0114 71.5054 17.1126 70.9729 18.4681C70.4646 19.7993 70.0168 21.4089 69.6296 23.2968ZM75.5838 23.1152C75.8742 22.3165 76.1768 21.5178 76.4914 20.719C76.7577 20.0171 77.0481 19.2789 77.3628 18.5044C77.6774 17.7056 77.9921 16.9795 78.3067 16.326C77.8226 17.1005 77.387 17.8872 76.9997 18.6859C76.6609 19.3636 76.3462 20.1018 76.0558 20.9006C75.7895 21.6751 75.6322 22.4133 75.5838 23.1152ZM84.4788 17.1611C84.2851 17.6451 84.1278 18.0808 84.0068 18.4681C83.91 18.8311 83.8374 19.1458 83.7889 19.412C83.7163 19.7267 83.6679 20.005 83.6437 20.2471C83.8374 19.5936 84.0915 18.9158 84.4061 18.2139C84.7208 17.4878 85.0112 16.7012 85.2775 15.854C85.3985 15.4426 85.459 15.1158 85.459 14.8738C85.4832 14.6075 85.4711 14.3897 85.4227 14.2203C85.3743 14.0266 85.3017 13.8814 85.2049 13.7846C85.2775 14.3413 85.2412 14.8617 85.096 15.3457C84.9749 15.8056 84.7692 16.4107 84.4788 17.1611ZM95.3295 20.7917C95.5957 20.8159 95.7409 21.0579 95.7651 21.5178C95.8135 21.9535 95.753 22.4254 95.5836 22.9337C95.39 23.4662 95.1116 23.9987 94.7486 24.5312C94.4097 25.0395 93.974 25.4993 93.4415 25.9108C92.9333 26.2981 92.3281 26.6006 91.6262 26.8185C90.9485 27.0363 90.1861 27.1089 89.3389 27.0363C88.5402 26.9637 87.8383 26.7217 87.2332 26.3102C86.7249 25.9713 86.265 25.463 85.8536 24.7853C85.4663 24.0834 85.3332 23.091 85.4542 21.8082C85.5268 20.9853 85.7204 20.1503 86.0351 19.3031C86.3013 18.577 86.7007 17.8025 87.2332 16.9795C87.7899 16.1324 88.5523 15.3336 89.5205 14.5833C89.9804 14.2445 90.4523 13.954 90.9364 13.712C91.3479 13.5183 91.7957 13.3731 92.2797 13.2763C92.7638 13.1553 93.2116 13.1916 93.6231 13.3852C94.3492 13.6999 94.7849 14.1719 94.9301 14.8012C95.0753 15.4305 95.039 15.9993 94.8212 16.5075C94.7001 16.7738 94.5307 17.1005 94.3129 17.4878C94.1192 17.8509 93.8046 18.2381 93.3689 18.6496C92.9575 19.0611 92.3887 19.4725 91.6625 19.884C90.9364 20.2955 90.0046 20.6585 88.867 20.9732C88.5765 21.7477 88.395 22.4496 88.3224 23.0789C88.274 23.6356 88.3103 24.1681 88.4313 24.6764C88.5765 25.1605 88.9517 25.4993 89.5568 25.693C90.1377 25.8866 90.6823 25.8866 91.1906 25.693C91.723 25.4993 92.195 25.2089 92.6065 24.8216C93.0422 24.4344 93.4052 23.9866 93.6957 23.4783C94.0103 22.97 94.2403 22.498 94.3855 22.0624C94.4339 21.9656 94.4823 21.8445 94.5307 21.6993C94.6033 21.5541 94.6759 21.4089 94.7486 21.2636C94.8454 21.1184 94.9422 21.0095 95.039 20.9369C95.1358 20.8401 95.2326 20.7917 95.3295 20.7917ZM92.8243 17.3063C92.9696 17.1126 93.0543 16.919 93.0785 16.7254C93.1269 16.5317 93.1027 16.3744 93.0059 16.2534C92.9333 16.1324 92.788 16.0719 92.5702 16.0719C92.3524 16.0719 92.0861 16.1687 91.7715 16.3623C91.4568 16.556 91.1422 16.8222 90.8275 17.1611C90.537 17.4757 90.2829 17.7904 90.0651 18.105C89.8472 18.4197 89.6657 18.698 89.5205 18.9401C89.3995 19.1579 89.3632 19.2668 89.4116 19.2668C89.6052 19.2668 89.8593 19.2063 90.174 19.0853C90.5128 18.9643 90.8396 18.8069 91.1543 18.6133C91.4931 18.3955 91.8078 18.1776 92.0982 17.9598C92.4129 17.7177 92.6549 17.4999 92.8243 17.3063ZM86.2529 21.5904C86.4708 20.8885 86.7612 20.1866 87.1243 19.4846C87.4389 18.8795 87.8262 18.2381 88.2861 17.5604C88.7702 16.8827 89.3511 16.2655 90.0288 15.7088C90.9485 14.9585 91.6988 14.4986 92.2797 14.3292C92.8848 14.1598 93.3447 14.1355 93.6594 14.2566C93.5626 14.1598 93.4536 14.0629 93.3326 13.9661C93.0664 13.7967 92.7033 13.7483 92.2434 13.8209C91.953 13.8693 91.5294 14.0629 90.9727 14.4018C90.4402 14.7406 89.8714 15.2247 89.2663 15.854C88.6612 16.4833 88.0803 17.2821 87.5236 18.2502C86.9912 19.1942 86.5676 20.3076 86.2529 21.5904Z" fill="white"/>
</svg>
