<svg width="33" height="28" viewBox="0 0 33 28" fill="none" xmlns="http://www.w3.org/2000/svg">
<g clip-path="url(#clip0_1476_1517)">
<path d="M28.8886 7.44366C28.9079 7.72421 28.9079 8.00475 28.9079 8.28788C28.9079 16.9149 22.3531 26.8645 10.3673 26.8645V26.8593C6.82665 26.8645 3.35955 25.8483 0.378906 23.9324C0.893745 23.9944 1.41116 24.0254 1.92987 24.0267C4.86407 24.0293 7.71439 23.0429 10.0228 21.2265C7.23439 21.1735 4.78923 19.3519 3.93503 16.6925C4.91181 16.8813 5.91826 16.8425 6.87697 16.5801C3.83697 15.9647 1.64987 13.2885 1.64987 10.1806C1.64987 10.1521 1.64987 10.125 1.64987 10.0978C2.55568 10.6033 3.56987 10.8839 4.60729 10.9149C1.74407 8.99764 0.861487 5.18122 2.59052 2.19738C5.89891 6.27624 10.7802 8.75588 16.0202 9.01832C15.495 6.75071 16.2125 4.3745 17.9054 2.78044C20.5299 0.308561 24.6576 0.435258 27.1247 3.06357C28.5841 2.77527 29.9828 2.23875 31.2628 1.47857C30.7763 2.98988 29.7583 4.27366 28.3983 5.08943C29.6899 4.93687 30.9518 4.5904 32.1402 4.06163C31.2654 5.37514 30.1634 6.51929 28.8886 7.44366Z" fill="#2A2A2B"/>
</g>
<defs>
<clipPath id="clip0_1476_1517">
<rect width="32" height="26.3736" fill="white" transform="translate(0.25 0.812988)"/>
</clipPath>
</defs>
</svg>
