<svg width="33" height="24" viewBox="0 0 33 24" fill="none" xmlns="http://www.w3.org/2000/svg">
<g clip-path="url(#clip0_25_847)">
<path d="M31.8313 4.27427C31.4633 2.8932 30.3791 1.80568 29.0022 1.43658C26.5067 0.765803 16.5 0.765803 16.5 0.765803C16.5 0.765803 6.49333 0.765803 3.9978 1.43658C2.62102 1.80568 1.53665 2.8932 1.16868 4.27427C0.5 6.77734 0.5 11.9998 0.5 11.9998C0.5 11.9998 0.5 17.2223 1.16868 19.7256C1.53665 21.1065 2.62102 22.194 3.9978 22.5633C6.49333 23.2339 16.5 23.2339 16.5 23.2339C16.5 23.2339 26.5067 23.2339 29.0022 22.5633C30.3791 22.194 31.4633 21.1065 31.8313 19.7256C32.5 17.2223 32.5 11.9998 32.5 11.9998C32.5 11.9998 32.5 6.77734 31.8313 4.27427Z" fill="#AAC4E6"/>
<path d="M13.2271 16.7415L21.5907 12.0001L13.2271 7.2582V16.7415Z" fill="#000001"/>
</g>
<defs>
<clipPath id="clip0_25_847">
<rect width="32" height="22.4681" fill="white" transform="translate(0.5 0.765869)"/>
</clipPath>
</defs>
</svg>
