<svg width="155" height="189" viewBox="0 0 155 189" fill="none" xmlns="http://www.w3.org/2000/svg">
<path d="M65.1756 91.0493C64.8503 90.135 64.8194 89.4243 64.4657 88.9499C54.8983 68.0867 43.9522 48.3376 29.4558 31.1874C22.8852 23.4258 15.4652 16.9146 7.78178 10.9104C5.80929 9.31624 3.77744 7.45123 1.89274 5.68801C1.24472 5.01 0.537338 4.06115 0.21207 3.14687C0.0933338 2.60521 0.237977 1.55647 0.648528 1.15117C1.05908 0.745877 1.97048 0.916799 2.41197 1.22219C21.6335 15.4373 38.8332 32.3896 51.5478 54.5108C58.0381 65.8931 64.2934 77.3427 69.5804 89.501C70.1122 90.7879 70.9977 92.5493 71.9685 92.991C84.5885 98.7338 94.6316 108.668 103.355 119.987C116.912 137.406 129.735 155.466 142.881 173.291C143.736 174.342 144.65 175.663 146.209 176.512C144.588 161.146 142.733 145.847 141.053 130.21C143.374 129.977 144.376 131.13 145.114 132.789C145.912 134.72 146.857 136.752 147.332 138.918C149.709 150.902 152.086 162.886 154.229 174.937C154.675 177.543 154.652 180.284 154.481 182.923C153.993 188.1 150.706 190.192 146.528 188.221C138.409 184.213 130.524 180.137 122.579 175.79C120.196 174.601 119.399 172.671 120.07 170.608C120.801 168.816 122.621 168.007 125.092 169.027C129.357 170.829 133.447 172.968 138.154 175.075C137.681 174.059 137.562 173.518 137.209 173.043C123.564 155.793 110.008 138.374 96.0406 121.36C91.915 116.209 86.7333 111.935 82.0216 107.527C80.1369 105.764 77.7538 104.575 75.1049 102.743C75.3733 104.537 75.6702 105.891 75.9076 106.974C78.2773 115.506 79.8544 124.409 79.9623 133.444C79.9799 141.498 78.6446 149.076 74.81 156.073C73.4337 158.338 71.9696 160.771 70.1518 162.731C62.2068 171.48 51.0684 171.357 42.7319 162.374C32.2164 151.424 24.7587 127.655 35.1779 107.98C40.9724 96.8239 49.9242 91.528 61.1788 91.0417C62.4129 90.9764 63.7942 91.0128 65.1756 91.0493ZM70.6016 153.392C73.7907 146.867 75.1285 140.44 75.0256 133.706C75.1786 123.013 72.9226 112.721 69.874 102.8C69.2519 100.532 67.9274 99.6159 66.0452 99.0032C56.0766 96.2433 44.6281 102.11 39.7425 112.286C33.1604 126.114 35.9682 146.897 46.1016 157.812C52.8477 165.236 61.1641 165.015 67.6425 157.548C68.8148 156.062 69.9277 154.304 70.6016 153.392Z" fill="white"/>
</svg>
