<svg width="1728" height="1944" viewBox="0 0 1728 1944" fill="none" xmlns="http://www.w3.org/2000/svg">
<path d="M703.493 2806.54C865.318 2642.57 959.368 2735.39 1121.19 2571.43C1283.02 2407.46 1188.97 2314.64 1350.74 2150.72C1512.52 1986.8 1606.62 2079.58 1768.44 1915.61C1930.27 1751.65 1836.22 1658.83 1998.04 1494.86C2159.87 1330.89 2253.92 1423.72 2415.79 1259.7C2577.66 1095.69 2483.56 1002.92 2645.39 838.951" stroke="#A0A3BD" stroke-opacity="0.05" stroke-width="2.9235" stroke-miterlimit="10"/>
<path d="M-1136.14 960.652C-974.315 796.686 -880.264 889.509 -718.44 725.544C-556.615 561.578 -650.666 468.756 -488.888 304.837C-327.11 140.919 -233.013 233.695 -71.1882 69.7292C90.6363 -94.2362 -3.41435 -187.059 158.41 -351.024C320.235 -514.989 414.285 -422.167 576.156 -586.18C738.027 -750.192 643.93 -842.968 805.755 -1006.93" stroke="#A0A3BD" stroke-opacity="0.05" stroke-width="2.9235" stroke-miterlimit="10"/>
<path d="M39.3159 2117.09C201.14 1953.12 295.191 2045.95 457.015 1881.98C618.84 1718.02 524.789 1625.19 686.567 1461.27C848.345 1297.36 942.442 1390.13 1104.27 1226.17C1266.09 1062.2 1172.04 969.379 1333.87 805.413C1495.69 641.448 1589.74 734.27 1751.61 570.258C1913.48 406.245 1819.39 313.47 1981.21 149.504" stroke="#A0A3BD" stroke-opacity="0.05" stroke-width="2.9235" stroke-miterlimit="10"/>
<path d="M-557.258 1529.08C-395.433 1365.12 -301.383 1457.94 -139.558 1293.98C22.2665 1130.01 -71.784 1037.19 89.9939 873.27C251.772 709.352 345.869 802.127 507.693 638.162C669.518 474.197 575.467 381.374 737.292 217.409C899.116 53.4434 993.167 146.266 1155.04 -17.7467C1316.91 -181.759 1222.81 -274.535 1384.64 -438.5" stroke="#A0A3BD" stroke-opacity="0.05" stroke-width="2.9235" stroke-miterlimit="10"/>
<path d="M615.859 2702.87C777.684 2538.9 871.734 2631.73 1033.56 2467.76C1195.38 2303.79 1101.33 2210.97 1263.11 2047.05C1424.89 1883.14 1518.99 1975.91 1680.81 1811.95C1842.63 1647.98 1748.58 1555.16 1910.41 1391.19C2072.23 1227.23 2166.28 1320.05 2328.15 1156.04C2490.03 992.024 2395.93 899.249 2557.75 735.283" stroke="#A0A3BD" stroke-opacity="0.05" stroke-width="2.9235" stroke-miterlimit="10"/>
<path d="M-851.673 1263.36C-689.849 1099.4 -595.798 1192.22 -433.974 1028.25C-272.149 864.288 -366.2 771.466 -204.422 607.547C-42.644 443.629 51.4531 536.405 213.278 372.439C375.102 208.474 281.051 115.651 442.876 -48.3141C604.7 -212.28 698.751 -119.457 860.622 -283.47C1022.49 -447.482 928.396 -540.258 1090.22 -704.223" stroke="#A0A3BD" stroke-opacity="0.05" stroke-width="2.9235" stroke-miterlimit="10"/>
<path d="M321.443 2417.85C483.267 2253.89 577.318 2346.71 739.142 2182.74C900.967 2018.78 806.916 1925.95 968.694 1762.04C1130.47 1598.12 1224.57 1690.89 1386.39 1526.93C1548.22 1362.96 1454.17 1270.14 1615.99 1106.17C1777.82 942.209 1871.87 1035.03 2033.74 871.019C2195.61 707.007 2101.51 614.231 2263.34 450.266" stroke="#A0A3BD" stroke-opacity="0.05" stroke-width="2.9235" stroke-miterlimit="10"/>
<path d="M-272.792 1831.79C-110.968 1667.83 -16.9174 1760.65 144.907 1596.69C306.732 1432.72 212.681 1339.9 374.459 1175.98C536.237 1012.06 630.334 1104.84 792.159 940.871C953.983 776.906 859.932 684.084 1021.76 520.118C1183.58 356.153 1277.63 448.975 1439.5 284.963C1601.37 120.95 1507.28 28.1748 1669.1 -135.791" stroke="#A0A3BD" stroke-opacity="0.05" stroke-width="2.9235" stroke-miterlimit="10"/>
<path d="M900.325 3005.58C1062.15 2841.61 1156.2 2934.44 1318.02 2770.47C1479.85 2606.5 1385.8 2513.68 1547.58 2349.76C1709.35 2185.85 1803.45 2278.62 1965.28 2114.66C2127.1 1950.69 2033.05 1857.87 2194.87 1693.9C2356.7 1529.94 2450.75 1622.76 2612.62 1458.75C2774.49 1294.73 2680.39 1201.96 2842.22 1037.99" stroke="#A0A3BD" stroke-opacity="0.05" stroke-width="2.9235" stroke-miterlimit="10"/>
<path d="M-1175.46 907.049C-1013.64 743.084 -919.586 835.906 -757.761 671.941C-595.937 507.975 -689.987 415.153 -528.209 251.235C-366.431 87.3164 -272.334 180.092 -110.51 16.1264C51.315 -147.839 -42.7356 -240.661 119.089 -404.627C280.913 -568.592 374.964 -475.77 536.835 -639.782C698.706 -803.795 604.609 -896.57 766.434 -1060.54" stroke="#A0A3BD" stroke-opacity="0.05" stroke-width="2.9235" stroke-miterlimit="10"/>
<path d="M-0.00341797 2063.49C161.821 1899.52 255.872 1992.34 417.696 1828.38C579.521 1664.41 485.47 1571.59 647.248 1407.67C809.026 1243.75 903.123 1336.53 1064.95 1172.56C1226.77 1008.6 1132.72 915.776 1294.55 751.81C1456.37 587.845 1550.42 680.667 1712.29 516.655C1874.16 352.642 1780.07 259.867 1941.89 95.9016" stroke="#A0A3BD" stroke-opacity="0.05" stroke-width="2.9235" stroke-miterlimit="10"/>
<path d="M-596.578 1475.48C-434.754 1311.52 -340.703 1404.34 -178.879 1240.37C-17.0544 1076.41 -111.105 983.586 50.673 819.668C212.451 655.749 306.548 748.525 468.373 584.559C630.197 420.594 536.146 327.771 697.971 163.806C859.795 -0.159414 953.846 92.6631 1115.72 -71.3495C1277.59 -235.362 1183.49 -328.137 1345.32 -492.103" stroke="#A0A3BD" stroke-opacity="0.05" stroke-width="2.9235" stroke-miterlimit="10"/>
<path d="M576.54 2649.27C738.364 2485.3 832.415 2578.12 994.239 2414.16C1156.06 2250.19 1062.01 2157.37 1223.79 1993.45C1385.57 1829.53 1479.67 1922.31 1641.49 1758.34C1803.32 1594.38 1709.26 1501.56 1871.09 1337.59C2032.91 1173.62 2126.96 1266.45 2288.84 1102.43C2450.71 938.422 2356.61 845.646 2518.43 681.681" stroke="#A0A3BD" stroke-opacity="0.05" stroke-width="2.9235" stroke-miterlimit="10"/>
<path d="M-890.995 1209.76C-729.17 1045.79 -635.12 1138.62 -473.295 974.651C-311.471 810.686 -405.521 717.863 -243.743 553.945C-81.9653 390.027 12.1318 482.802 173.956 318.837C335.781 154.871 241.73 62.0487 403.555 -101.917C565.379 -265.882 659.43 -173.06 821.301 -337.072C983.172 -501.085 889.075 -593.86 1050.9 -757.825" stroke="#A0A3BD" stroke-opacity="0.05" stroke-width="2.9235" stroke-miterlimit="10"/>
<path d="M282.123 2364.25C443.947 2200.28 537.998 2293.1 699.822 2129.14C861.647 1965.17 767.596 1872.35 929.374 1708.43C1091.15 1544.51 1185.25 1637.29 1347.07 1473.32C1508.9 1309.36 1414.85 1216.54 1576.67 1052.57C1738.5 888.606 1832.55 981.428 1994.42 817.416C2156.29 653.403 2062.19 560.628 2224.02 396.663" stroke="#A0A3BD" stroke-opacity="0.05" stroke-width="2.9235" stroke-miterlimit="10"/>
<path d="M-312.113 1778.19C-150.289 1614.23 -56.2382 1707.05 105.586 1543.08C267.411 1379.12 173.36 1286.3 335.138 1122.38C496.916 958.459 591.013 1051.23 752.838 887.269C914.662 723.304 820.612 630.482 982.436 466.516C1144.26 302.551 1238.31 395.373 1400.18 231.361C1562.05 67.3481 1467.96 -25.4272 1629.78 -189.393" stroke="#A0A3BD" stroke-opacity="0.05" stroke-width="2.9235" stroke-miterlimit="10"/>
<path d="M861.004 2951.98C1022.83 2788.01 1116.88 2880.83 1278.7 2716.87C1440.53 2552.9 1346.48 2460.08 1508.26 2296.16C1670.03 2132.24 1764.13 2225.02 1925.96 2061.05C2087.78 1897.09 1993.73 1804.27 2155.55 1640.3C2317.38 1476.33 2411.43 1569.16 2573.3 1405.14C2735.17 1241.13 2641.07 1148.36 2802.9 984.391" stroke="#A0A3BD" stroke-opacity="0.05" stroke-width="2.9235" stroke-miterlimit="10"/>
<path d="M-1285.94 808.021C-1124.12 644.055 -1030.07 736.878 -868.245 572.912C-706.421 408.947 -800.471 316.125 -638.693 152.206C-476.915 -11.7119 -382.818 81.0634 -220.994 -82.902C-59.1693 -246.867 -153.22 -339.69 8.60462 -503.655C170.429 -667.621 264.48 -574.798 426.351 -738.811C588.222 -902.823 494.125 -995.599 655.949 -1159.56" stroke="#A0A3BD" stroke-opacity="0.05" stroke-width="2.9235" stroke-miterlimit="10"/>
<path d="M-110.489 1964.46C51.3357 1800.49 145.386 1893.31 307.211 1729.35C469.035 1565.38 374.985 1472.56 536.763 1308.64C698.541 1144.73 792.638 1237.5 954.462 1073.54C1116.29 909.57 1022.24 816.747 1184.06 652.782C1345.89 488.816 1439.94 581.639 1601.81 417.626C1763.68 253.614 1669.58 160.838 1831.41 -3.12701" stroke="#A0A3BD" stroke-opacity="0.05" stroke-width="2.9235" stroke-miterlimit="10"/>
<path d="M-707.063 1395.75C-545.239 1231.78 -451.188 1324.61 -289.364 1160.64C-127.539 996.676 -221.59 903.853 -59.812 739.935C101.966 576.017 196.063 668.792 357.888 504.827C519.712 340.861 425.661 248.039 587.486 84.0733C749.31 -79.8921 843.361 12.9304 1005.23 -151.082C1167.1 -315.095 1073.01 -407.87 1234.83 -571.836" stroke="#A0A3BD" stroke-opacity="0.05" stroke-width="2.9235" stroke-miterlimit="10"/>
<path d="M466.054 2550.24C627.879 2386.27 721.929 2479.09 883.754 2315.13C1045.58 2151.16 951.528 2058.34 1113.31 1894.42C1275.08 1730.5 1369.18 1823.28 1531.01 1659.31C1692.83 1495.35 1598.78 1402.53 1760.6 1238.56C1922.43 1074.6 2016.48 1167.42 2178.35 1003.41C2340.22 839.393 2246.12 746.618 2407.95 582.652" stroke="#A0A3BD" stroke-opacity="0.05" stroke-width="2.9235" stroke-miterlimit="10"/>
<path d="M-1001.48 1110.73C-839.656 946.766 -745.605 1039.59 -583.781 875.623C-421.956 711.658 -516.007 618.835 -354.229 454.917C-192.451 290.999 -98.3537 383.774 63.4708 219.808C225.295 55.8431 131.245 -36.9794 293.069 -200.945C454.894 -364.91 548.944 -272.088 710.815 -436.1C872.686 -600.113 778.589 -692.888 940.414 -856.854" stroke="#A0A3BD" stroke-opacity="0.05" stroke-width="2.9235" stroke-miterlimit="10"/>
<path d="M173.977 2267.17C335.801 2103.2 429.852 2196.03 591.676 2032.06C753.501 1868.1 659.45 1775.27 821.228 1611.35C983.006 1447.44 1077.1 1540.21 1238.93 1376.25C1400.75 1212.28 1306.7 1119.46 1468.53 955.493C1630.35 791.527 1724.4 884.35 1886.27 720.337C2048.14 556.325 1954.05 463.549 2115.87 299.584" stroke="#A0A3BD" stroke-opacity="0.05" stroke-width="2.9235" stroke-miterlimit="10"/>
<path d="M-422.599 1679.16C-260.774 1515.2 -166.724 1608.02 -4.89908 1444.06C156.925 1280.09 62.8749 1187.27 224.653 1023.35C386.431 859.431 480.528 952.207 642.352 788.241C804.177 624.276 710.126 531.454 871.951 367.488C1033.78 203.523 1127.83 296.345 1289.7 132.333C1451.57 -31.68 1357.47 -124.455 1519.3 -288.421" stroke="#A0A3BD" stroke-opacity="0.05" stroke-width="2.9235" stroke-miterlimit="10"/>
<path d="M750.518 2852.95C912.343 2688.98 1006.39 2781.8 1168.22 2617.84C1330.04 2453.87 1235.99 2361.05 1397.77 2197.13C1559.55 2033.22 1653.64 2125.99 1815.47 1962.03C1977.29 1798.06 1883.24 1705.24 2045.07 1541.27C2206.89 1377.31 2300.94 1470.13 2462.81 1306.12C2624.68 1142.1 2530.59 1049.33 2692.41 885.363" stroke="#A0A3BD" stroke-opacity="0.05" stroke-width="2.9235" stroke-miterlimit="10"/>
<path d="M-1089.11 1007.06C-927.29 843.098 -833.239 935.921 -671.414 771.955C-509.59 607.99 -603.64 515.167 -441.863 351.249C-280.085 187.331 -185.987 280.106 -24.163 116.141C137.662 -47.8246 43.6109 -140.647 205.435 -304.612C367.26 -468.578 461.311 -375.755 623.182 -539.768C785.053 -703.781 690.956 -796.556 852.78 -960.521" stroke="#A0A3BD" stroke-opacity="0.05" stroke-width="2.9235" stroke-miterlimit="10"/>
<path d="M86.3428 2163.5C248.167 1999.54 342.218 2092.36 504.042 1928.39C665.867 1764.43 571.816 1671.6 733.594 1507.69C895.372 1343.77 989.469 1436.54 1151.29 1272.58C1313.12 1108.61 1219.07 1015.79 1380.89 851.825C1542.72 687.859 1636.77 780.682 1798.64 616.669C1960.51 452.657 1866.41 359.881 2028.24 195.916" stroke="#A0A3BD" stroke-opacity="0.05" stroke-width="2.9235" stroke-miterlimit="10"/>
<path d="M-510.233 1575.5C-348.408 1411.53 -254.358 1504.35 -92.5331 1340.39C69.2914 1176.42 -24.7591 1083.6 137.019 919.682C298.797 755.764 392.894 848.539 554.718 684.574C716.543 520.608 622.492 427.786 784.317 263.821C946.141 99.8552 1040.19 192.678 1202.06 28.6651C1363.93 -135.347 1269.84 -228.123 1431.66 -392.088" stroke="#A0A3BD" stroke-opacity="0.05" stroke-width="2.9235" stroke-miterlimit="10"/>
<path d="M662.886 2749.28C824.71 2585.31 918.761 2678.14 1080.59 2514.17C1242.41 2350.21 1148.36 2257.38 1310.14 2093.47C1471.92 1929.55 1566.01 2022.32 1727.84 1858.36C1889.66 1694.39 1795.61 1601.57 1957.44 1437.6C2119.26 1273.64 2213.31 1366.46 2375.18 1202.45C2537.05 1038.44 2442.96 945.661 2604.78 781.695" stroke="#A0A3BD" stroke-opacity="0.05" stroke-width="2.9235" stroke-miterlimit="10"/>
<path d="M-804.649 1309.77C-642.824 1145.81 -548.774 1238.63 -386.949 1074.67C-225.124 910.7 -319.175 817.877 -157.397 653.959C4.38087 490.041 98.478 582.816 260.302 418.851C422.127 254.886 328.076 162.063 489.901 -1.90227C651.725 -165.868 745.776 -73.0452 907.647 -237.058C1069.52 -401.07 975.421 -493.846 1137.25 -657.811" stroke="#A0A3BD" stroke-opacity="0.05" stroke-width="2.9235" stroke-miterlimit="10"/>
<path d="M368.468 2464.26C530.292 2300.3 624.343 2393.12 786.167 2229.15C947.992 2065.19 853.941 1972.37 1015.72 1808.45C1177.5 1644.53 1271.59 1737.31 1433.42 1573.34C1595.24 1409.37 1501.19 1316.55 1663.02 1152.59C1824.84 988.621 1918.89 1081.44 2080.76 917.431C2242.63 753.418 2148.54 660.643 2310.36 496.678" stroke="#A0A3BD" stroke-opacity="0.05" stroke-width="2.9235" stroke-miterlimit="10"/>
<path d="M-225.767 1878.21C-63.9421 1714.24 30.1084 1807.06 191.933 1643.1C353.757 1479.13 259.707 1386.31 421.485 1222.39C583.263 1058.47 677.36 1151.25 839.184 987.283C1001.01 823.318 906.958 730.495 1068.78 566.53C1230.61 402.564 1324.66 495.387 1486.53 331.374C1648.4 167.362 1554.3 74.5864 1716.13 -89.379" stroke="#A0A3BD" stroke-opacity="0.05" stroke-width="2.9235" stroke-miterlimit="10"/>
<path d="M947.35 3051.99C1109.17 2888.02 1203.23 2980.85 1365.05 2816.88C1526.87 2652.92 1432.82 2560.09 1594.6 2396.18C1756.38 2232.26 1850.48 2325.03 2012.3 2161.07C2174.13 1997.1 2080.08 1904.28 2241.9 1740.31C2403.72 1576.35 2497.77 1669.17 2659.65 1505.16C2821.52 1341.15 2727.42 1248.37 2889.24 1084.41" stroke="#A0A3BD" stroke-opacity="0.05" stroke-width="2.9235" stroke-miterlimit="10"/>
<path d="M-469.623 1632.75C-307.799 1468.79 -213.748 1561.61 -51.9235 1397.64C109.901 1233.68 15.8505 1140.86 177.628 976.938C339.406 813.02 433.503 905.795 595.328 741.83C757.152 577.864 663.102 485.042 824.926 321.076C986.751 157.111 1080.8 249.934 1242.67 85.921C1404.54 -78.0916 1310.45 -170.867 1472.27 -334.832" stroke="#A0A3BD" stroke-opacity="0.05" stroke-width="2.9235" stroke-miterlimit="10"/>
<path d="M-1332.97 761.609C-1171.15 597.644 -1077.1 690.466 -915.271 526.501C-753.446 362.535 -847.497 269.713 -685.719 105.795C-523.941 -58.1235 -429.844 34.6518 -268.019 -129.314C-106.195 -293.279 -200.245 -386.101 -38.4206 -550.067C123.404 -714.032 217.454 -621.21 379.326 -785.222C541.197 -949.235 447.099 -1042.01 608.924 -1205.98" stroke="#A0A3BD" stroke-opacity="0.05" stroke-width="2.9235" stroke-miterlimit="10"/>
<path d="M-157.514 1918.05C4.31084 1754.08 98.3614 1846.9 260.186 1682.94C422.01 1518.97 327.96 1426.15 489.738 1262.23C651.516 1098.31 745.613 1191.09 907.437 1027.12C1069.26 863.158 975.211 770.335 1137.04 606.37C1298.86 442.405 1392.91 535.227 1554.78 371.214C1716.65 207.202 1622.56 114.427 1784.38 -49.5389" stroke="#A0A3BD" stroke-opacity="0.05" stroke-width="2.9235" stroke-miterlimit="10"/>
<path d="M-754.088 1349.34C-592.264 1185.37 -498.213 1278.19 -336.388 1114.23C-174.564 950.263 -268.614 857.441 -106.837 693.523C54.9414 529.605 149.039 622.38 310.863 458.414C472.688 294.449 378.637 201.627 540.461 37.6612C702.286 -126.304 796.337 -33.4817 958.208 -197.494C1120.08 -361.507 1025.98 -454.282 1187.81 -618.248" stroke="#A0A3BD" stroke-opacity="0.05" stroke-width="2.9235" stroke-miterlimit="10"/>
<path d="M419.029 2503.83C580.854 2339.86 674.904 2432.68 836.729 2268.72C998.553 2104.75 904.503 2011.93 1066.28 1848.01C1228.06 1684.09 1322.16 1776.87 1483.98 1612.9C1645.8 1448.94 1551.75 1356.12 1713.58 1192.15C1875.4 1028.18 1969.45 1121.01 2131.32 956.994C2293.2 792.982 2199.1 700.207 2360.92 536.241" stroke="#A0A3BD" stroke-opacity="0.05" stroke-width="2.9235" stroke-miterlimit="10"/>
<path d="M-1048.51 1064.32C-886.681 900.354 -792.63 993.177 -630.806 829.211C-468.981 665.246 -563.032 572.423 -401.254 408.505C-239.476 244.587 -145.379 337.362 16.4459 173.397C178.27 9.43148 84.2198 -83.391 246.044 -247.356C407.869 -411.322 501.919 -318.499 663.79 -482.512C825.662 -646.524 731.564 -739.3 893.389 -903.265" stroke="#A0A3BD" stroke-opacity="0.05" stroke-width="2.9235" stroke-miterlimit="10"/>
<path d="M126.95 2220.76C288.774 2056.79 382.825 2149.61 544.65 1985.65C706.474 1821.68 612.423 1728.86 774.201 1564.94C935.979 1401.02 1030.08 1493.8 1191.9 1329.83C1353.73 1165.87 1259.67 1073.05 1421.5 909.081C1583.32 745.116 1677.37 837.938 1839.25 673.926C2001.12 509.913 1907.02 417.138 2068.84 253.172" stroke="#A0A3BD" stroke-opacity="0.05" stroke-width="2.9235" stroke-miterlimit="10"/>
<path d="M-1222.49 860.637C-1060.66 696.672 -966.61 789.494 -804.786 625.529C-642.961 461.563 -737.012 368.741 -575.234 204.823C-413.456 40.9043 -319.359 133.68 -157.534 -30.2857C4.29007 -194.251 -89.7605 -287.074 72.064 -451.039C233.888 -615.004 327.939 -522.182 489.81 -686.194C651.681 -850.207 557.584 -942.982 719.409 -1106.95" stroke="#A0A3BD" stroke-opacity="0.05" stroke-width="2.9235" stroke-miterlimit="10"/>
<path d="M-47.0283 2017.07C114.796 1853.11 208.847 1945.93 370.671 1781.97C532.496 1618 438.445 1525.18 600.223 1361.26C762.001 1197.34 856.098 1290.12 1017.92 1126.15C1179.75 962.186 1085.7 869.364 1247.52 705.399C1409.35 541.433 1503.4 634.256 1665.27 470.243C1827.14 306.23 1733.04 213.455 1894.87 49.4897" stroke="#A0A3BD" stroke-opacity="0.05" stroke-width="2.9235" stroke-miterlimit="10"/>
<path d="M-643.603 1429.07C-481.779 1265.1 -387.728 1357.93 -225.904 1193.96C-64.0793 1030 -158.13 937.174 3.64809 773.256C165.426 609.337 259.523 702.113 421.348 538.147C583.172 374.182 489.122 281.36 650.946 117.394C812.771 -46.5713 906.821 46.2512 1068.69 -117.761C1230.56 -281.774 1136.47 -374.549 1298.29 -538.515" stroke="#A0A3BD" stroke-opacity="0.05" stroke-width="2.9235" stroke-miterlimit="10"/>
<path d="M529.514 2602.85C691.338 2438.89 785.389 2531.71 947.213 2367.75C1109.04 2203.78 1014.99 2110.96 1176.77 1947.04C1338.54 1783.12 1432.64 1875.9 1594.46 1711.93C1756.29 1547.97 1662.24 1455.14 1824.06 1291.18C1985.89 1127.21 2079.94 1220.03 2241.81 1056.02C2403.68 892.009 2309.58 799.234 2471.41 635.269" stroke="#A0A3BD" stroke-opacity="0.05" stroke-width="2.9235" stroke-miterlimit="10"/>
<path d="M-938.021 1163.35C-776.196 999.382 -682.146 1092.2 -520.321 928.239C-358.497 764.274 -452.547 671.451 -290.77 507.533C-128.992 343.615 -34.8945 436.39 126.93 272.425C288.755 108.459 194.704 15.6369 356.528 -148.329C518.353 -312.294 612.404 -219.471 774.275 -383.484C936.146 -547.497 842.049 -640.272 1003.87 -804.237" stroke="#A0A3BD" stroke-opacity="0.05" stroke-width="2.9235" stroke-miterlimit="10"/>
<path d="M235.098 2317.84C396.922 2153.87 490.973 2246.69 652.797 2082.73C814.622 1918.76 720.571 1825.94 882.349 1662.02C1044.13 1498.1 1138.22 1590.88 1300.05 1426.91C1461.87 1262.95 1367.82 1170.12 1529.65 1006.16C1691.47 842.194 1785.52 935.017 1947.39 771.004C2109.26 606.991 2015.17 514.216 2176.99 350.251" stroke="#A0A3BD" stroke-opacity="0.05" stroke-width="2.9235" stroke-miterlimit="10"/>
<path d="M-359.138 1731.78C-197.314 1567.82 -103.263 1660.64 58.5611 1496.67C220.386 1332.71 126.335 1239.88 288.113 1075.97C449.891 912.048 543.988 1004.82 705.813 840.858C867.637 676.892 773.587 584.07 935.411 420.105C1097.24 256.139 1191.29 348.962 1353.16 184.949C1515.03 20.9365 1420.93 -71.8389 1582.76 -235.804" stroke="#A0A3BD" stroke-opacity="0.05" stroke-width="2.9235" stroke-miterlimit="10"/>
<path d="M813.979 2905.56C975.804 2741.6 1069.85 2834.42 1231.68 2670.46C1393.5 2506.49 1299.45 2413.67 1461.23 2249.75C1623.01 2085.83 1717.11 2178.61 1878.93 2014.64C2040.76 1850.68 1946.7 1757.85 2108.53 1593.89C2270.35 1429.92 2364.4 1522.75 2526.28 1358.73C2688.15 1194.72 2594.05 1101.94 2755.87 937.979" stroke="#A0A3BD" stroke-opacity="0.05" stroke-width="2.9235" stroke-miterlimit="10"/>
</svg>
