<svg width="130" height="55" viewBox="0 0 130 55" fill="none" xmlns="http://www.w3.org/2000/svg">
<path fill-rule="evenodd" clip-rule="evenodd" d="M129.662 27.9191C129.662 18.6848 125.201 11.3984 116.674 11.3984C108.111 11.3984 102.931 18.6848 102.931 27.8469C102.931 38.7044 109.047 44.1872 117.825 44.1872C122.107 44.1872 125.345 43.2133 127.791 41.8426V34.6283C125.345 35.8547 122.538 36.6122 118.977 36.6122C115.487 36.6122 112.393 35.3858 111.997 31.1294H129.59C129.59 30.6605 129.662 28.7848 129.662 27.9191ZM111.889 24.4923C111.889 20.4162 114.371 18.7209 116.638 18.7209C118.833 18.7209 121.171 20.4162 121.171 24.4923H111.889Z" fill="white"/>
<path fill-rule="evenodd" clip-rule="evenodd" d="M89.0432 11.3984C85.5174 11.3984 83.2508 13.0577 81.9916 14.212L81.5239 11.9756H73.6089V54.0346L82.6033 52.1229L82.6392 41.9147C83.9344 42.8526 85.8412 44.1872 89.0072 44.1872C95.4472 44.1872 101.312 38.9929 101.312 27.5584C101.276 17.0977 95.3393 11.3984 89.0432 11.3984ZM86.8846 36.2515C84.7619 36.2515 83.5027 35.494 82.6392 34.5562L82.6033 21.1737C83.5387 20.1277 84.8339 19.4063 86.8846 19.4063C90.1585 19.4063 92.4251 23.0855 92.4251 27.8109C92.4251 32.6444 90.1945 36.2515 86.8846 36.2515Z" fill="white"/>
<path fill-rule="evenodd" clip-rule="evenodd" d="M61.2329 9.27031L70.2632 7.32246V0L61.2329 1.91178V9.27031Z" fill="white"/>
<path d="M70.2632 12.0117H61.2329V43.5741H70.2632V12.0117Z" fill="white"/>
<path fill-rule="evenodd" clip-rule="evenodd" d="M51.5548 14.681L50.9791 12.0118H43.208V43.5741H52.2024V22.1839C54.325 19.4064 57.9228 19.9114 59.0381 20.3082V12.0118C57.8868 11.5789 53.6774 10.7853 51.5548 14.681Z" fill="white"/>
<path fill-rule="evenodd" clip-rule="evenodd" d="M33.5659 4.18433L24.7874 6.06003L24.7515 34.9531C24.7515 40.2916 28.745 44.2234 34.0696 44.2234C37.0198 44.2234 39.1784 43.6823 40.3657 43.0331V35.7106C39.2144 36.1795 33.53 37.8388 33.53 32.5003V19.695H40.3657V12.0118H33.53L33.5659 4.18433Z" fill="white"/>
<path fill-rule="evenodd" clip-rule="evenodd" d="M9.24537 21.1737C9.24537 19.767 10.3966 19.2259 12.3034 19.2259C15.0377 19.2259 18.4916 20.0555 21.2259 21.5345V13.0577C18.2397 11.8674 15.2896 11.3984 12.3034 11.3984C5.00003 11.3984 0.143066 15.222 0.143066 21.6066C0.143066 31.5623 13.8145 29.9751 13.8145 34.2676C13.8145 35.9269 12.3754 36.468 10.3607 36.468C7.37454 36.468 3.56092 35.2415 0.538818 33.5823V42.1672C3.88472 43.6101 7.2666 44.2233 10.3607 44.2233C17.844 44.2233 22.9888 40.5079 22.9888 34.0512C22.9528 23.3019 9.24537 25.2137 9.24537 21.1737Z" fill="white"/>
</svg>
