<svg width="130" height="30" viewBox="0 0 130 30" fill="none" xmlns="http://www.w3.org/2000/svg">
<g clip-path="url(#clip0_1476_202)">
<path d="M27.1599 29.2446H4.13057C2.60283 29.2446 1.18825 28.4542 0.452665 27.0992C-0.339499 25.5184 -0.0565832 23.6553 1.18825 22.4697L17.2013 6.49243H5.7149C2.54624 6.49243 0 3.89541 0 0.790279H21.2187C22.7464 0.790279 24.161 1.58068 24.8966 2.93564C25.6888 4.51644 25.4058 6.37952 24.161 7.56511L8.14797 23.5424H21.445C24.6137 23.5424 27.1599 26.1394 27.1599 29.2446ZM118.372 0.338623C115.09 0.338623 112.091 1.75005 110.054 4.06478C108.017 1.8065 105.018 0.338623 101.737 0.338623C95.6255 0.338623 90.5896 5.53266 90.5896 11.63V29.2446C93.7583 29.2446 96.3045 26.704 96.3045 23.5424V11.5736C96.3045 8.63779 98.5679 6.15369 101.51 6.04077C104.622 5.92786 107.169 8.41197 107.169 11.4606V23.5424C107.169 26.704 109.715 29.2446 112.883 29.2446V11.5736C112.883 8.63779 115.147 6.15369 118.089 6.04077C121.201 5.92786 123.747 8.41197 123.747 11.4606V23.5424C123.747 26.704 126.294 29.2446 129.462 29.2446V11.63C129.519 5.53266 124.483 0.338623 118.372 0.338623ZM56.0173 15.0174C56.0173 23.0908 49.3971 29.6962 41.3057 29.6962C33.1577 29.6962 26.5941 23.0908 26.5941 15.0174C26.5941 6.94408 33.2143 0.338623 41.3057 0.338623C49.3971 0.338623 56.0173 6.94408 56.0173 15.0174ZM50.3024 15.0174C50.3024 10.0492 46.285 6.04077 41.3057 6.04077C36.3264 6.04077 32.309 10.0492 32.309 15.0174C32.309 19.9856 36.3264 23.9941 41.3057 23.9941C46.285 23.9941 50.3024 19.9856 50.3024 15.0174ZM87.7605 15.0174C87.7605 23.0908 81.1403 29.6962 73.0489 29.6962C64.9009 29.6962 58.3372 23.0908 58.3372 15.0174C58.3372 6.94408 64.9575 0.338623 73.0489 0.338623C81.1403 0.338623 87.7605 6.94408 87.7605 15.0174ZM82.0456 15.0174C82.0456 10.0492 78.0282 6.04077 73.0489 6.04077C68.0695 6.04077 64.0521 10.0492 64.0521 15.0174C64.0521 19.9856 68.0695 23.9941 73.0489 23.9941C78.0282 23.9941 82.0456 19.9856 82.0456 15.0174Z" fill="white"/>
</g>
<defs>
<clipPath id="clip0_1476_202">
<rect width="129.519" height="29.3576" fill="white" transform="translate(0 0.338623)"/>
</clipPath>
</defs>
</svg>
