<svg width="200" height="38" viewBox="0 0 200 38" fill="none" xmlns="http://www.w3.org/2000/svg">
<g clip-path="url(#clip0_1476_213)">
<path d="M4.41631 29.5498C3.68218 29.5514 2.96078 29.3581 2.32582 28.9896C1.69085 28.6212 1.16507 28.0907 0.802199 27.4526C0.444878 26.8189 0.266673 26.0999 0.286672 25.3727C0.306672 24.6455 0.524122 23.9374 0.915732 23.3243L8.35839 11.6366C8.73932 11.0085 9.28015 10.4927 9.92564 10.142C10.5711 9.79124 11.2981 9.61813 12.0324 9.64032C12.7661 9.65791 13.482 9.87012 14.1068 10.2552C14.7316 10.6404 15.2428 11.1846 15.5882 11.8322C16.282 13.1441 16.1953 14.7225 15.3643 15.9541L7.92634 27.6418C7.54915 28.2296 7.0297 28.7126 6.41611 29.0461C5.80253 29.3797 5.11467 29.5529 4.41631 29.5498Z" fill="white"/>
<path d="M17.1822 29.5495C15.6811 29.5495 14.2998 28.7469 13.5744 27.457C13.2179 26.8251 13.0401 26.108 13.0601 25.3827C13.0801 24.6574 13.2972 23.9512 13.688 23.3398L21.1164 11.6789C21.4918 11.042 22.0306 10.517 22.6772 10.1585C23.3238 9.79997 24.0545 9.62097 24.7936 9.64005C26.3074 9.67317 27.6792 10.5199 28.373 11.8445C29.0621 13.1691 28.9612 14.757 28.105 15.9853L20.6781 27.6462C20.302 28.2315 19.7847 28.7127 19.1737 29.0453C18.5628 29.3779 17.8779 29.5513 17.1822 29.5495Z" fill="white"/>
<path d="M29.6633 29.6472C31.7794 29.6472 33.495 27.9677 33.495 25.8959C33.495 23.8241 31.7794 22.1445 29.6633 22.1445C27.5471 22.1445 25.8315 23.8241 25.8315 25.8959C25.8315 27.9677 27.5471 29.6472 29.6633 29.6472Z" fill="white"/>
<path d="M196.124 22.362C197.281 22.362 197.973 23.1851 197.973 24.5334V29.1536H199.545V24.4277C199.545 22.1349 198.465 20.8056 196.434 20.8056C195.64 20.8056 194.378 21.0233 193.626 22.485C193.451 22.0539 193.163 21.6781 192.792 21.3977C192.42 21.1172 191.98 20.9426 191.518 20.8924C191.227 20.8391 190.93 20.8216 190.635 20.8403C189.988 20.8924 188.837 21.2945 188.407 22.2059V20.9807H186.833V29.1536H188.407V24.7431C188.407 23.0274 189.529 22.362 190.654 22.362C191.707 22.362 192.399 23.1678 192.399 24.516V29.1536H193.963V24.7431C193.963 23.3775 194.783 22.3462 196.124 22.362ZM181.057 27.788C181.776 27.8038 182.47 27.5168 182.973 26.9964C183.477 26.476 183.746 25.768 183.719 25.0411C183.719 23.3949 182.508 22.362 181.057 22.362C179.605 22.362 178.395 23.3949 178.395 25.0411C178.367 25.7665 178.635 26.4729 179.136 26.9917C179.638 27.512 180.329 27.8006 181.044 27.788H181.057ZM181.057 29.3207C178.758 29.3207 176.839 27.6224 176.839 25.0316C176.839 22.4409 178.758 20.7962 181.057 20.7962C183.356 20.7962 185.291 22.4409 185.291 25.0316C185.291 27.6224 183.345 29.3286 181.046 29.3286L181.057 29.3207ZM168.742 25.0316L168.726 25.0411C168.726 22.4503 170.696 20.8056 173.01 20.7962C173.592 20.7849 174.169 20.8959 174.705 21.1219C175.241 21.3479 175.724 21.6839 176.122 22.1081L174.929 23.1236C174.676 22.875 174.376 22.679 174.047 22.5469C173.718 22.4148 173.365 22.3493 173.01 22.3541C171.56 22.3541 170.298 23.387 170.298 25.0316C170.298 26.1433 170.959 27.1446 171.973 27.5704C172.987 27.9961 174.154 27.7596 174.929 26.9743L176.139 27.9898C175.74 28.4185 175.255 28.7584 174.716 28.9877C174.177 29.217 173.596 29.3304 173.01 29.3207C170.713 29.3207 168.742 27.6224 168.742 25.0316ZM163.707 27.5846C163.705 27.4417 163.732 27.2999 163.785 27.1672C163.838 27.0346 163.917 26.9137 164.017 26.8115C164.117 26.7093 164.236 26.6278 164.367 26.5716C164.498 26.5154 164.64 26.4856 164.783 26.4839C164.925 26.4856 165.067 26.5154 165.198 26.5716C165.329 26.6278 165.448 26.7093 165.548 26.8115C165.648 26.9137 165.727 27.0346 165.78 27.1672C165.833 27.2999 165.86 27.4417 165.858 27.5846C165.844 27.8613 165.725 28.1222 165.525 28.3142C165.325 28.5061 165.06 28.6146 164.783 28.6174C164.505 28.6146 164.24 28.5061 164.04 28.3142C163.84 28.1222 163.721 27.8613 163.707 27.5846Z" fill="white"/>
<path fill-rule="evenodd" clip-rule="evenodd" d="M168.009 10.5907H162.409L158.484 20.7094L154.58 10.5907H148.981L155.788 26.5801L151.554 37.1514H157.113L168.009 10.5907ZM133.955 19.4842C133.955 22.0387 136.188 23.7197 138.381 23.7197C140.537 23.7197 142.655 22.1554 142.655 19.4826C142.655 16.8099 140.537 15.244 138.381 15.244C136.188 15.244 133.955 16.9281 133.955 19.4842ZM142.655 28.4124V26.3893C141.519 28.1081 138.87 28.7577 137.511 28.7577C133.011 28.7577 128.509 25.2098 128.509 19.4826C128.509 13.757 133.009 10.2091 137.511 10.2091C138.645 10.2091 141.294 10.5876 142.655 12.5744V10.597H147.874V28.4156L142.655 28.4124ZM127.023 28.4124H121.804V26.1985C120.932 27.8384 118.818 28.794 116.623 28.794C112.083 28.794 108.073 25.1688 108.073 19.5552C108.073 13.8359 112.083 10.206 116.623 10.206C118.814 10.206 120.935 11.1205 121.804 12.762V0.883545H127.023V28.4124ZM121.691 19.4432C121.691 16.772 119.762 15.2062 117.607 15.2062C115.374 15.2062 113.519 16.8855 113.519 19.4432C113.519 22.0829 115.374 23.7544 117.605 23.7544C119.802 23.7575 121.691 22.0009 121.691 19.4432ZM95.1682 18.9828C95.1682 16.2737 96.5684 15.3576 98.4212 15.3576C100.198 15.3576 101.485 16.5402 101.485 18.9055V28.4093H106.742V17.7623C106.742 12.6879 104.244 10.206 100.272 10.206C98.1926 10.206 96.1127 11.3886 95.1666 13.1831V10.5907H89.9126V28.4093H95.1682V18.9828ZM79.2374 28.7152C74.2452 28.7152 70.0808 25.0521 70.0808 19.4416C70.0808 13.828 74.2405 10.2012 79.2374 10.2012C84.2344 10.2012 88.4304 13.828 88.4304 19.4416C88.4304 25.0553 84.2297 28.7152 79.2374 28.7152ZM79.2374 23.5273C81.4292 23.5273 83.2473 21.922 83.2473 19.4432C83.2473 17.0385 81.4308 15.397 79.2374 15.397C78.7093 15.3887 78.185 15.4881 77.6965 15.6889C77.208 15.8898 76.7655 16.188 76.396 16.5654C76.0243 16.9449 75.7327 17.3951 75.5384 17.8895C75.3442 18.3839 75.2514 18.9122 75.2654 19.4432C75.267 21.9252 77.0819 23.5273 79.2374 23.5273ZM60.656 15.3591C62.206 15.3591 63.5684 16.5812 63.5684 18.9071V28.4124H68.7878V18.2921C68.7878 12.9119 66.1718 10.2028 61.979 10.2028C60.7333 10.2028 58.387 10.5812 56.684 13.3691C55.7 11.3082 53.8094 10.2391 51.0153 10.2391C50.0451 10.2341 49.0941 10.5087 48.2759 11.0299C47.4577 11.5512 46.807 12.297 46.4014 13.1783V10.5923H41.1411V28.4108H46.3967V18.9828C46.3967 16.2737 47.8726 15.3576 49.4605 15.3576C50.9743 15.3576 52.3335 16.5402 52.3729 18.792V28.4108H57.6301V18.9828C57.6301 16.392 58.9925 15.3591 60.656 15.3591Z" fill="white"/>
</g>
<defs>
<clipPath id="clip0_1476_213">
<rect width="199.26" height="36.2678" fill="white" transform="translate(0.285645 0.883545)"/>
</clipPath>
</defs>
</svg>
