<svg width="160" height="42" viewBox="0 0 160 42" fill="none" xmlns="http://www.w3.org/2000/svg">
<path d="M51.0171 32.6102L53.0023 27.9859C55.1477 29.5916 57.9974 30.4265 60.8152 30.4265C62.8965 30.4265 64.2093 29.6237 64.2093 28.4034C64.1773 24.9994 51.7535 27.6648 51.6575 19.1226C51.6255 14.7873 55.4679 11.4475 60.9112 11.4475C64.1452 11.4475 67.3792 12.2503 69.6847 14.0808L67.8275 18.8015C65.7142 17.4527 63.0886 16.4893 60.591 16.4893C58.894 16.4893 57.7733 17.2922 57.7733 18.3198C57.8053 21.6596 70.3251 19.8291 70.4532 27.9859C70.4532 32.4176 66.7068 35.5326 61.3275 35.5326C57.389 35.5326 53.7708 34.6013 51.0171 32.6102Z" fill="white"/>
<path d="M127.193 26.316C126.2 28.0501 124.343 29.2383 122.197 29.2383C119.027 29.2383 116.466 26.6693 116.466 23.49C116.466 20.3108 119.027 17.7417 122.197 17.7417C124.343 17.7417 126.2 18.9299 127.193 20.6641L132.668 17.6133C130.619 13.9524 126.68 11.4475 122.197 11.4475C115.569 11.4475 110.19 16.8426 110.19 23.49C110.19 30.1375 115.569 35.5326 122.197 35.5326C126.712 35.5326 130.619 33.0598 132.668 29.3668L127.193 26.316Z" fill="white"/>
<path d="M80.0593 1.46021H73.207V35.0829H80.0593V1.46021Z" fill="white"/>
<path d="M135.357 1.46021V35.0829H142.21V24.9993L150.343 35.0829H159.116L148.774 23.1046L158.348 11.9292H149.958L142.21 21.21V1.46021H135.357Z" fill="white"/>
<path d="M100.424 26.3802C99.431 28.018 97.3818 29.2383 95.0763 29.2383C91.9064 29.2383 89.3448 26.6693 89.3448 23.49C89.3448 20.3108 91.9064 17.7417 95.0763 17.7417C97.3818 17.7417 99.431 19.0263 100.424 20.6962V26.3802ZM100.424 11.9292V14.6589C99.3029 12.7642 96.5172 11.4475 93.6034 11.4475C87.5837 11.4475 82.8447 16.7783 82.8447 23.4579C82.8447 30.1375 87.5837 35.5326 93.6034 35.5326C96.5172 35.5326 99.3029 34.2159 100.424 32.3212V35.0509H107.276V11.9292H100.424Z" fill="white"/>
<path d="M8.65491 26.3481C8.65491 28.6924 6.76574 30.5871 4.42829 30.5871C2.09083 30.5871 0.20166 28.6924 0.20166 26.3481C0.20166 24.0038 2.09083 22.1091 4.42829 22.1091H8.65491V26.3481Z" fill="white"/>
<path d="M10.7681 26.3481C10.7681 24.0038 12.6572 22.1091 14.9947 22.1091C17.3321 22.1091 19.2213 24.0038 19.2213 26.3481V36.9455C19.2213 39.2898 17.3321 41.1845 14.9947 41.1845C12.6572 41.1845 10.7681 39.2898 10.7681 36.9455V26.3481Z" fill="white"/>
<path d="M14.9947 9.32804C12.6572 9.32804 10.7681 7.43335 10.7681 5.08907C10.7681 2.74479 12.6572 0.850098 14.9947 0.850098C17.3321 0.850098 19.2213 2.74479 19.2213 5.08907V9.32804H14.9947Z" fill="white"/>
<path d="M14.9946 11.4797C17.3321 11.4797 19.2213 13.3744 19.2213 15.7187C19.2213 18.063 17.3321 19.9577 14.9946 19.9577H4.39606C2.05861 19.9577 0.169434 18.063 0.169434 15.7187C0.169434 13.3744 2.05861 11.4797 4.39606 11.4797H14.9946Z" fill="white"/>
<path d="M31.9331 15.7187C31.9331 13.3744 33.8223 11.4797 36.1597 11.4797C38.4972 11.4797 40.3864 13.3744 40.3864 15.7187C40.3864 18.063 38.4972 19.9577 36.1597 19.9577H31.9331V15.7187Z" fill="white"/>
<path d="M29.82 15.7186C29.82 18.0629 27.9308 19.9576 25.5933 19.9576C23.2559 19.9576 21.3667 18.0629 21.3667 15.7186V5.08907C21.3667 2.74479 23.2559 0.850098 25.5933 0.850098C27.9308 0.850098 29.82 2.74479 29.82 5.08907V15.7186Z" fill="white"/>
<path d="M25.5933 32.7065C27.9308 32.7065 29.82 34.6012 29.82 36.9455C29.82 39.2898 27.9308 41.1845 25.5933 41.1845C23.2559 41.1845 21.3667 39.2898 21.3667 36.9455V32.7065H25.5933Z" fill="white"/>
<path d="M25.5933 30.5871C23.2559 30.5871 21.3667 28.6924 21.3667 26.3481C21.3667 24.0038 23.2559 22.1091 25.5933 22.1091H36.1919C38.5294 22.1091 40.4185 24.0038 40.4185 26.3481C40.4185 28.6924 38.5294 30.5871 36.1919 30.5871H25.5933Z" fill="white"/>
</svg>
