<svg width="200" height="40" viewBox="0 0 200 40" fill="none" xmlns="http://www.w3.org/2000/svg">
<g clip-path="url(#clip0_1476_241)">
<path d="M23.8544 7.78746L12.2973 15.1513L23.8544 22.5152L12.2973 29.8791L0.740234 22.4754L12.2973 15.1115L0.740234 7.78746L12.2973 0.423584L23.8544 7.78746ZM12.2375 32.2475L23.7946 24.8836L35.3517 32.2475L23.7946 39.6113L12.2375 32.2475ZM23.8544 22.4754L35.4114 15.1115L23.8544 7.78746L35.3517 0.423584L46.9087 7.78746L35.3517 15.1513L46.9087 22.5152L35.3517 29.8791L23.8544 22.4754Z" fill="white"/>
<path d="M55.9751 7.78735H65.3204C71.2782 7.78735 76.2 11.2305 76.2 19.0919V20.7438C76.2 28.6649 71.5971 32.2274 65.4997 32.2274H55.9751V7.78735ZM61.1957 12.2256V27.7693H65.2008C68.5882 27.7693 70.8598 25.5602 70.8598 20.6443V19.3506C70.8598 14.4347 68.4687 12.2256 65.0215 12.2256H61.1957ZM78.9697 12.4644H83.1541L83.8316 17.0618C84.6286 13.9372 86.6611 12.2654 90.3474 12.2654H91.6426V17.5395H89.4906C85.2463 17.5395 84.2102 19.0123 84.2102 23.1918V32.2872H79.0494V12.4644H78.9697ZM92.6787 22.7738V22.2166C92.6787 15.5891 96.923 11.9668 102.702 11.9668C108.6 11.9668 112.724 15.5891 112.724 22.2166V22.7738C112.724 29.2819 108.719 32.7847 102.702 32.7847C96.3053 32.725 92.6787 29.3018 92.6787 22.7738ZM107.444 22.7141V22.2166C107.444 18.5346 105.591 16.3255 102.642 16.3255C99.7525 16.3255 97.8396 18.3555 97.8396 22.2166V22.7141C97.8396 26.2766 99.6927 28.3067 102.642 28.3067C105.591 28.247 107.444 26.2766 107.444 22.7141ZM115.434 12.4644H119.738L120.236 16.206C121.273 13.6983 123.484 11.9668 126.752 11.9668C131.793 11.9668 135.121 15.5891 135.121 22.2962V22.8534C135.121 29.3615 131.435 32.8046 126.752 32.8046C123.624 32.8046 121.472 31.3915 120.416 29.1227V39.1336H115.374L115.434 12.4644ZM129.881 22.7141V22.2763C129.881 18.3356 127.848 16.3852 125.138 16.3852C122.249 16.3852 120.336 18.5943 120.336 22.2763V22.6544C120.336 26.1572 122.189 28.3664 125.078 28.3664C128.047 28.3067 129.881 26.416 129.881 22.7141ZM142.753 28.6251L142.314 32.2473H137.891V5.83691H142.932V15.9672C144.048 13.3799 146.26 11.9668 149.388 11.9668C154.13 12.0265 157.637 15.2905 157.637 21.8583V22.4753C157.637 29.0431 154.31 32.8046 149.269 32.8046C145.941 32.725 143.789 31.1925 142.753 28.6251ZM152.337 22.4753V21.9777C152.337 18.3555 150.364 16.3255 147.595 16.3255C144.765 16.3255 142.793 18.5943 142.793 22.0374V22.4753C142.793 26.1572 144.705 28.3067 147.535 28.3067C150.564 28.3067 152.337 26.416 152.337 22.4753ZM159.849 22.7738V22.2166C159.849 15.5891 164.093 11.9668 169.872 11.9668C175.77 11.9668 179.895 15.5891 179.895 22.2166V22.7738C179.895 29.2819 175.83 32.7847 169.872 32.7847C163.476 32.725 159.849 29.3018 159.849 22.7738ZM174.654 22.7141V22.2166C174.654 18.5346 172.801 16.3255 169.852 16.3255C166.963 16.3255 165.05 18.3555 165.05 22.2166V22.7141C165.05 26.2766 166.903 28.3067 169.852 28.3067C172.821 28.247 174.654 26.2766 174.654 22.7141ZM186.65 21.9777L179.695 12.4644H185.653L189.658 18.4152L193.723 12.4644H199.621L192.568 21.918L200 32.2473H194.162L189.619 25.6796L185.195 32.2473H179.098L186.65 21.9777Z" fill="white"/>
</g>
<defs>
<clipPath id="clip0_1476_241">
<rect width="199.26" height="39.1877" fill="white" transform="translate(0.740234 0.423584)"/>
</clipPath>
</defs>
</svg>
