<svg width="60" height="12" viewBox="0 0 60 12" fill="none" xmlns="http://www.w3.org/2000/svg">
<g clip-path="url(#clip0_25_305)">
<path d="M7.52115 2.40559L4.07796 4.5995L7.52115 6.79342L4.07796 8.98734L0.634766 6.78156L4.07796 4.58765L0.634766 2.40559L4.07796 0.21167L7.52115 2.40559ZM4.06015 9.69295L7.50334 7.49903L10.9465 9.69295L7.50334 11.8869L4.06015 9.69295ZM7.52115 6.78156L10.9643 4.58765L7.52115 2.40559L10.9465 0.21167L14.3897 2.40559L10.9465 4.5995L14.3897 6.79342L10.9465 8.98734L7.52115 6.78156Z" fill="white"/>
<path d="M17.0908 2.40555H19.8751C21.6501 2.40555 23.1164 3.43136 23.1164 5.77351V6.26566C23.1164 8.62561 21.7451 9.68699 19.9285 9.68699H17.0908V2.40555ZM18.6462 3.72783V8.35878H19.8394C20.8487 8.35878 21.5254 7.7006 21.5254 6.23602V5.8506C21.5254 4.38601 20.813 3.72783 19.786 3.72783H18.6462ZM23.9416 3.79899H25.1883L25.3901 5.1687C25.6276 4.23777 26.2331 3.73969 27.3314 3.73969H27.7172V5.31101H27.0761C25.8116 5.31101 25.5029 5.7498 25.5029 6.99499V9.70478H23.9653V3.79899H23.9416ZM28.0259 6.87047V6.70445C28.0259 4.72992 29.2904 3.65075 31.012 3.65075C32.7692 3.65075 33.9981 4.72992 33.9981 6.70445V6.87047C33.9981 8.80942 32.8048 9.85301 31.012 9.85301C29.1064 9.83523 28.0259 8.81535 28.0259 6.87047ZM32.4249 6.85268V6.70445C32.4249 5.60749 31.8728 4.94931 30.9942 4.94931C30.1334 4.94931 29.5635 5.55412 29.5635 6.70445V6.85268C29.5635 7.91407 30.1156 8.51888 30.9942 8.51888C31.8728 8.50109 32.4249 7.91407 32.4249 6.85268ZM34.8055 3.79899H36.0878L36.2362 4.91374C36.5449 4.16662 37.2038 3.65075 38.1774 3.65075C39.6794 3.65075 40.6708 4.72992 40.6708 6.72816V6.89419C40.6708 8.83314 39.5725 9.85894 38.1774 9.85894C37.2454 9.85894 36.6042 9.43795 36.2896 8.76199V11.7445H34.7876L34.8055 3.79899ZM39.1094 6.85268V6.72224C39.1094 5.54819 38.5039 4.9671 37.6966 4.9671C36.8358 4.9671 36.2658 5.62528 36.2658 6.72224V6.8349C36.2658 7.87849 36.8179 8.53666 37.6787 8.53666C38.5633 8.51888 39.1094 7.95557 39.1094 6.85268ZM42.9445 8.61375L42.8139 9.69292H41.4959V1.82446H42.9979V4.84258C43.3303 4.07175 43.9893 3.65075 44.9213 3.65075C46.3342 3.66854 47.3791 4.64098 47.3791 6.59772V6.78153C47.3791 8.73827 46.3877 9.85894 44.8857 9.85894C43.8943 9.83523 43.2532 9.37865 42.9445 8.61375ZM45.7999 6.78153V6.63329C45.7999 5.55412 45.2122 4.94931 44.387 4.94931C43.544 4.94931 42.9563 5.62528 42.9563 6.65108V6.78153C42.9563 7.87849 43.5262 8.51888 44.3692 8.51888C45.2716 8.51888 45.7999 7.95557 45.7999 6.78153ZM48.038 6.87047V6.70445C48.038 4.72992 49.3025 3.65075 51.0241 3.65075C52.7813 3.65075 54.0102 4.72992 54.0102 6.70445V6.87047C54.0102 8.80942 52.7991 9.85301 51.0241 9.85301C49.1185 9.83523 48.038 8.81535 48.038 6.87047ZM52.4489 6.85268V6.70445C52.4489 5.60749 51.8968 4.94931 51.0182 4.94931C50.1574 4.94931 49.5874 5.55412 49.5874 6.70445V6.85268C49.5874 7.91407 50.1395 8.51888 51.0182 8.51888C51.9027 8.50109 52.4489 7.91407 52.4489 6.85268ZM56.0227 6.63329L53.9508 3.79899H55.7258L56.9191 5.57191L58.1301 3.79899H59.8873L57.7858 6.6155L60.0001 9.69292H58.2607L56.9072 7.73618L55.5893 9.69292H53.7727L56.0227 6.63329Z" fill="white"/>
</g>
<defs>
<clipPath id="clip0_25_305">
<rect width="59.3654" height="11.6752" fill="white" transform="translate(0.634766 0.21167)"/>
</clipPath>
</defs>
</svg>
