<svg width="60" height="12" viewBox="0 0 60 12" fill="none" xmlns="http://www.w3.org/2000/svg">
<g clip-path="url(#clip0_25_277)">
<path d="M1.27523 9.18707C1.05651 9.18755 0.841583 9.12996 0.652408 9.02018C0.463232 8.91041 0.306587 8.75238 0.198476 8.56224C0.0920195 8.37345 0.0389268 8.15925 0.0448852 7.94259C0.0508437 7.72594 0.115629 7.51498 0.232301 7.33232L2.44969 3.85021C2.56318 3.66306 2.72431 3.5094 2.91662 3.4049C3.10893 3.30041 3.32553 3.24884 3.54429 3.25545C3.76289 3.26069 3.97617 3.32391 4.16231 3.43865C4.34845 3.55339 4.50076 3.71552 4.60366 3.90846C4.81037 4.29933 4.78453 4.76959 4.53695 5.1365L2.32097 8.61862C2.2086 8.79373 2.05383 8.93764 1.87103 9.03701C1.68822 9.13638 1.48329 9.188 1.27523 9.18707Z" fill="white"/>
<path d="M5.07865 9.18704C4.63141 9.18704 4.21988 8.94791 4.00378 8.56362C3.89756 8.37534 3.84459 8.16171 3.85055 7.94561C3.85651 7.72952 3.92117 7.51913 4.0376 7.33699L6.25077 3.86286C6.36259 3.67309 6.52314 3.51668 6.71578 3.40987C6.90841 3.30306 7.12612 3.24973 7.34631 3.25542C7.7973 3.26528 8.20602 3.51756 8.41272 3.91219C8.61802 4.30682 8.58795 4.7799 8.33286 5.14587L6.12017 8.62C6.00814 8.79437 5.854 8.93771 5.67198 9.03681C5.48995 9.13592 5.2859 9.18758 5.07865 9.18704Z" fill="white"/>
<path d="M8.79685 9.21612C9.42733 9.21612 9.93843 8.71573 9.93843 8.09848C9.93843 7.48122 9.42733 6.98083 8.79685 6.98083C8.16638 6.98083 7.65527 7.48122 7.65527 8.09848C7.65527 8.71573 8.16638 9.21612 8.79685 9.21612Z" fill="white"/>
<path d="M58.3903 7.04559C58.7351 7.04559 58.9414 7.29083 58.9414 7.6925V9.069H59.4097V7.66103C59.4097 6.97794 59.0879 6.58191 58.4829 6.58191C58.2461 6.58191 57.8703 6.64674 57.6462 7.08224C57.5941 6.95378 57.5082 6.84184 57.3976 6.75829C57.287 6.67474 57.1559 6.62272 57.0181 6.60775C56.9313 6.59186 56.843 6.58666 56.755 6.59224C56.5624 6.60775 56.2194 6.72754 56.0912 6.99909V6.63405H55.6223V9.069H56.0912V7.75498C56.0912 7.24385 56.4257 7.04559 56.7606 7.04559C57.0744 7.04559 57.2807 7.28566 57.2807 7.68733V9.069H57.7467V7.75498C57.7467 7.34814 57.991 7.0409 58.3903 7.04559ZM53.9015 8.66216C54.1157 8.66686 54.3224 8.58135 54.4723 8.42632C54.6226 8.27129 54.7025 8.06035 54.6945 7.84378C54.6945 7.35331 54.3337 7.04559 53.9015 7.04559C53.4688 7.04559 53.1085 7.35331 53.1085 7.84378C53.1 8.05988 53.1799 8.27035 53.3293 8.42491C53.4787 8.57994 53.6845 8.66592 53.8977 8.66216H53.9015ZM53.9015 9.1188C53.2166 9.1188 52.6448 8.61283 52.6448 7.84096C52.6448 7.06908 53.2166 6.57909 53.9015 6.57909C54.5864 6.57909 55.1629 7.06908 55.1629 7.84096C55.1629 8.61283 54.5832 9.12115 53.8982 9.12115L53.9015 9.1188ZM50.2325 7.84096L50.2278 7.84378C50.2278 7.0719 50.8145 6.58191 51.5042 6.57909C51.6774 6.57574 51.8495 6.6088 52.0091 6.67613C52.1688 6.74346 52.3125 6.84356 52.4311 6.96996L52.0759 7.27251C52.0005 7.19843 51.9111 7.14003 51.813 7.10068C51.7149 7.06133 51.6099 7.04181 51.5042 7.04325C51.072 7.04325 50.6962 7.35096 50.6962 7.84096C50.6962 8.17216 50.893 8.47048 51.1951 8.59733C51.4971 8.72417 51.8448 8.6537 52.0759 8.41974L52.4362 8.72229C52.3173 8.84999 52.1729 8.95127 52.0123 9.01958C51.8518 9.08789 51.6786 9.12169 51.5042 9.1188C50.8197 9.1188 50.2325 8.61283 50.2325 7.84096ZM48.7324 8.60155C48.7319 8.55898 48.7398 8.51673 48.7557 8.47721C48.7715 8.4377 48.795 8.40168 48.8247 8.37123C48.8545 8.34078 48.8899 8.31649 48.9291 8.29975C48.9682 8.283 49.0103 8.27413 49.0528 8.27364C49.0954 8.27413 49.1375 8.283 49.1766 8.29975C49.2157 8.31649 49.2512 8.34078 49.281 8.37123C49.3107 8.40168 49.3342 8.4377 49.35 8.47721C49.3658 8.51673 49.3737 8.55898 49.3732 8.60155C49.369 8.684 49.3336 8.76174 49.274 8.81892C49.2145 8.87611 49.1354 8.90842 49.0528 8.90927C48.9703 8.90842 48.8912 8.87611 48.8316 8.81892C48.7721 8.76174 48.7366 8.684 48.7324 8.60155Z" fill="white"/>
<path fill-rule="evenodd" clip-rule="evenodd" d="M50.0144 3.53866H48.3462L47.1769 6.55333L46.0137 3.53866H44.3455L46.3735 8.30237L45.1122 11.4519H46.7682L50.0144 3.53866ZM39.8689 6.1883C39.8689 6.94937 40.5341 7.45017 41.1876 7.45017C41.8298 7.45017 42.4607 6.98413 42.4607 6.18783C42.4607 5.39153 41.8298 4.92502 41.1876 4.92502C40.5341 4.92502 39.8689 5.42676 39.8689 6.1883ZM42.4607 8.84828V8.24553C42.1224 8.7576 41.3332 8.95116 40.9282 8.95116C39.5875 8.95116 38.2462 7.89412 38.2462 6.18783C38.2462 4.48201 39.587 3.42497 40.9282 3.42497C41.266 3.42497 42.0553 3.53772 42.4607 4.12966V3.54054H44.0157V8.84921L42.4607 8.84828ZM37.8037 8.84828H36.2487V8.18868C35.9889 8.67727 35.3589 8.96197 34.705 8.96197C33.3525 8.96197 32.1578 7.88191 32.1578 6.20944C32.1578 4.5055 33.3525 3.42403 34.705 3.42403C35.358 3.42403 35.9899 3.69651 36.2487 4.18557V0.646606H37.8037V8.84828ZM36.2149 6.17609C36.2149 5.38025 35.6403 4.91375 34.9981 4.91375C34.3329 4.91375 33.7804 5.41408 33.7804 6.17609C33.7804 6.96252 34.3329 7.4605 34.9977 7.4605C35.6521 7.46144 36.2149 6.93809 36.2149 6.17609ZM28.3131 6.03891C28.3131 5.2318 28.7302 4.95885 29.2822 4.95885C29.8117 4.95885 30.195 5.31119 30.195 6.01589V8.84733H31.7613V5.67528C31.7613 4.16349 31.0172 3.42403 29.8338 3.42403C29.2141 3.42403 28.5945 3.77638 28.3126 4.311V3.53866H26.7473V8.84733H28.3131V6.03891ZM23.5668 8.93848C22.0795 8.93848 20.8388 7.84714 20.8388 6.17562C20.8388 4.50315 22.0781 3.42262 23.5668 3.42262C25.0556 3.42262 26.3057 4.50315 26.3057 6.17562C26.3057 7.84808 25.0542 8.93848 23.5668 8.93848ZM23.5668 7.39285C24.2198 7.39285 24.7615 6.9146 24.7615 6.17609C24.7615 5.45965 24.2203 4.97059 23.5668 4.97059C23.4095 4.96813 23.2533 4.99773 23.1077 5.05757C22.9622 5.11742 22.8304 5.20627 22.7203 5.31871C22.6095 5.43175 22.5227 5.5659 22.4648 5.71319C22.4069 5.86048 22.3793 6.01789 22.3834 6.17609C22.3839 6.91554 22.9246 7.39285 23.5668 7.39285ZM18.0309 4.95932C18.4927 4.95932 18.8986 5.32341 18.8986 6.01636V8.84828H20.4536V5.83314C20.4536 4.2302 19.6742 3.42309 18.425 3.42309C18.0539 3.42309 17.3548 3.53584 16.8475 4.36644C16.5543 3.75242 15.9911 3.4339 15.1586 3.4339C14.8696 3.43243 14.5862 3.51423 14.3425 3.66952C14.0987 3.82481 13.9048 4.04703 13.784 4.30959V3.53913H12.2168V8.84781H13.7826V6.03891C13.7826 5.2318 14.2223 4.95885 14.6954 4.95885C15.1464 4.95885 15.5513 5.31119 15.5631 5.98206V8.84781H17.1294V6.03891C17.1294 5.26703 17.5352 4.95932 18.0309 4.95932Z" fill="white"/>
</g>
<defs>
<clipPath id="clip0_25_277">
<rect width="59.3654" height="10.8053" fill="white" transform="translate(0.0444336 0.646606)"/>
</clipPath>
</defs>
</svg>
