<svg width="130" height="51" viewBox="0 0 130 51" fill="none" xmlns="http://www.w3.org/2000/svg">
<path d="M28.2 4.732C28.3253 4.57533 28.4507 4.41866 28.576 4.262C28.8267 3.98 29.093 3.71367 29.375 3.463C29.7197 3.181 30.1583 2.899 30.691 2.617C31.255 2.335 31.8973 2.20967 32.618 2.241C32.8687 2.241 33.1037 2.27233 33.323 2.335C33.511 2.39767 33.6833 2.49167 33.84 2.617C33.9967 2.711 34.1063 2.86766 34.169 3.087C35.861 2.67967 37.5687 2.31933 39.292 2.006C41.0153 1.66133 42.676 1.41066 44.274 1.254C45.872 1.09733 47.376 1.05033 48.786 1.113C50.196 1.14433 51.4337 1.301 52.499 1.583C53.5643 1.865 54.4103 2.288 55.037 2.852C55.695 3.416 56.0553 4.13667 56.118 5.014C56.118 5.296 56.1023 5.578 56.071 5.86C56.0083 6.11067 55.93 6.36133 55.836 6.612C55.7733 6.86267 55.648 7.11333 55.46 7.364C55.272 7.61467 55.037 7.75566 54.755 7.787C54.5043 7.787 54.2067 7.61466 53.862 7.27C53.58 6.988 52.8593 6.706 51.7 6.424C50.5407 6.11067 48.974 5.907 47 5.813C45.0573 5.719 42.7387 5.78167 40.044 6.001C37.3807 6.22033 34.3883 6.72167 31.067 7.505C29.9703 9.07167 28.8423 10.889 27.683 12.957C26.5237 14.9937 25.4583 16.952 24.487 18.832C23.359 21.0253 22.2467 23.25 21.15 25.506C19.4893 28.8273 18.1577 31.6787 17.155 34.06C16.1837 36.41 15.4787 38.431 15.04 40.123C14.4133 42.5043 14.0373 44.2903 13.912 45.481C13.7867 46.703 13.7553 47.5803 13.818 48.113C13.912 48.6457 14.0373 48.9747 14.194 49.1C14.3507 49.2567 14.4133 49.4447 14.382 49.664C14.3193 49.9147 14.2097 50.1027 14.053 50.228C13.9277 50.3533 13.7867 50.4473 13.63 50.51C13.442 50.5727 13.254 50.604 13.066 50.604C12.502 50.5727 12.0477 50.3847 11.703 50.04C11.3583 49.6953 11.092 49.2567 10.904 48.724C10.7473 48.1913 10.6377 47.596 10.575 46.938C10.5437 46.28 10.5437 45.6063 10.575 44.917C10.669 43.319 10.9667 41.5173 11.468 39.512C11.9693 37.1307 12.7527 34.5613 13.818 31.804C14.9147 29.0153 16.121 26.258 17.437 23.532C18.753 20.7747 20.116 18.1427 21.526 15.636C22.936 13.1293 24.205 10.9517 25.333 9.103C22.2937 10.231 19.7557 11.3433 17.719 12.44C15.7137 13.5053 14.0843 14.555 12.831 15.589C11.609 16.5917 10.7003 17.563 10.105 18.503C9.541 19.4117 9.18067 20.289 9.024 21.135C8.86733 21.9497 8.85167 22.7173 8.977 23.438C9.13367 24.1273 9.32167 24.754 9.541 25.318C9.76033 25.8507 9.94833 26.305 10.105 26.681C10.2617 27.057 10.2773 27.339 10.152 27.527C9.90133 27.8717 9.541 28.0127 9.071 27.95C8.63233 27.8873 8.24067 27.715 7.896 27.433C7.64533 27.245 7.44167 27.0257 7.285 26.775C7.12833 26.5243 7.003 26.2893 6.909 26.07C6.78367 25.8193 6.68967 25.553 6.627 25.271C6.157 23.6417 6.063 22.122 6.345 20.712C6.627 19.302 7.15967 17.986 7.943 16.764C8.75767 15.5107 9.776 14.367 10.998 13.333C12.22 12.299 13.5203 11.359 14.899 10.513C16.309 9.667 17.7503 8.915 19.223 8.257C20.6957 7.599 22.09 7.01933 23.406 6.518C23.4373 6.48666 23.453 6.471 23.453 6.471C23.4843 6.471 23.5157 6.45533 23.547 6.424C24.2363 6.142 24.9727 5.86 25.756 5.578C26.5393 5.296 27.354 5.014 28.2 4.732ZM18.894 9.949C18.9567 9.91766 19.0037 9.902 19.035 9.902C19.0977 9.87067 19.1603 9.83933 19.223 9.808C19.317 9.74533 19.4267 9.68266 19.552 9.62C19.8027 9.526 20.022 9.432 20.21 9.338C20.4293 9.21267 20.633 9.103 20.821 9.009C22.4503 8.257 23.7193 7.693 24.628 7.317C24.8787 7.223 25.0823 7.14467 25.239 7.082C25.3957 7.01933 25.5367 6.95667 25.662 6.894C25.7247 6.86266 25.7717 6.847 25.803 6.847C25.8657 6.847 25.9127 6.83133 25.944 6.8C25.9753 6.8 26.0067 6.78433 26.038 6.753C25.7247 6.81567 25.474 6.87833 25.286 6.941C25.2233 6.97233 25.1607 6.988 25.098 6.988C25.0353 6.988 24.9727 7.00367 24.91 7.035C24.8473 7.06633 24.7847 7.082 24.722 7.082C24.5967 7.14467 24.534 7.176 24.534 7.176C24.2833 7.23867 24.017 7.317 23.735 7.411C23.4843 7.47367 23.2337 7.552 22.983 7.646C22.4503 7.834 21.9177 8.03767 21.385 8.257C20.8523 8.445 20.3197 8.64867 19.787 8.868L19.411 9.056C19.3483 9.08733 19.2857 9.11867 19.223 9.15C19.1603 9.18133 19.0977 9.21267 19.035 9.244C18.8783 9.30667 18.7373 9.36933 18.612 9.432C18.518 9.49466 18.3927 9.55733 18.236 9.62C17.9853 9.714 17.7347 9.83933 17.484 9.996C17.4213 10.0273 17.3587 10.0587 17.296 10.09C17.2333 10.1213 17.1707 10.1527 17.108 10.184C17.0453 10.2467 16.92 10.3093 16.732 10.372C16.262 10.654 15.792 10.936 15.322 11.218C14.8833 11.5 14.4447 11.782 14.006 12.064C13.5673 12.3773 13.16 12.675 12.784 12.957C12.4393 13.239 12.0947 13.5367 11.75 13.85C11.4367 14.132 11.139 14.414 10.857 14.696C10.6063 14.9467 10.3713 15.1973 10.152 15.448C9.93267 15.6987 9.74467 15.918 9.588 16.106C9.46267 16.294 9.33733 16.4663 9.212 16.623C9.14933 16.717 9.08667 16.8267 9.024 16.952C8.99267 16.9833 8.977 17.0147 8.977 17.046C8.977 17.0773 8.96133 17.093 8.93 17.093C8.99267 16.999 9.05533 16.9207 9.118 16.858C9.18067 16.764 9.24333 16.6857 9.306 16.623C9.33733 16.5917 9.353 16.5603 9.353 16.529C9.38433 16.4977 9.41567 16.4663 9.447 16.435L9.635 16.247C9.79167 16.0903 9.917 15.9493 10.011 15.824C10.1363 15.6987 10.2773 15.5733 10.434 15.448C10.9353 15.0093 11.468 14.5707 12.032 14.132C12.5647 13.6933 13.0973 13.3017 13.63 12.957C14.1627 12.6123 14.6953 12.2833 15.228 11.97C15.7607 11.6567 16.262 11.3747 16.732 11.124C17.2333 10.842 17.719 10.5757 18.189 10.325C18.3143 10.231 18.4397 10.1683 18.565 10.137C18.6277 10.1057 18.6747 10.0743 18.706 10.043C18.7687 10.0117 18.8313 9.98033 18.894 9.949ZM25.803 10.842C24.393 13.098 23.077 15.307 21.855 17.469C21.2283 18.5343 20.6487 19.584 20.116 20.618C19.5833 21.652 19.0663 22.6703 18.565 23.673C16.591 27.6523 15.0713 31.193 14.006 34.295C13.7553 35.0783 13.5203 35.8147 13.301 36.504C13.0817 37.1933 12.8937 37.8513 12.737 38.478C12.6743 38.7913 12.6117 39.089 12.549 39.371C12.4863 39.653 12.4237 39.935 12.361 40.217C12.3297 40.3423 12.2983 40.4677 12.267 40.593C12.267 40.7183 12.2513 40.8437 12.22 40.969C12.22 41.0317 12.2043 41.0787 12.173 41.11C12.173 41.1727 12.173 41.2353 12.173 41.298C12.173 41.3607 12.1573 41.4233 12.126 41.486C12.126 41.5487 12.126 41.6113 12.126 41.674C12.0633 42.1127 12.0163 42.4887 11.985 42.802C11.985 43.1467 11.985 43.4287 11.985 43.648V44.165V44.353C12.0163 44.1023 12.032 43.8673 12.032 43.648C12.0633 43.46 12.0947 43.2407 12.126 42.99L12.408 41.58C12.4707 41.3293 12.5177 41.0943 12.549 40.875C12.6117 40.6557 12.6743 40.4207 12.737 40.17L13.16 38.76C13.7553 36.9113 14.4447 35.0157 15.228 33.073C15.6353 32.133 16.027 31.193 16.403 30.253C16.8103 29.313 17.2177 28.3887 17.625 27.48C18.0637 26.5713 18.471 25.6783 18.847 24.801C19.2543 23.9237 19.6617 23.0777 20.069 22.263C20.8523 20.6023 21.5887 19.0827 22.278 17.704C22.9673 16.294 23.5783 15.0877 24.111 14.085C24.6123 13.051 25.0353 12.252 25.38 11.688L25.803 10.842ZM55.225 5.531C55.2877 5.155 55.2407 4.779 55.084 4.403C54.9273 3.99567 54.708 3.651 54.426 3.369C54.2693 3.21233 54.097 3.087 53.909 2.993C53.7523 2.86766 53.5957 2.758 53.439 2.664C53.0317 2.44466 52.6713 2.31933 52.358 2.288C52.0133 2.194 51.6843 2.13133 51.371 2.1C51.0577 2.06866 50.7913 2.053 50.572 2.053H50.055H49.914H49.867C49.9923 2.08433 50.1177 2.11566 50.243 2.147C50.3683 2.147 50.4937 2.16266 50.619 2.194L51.324 2.335C51.5747 2.39767 51.794 2.46033 51.982 2.523C52.2013 2.58567 52.405 2.64833 52.593 2.711C52.781 2.805 52.9533 2.899 53.11 2.993C53.298 3.05567 53.4703 3.134 53.627 3.228C53.7837 3.322 53.9247 3.416 54.05 3.51C54.1753 3.604 54.285 3.71366 54.379 3.839C54.5983 4.05833 54.755 4.27767 54.849 4.497C54.943 4.685 55.0213 4.85733 55.084 5.014C55.1153 5.108 55.131 5.18633 55.131 5.249C55.1623 5.28033 55.178 5.32733 55.178 5.39C55.178 5.42133 55.1937 5.45267 55.225 5.484V5.531ZM36.331 26.963C36.6757 26.9943 36.8637 27.3077 36.895 27.903C36.9577 28.467 36.8793 29.078 36.66 29.736C36.4093 30.4253 36.049 31.1147 35.579 31.804C35.1403 32.462 34.5763 33.0573 33.887 33.59C33.229 34.0913 32.4457 34.483 31.537 34.765C30.6597 35.047 29.6727 35.141 28.576 35.047C27.542 34.953 26.6333 34.6397 25.85 34.107C25.192 33.6683 24.5967 33.0103 24.064 32.133C23.5627 31.2243 23.3903 29.9397 23.547 28.279C23.641 27.2137 23.8917 26.1327 24.299 25.036C24.6437 24.096 25.1607 23.0933 25.85 22.028C26.5707 20.9313 27.5577 19.8973 28.811 18.926C29.4063 18.4873 30.0173 18.1113 30.644 17.798C31.1767 17.5473 31.7563 17.3593 32.383 17.234C33.0097 17.0773 33.5893 17.1243 34.122 17.375C35.062 17.7823 35.626 18.3933 35.814 19.208C36.002 20.0227 35.955 20.759 35.673 21.417C35.5163 21.7617 35.297 22.1847 35.015 22.686C34.7643 23.156 34.357 23.6573 33.793 24.19C33.2603 24.7227 32.524 25.2553 31.584 25.788C30.644 26.3207 29.4377 26.7907 27.965 27.198C27.589 28.2007 27.354 29.1093 27.26 29.924C27.1973 30.6447 27.2443 31.334 27.401 31.992C27.589 32.6187 28.0747 33.0573 28.858 33.308C29.61 33.5587 30.315 33.5587 30.973 33.308C31.6623 33.0573 32.2733 32.6813 32.806 32.18C33.37 31.6787 33.84 31.099 34.216 30.441C34.6233 29.783 34.921 29.172 35.109 28.608C35.1717 28.4827 35.2343 28.326 35.297 28.138C35.391 27.95 35.485 27.762 35.579 27.574C35.7043 27.386 35.8297 27.245 35.955 27.151C36.0803 27.0257 36.2057 26.963 36.331 26.963ZM33.088 22.451C33.276 22.2003 33.3857 21.9497 33.417 21.699C33.4797 21.4483 33.4483 21.2447 33.323 21.088C33.229 20.9313 33.041 20.853 32.759 20.853C32.477 20.853 32.1323 20.9783 31.725 21.229C31.3177 21.4797 30.9103 21.8243 30.503 22.263C30.127 22.6703 29.798 23.0777 29.516 23.485C29.234 23.8923 28.999 24.2527 28.811 24.566C28.6543 24.848 28.6073 24.989 28.67 24.989C28.9207 24.989 29.2497 24.9107 29.657 24.754C30.0957 24.5973 30.5187 24.3937 30.926 24.143C31.3647 23.861 31.772 23.579 32.148 23.297C32.5553 22.9837 32.8687 22.7017 33.088 22.451ZM24.581 27.997C24.863 27.0883 25.239 26.1797 25.709 25.271C26.1163 24.4877 26.6177 23.6573 27.213 22.78C27.8397 21.9027 28.5917 21.1037 29.469 20.383C30.6597 19.4117 31.631 18.8163 32.383 18.597C33.1663 18.3777 33.7617 18.3463 34.169 18.503C34.0437 18.3777 33.9027 18.2523 33.746 18.127C33.4013 17.9077 32.9313 17.845 32.336 17.939C31.96 18.0017 31.4117 18.2523 30.691 18.691C30.0017 19.1297 29.2653 19.7563 28.482 20.571C27.6987 21.3857 26.9467 22.4197 26.226 23.673C25.5367 24.895 24.9883 26.3363 24.581 27.997ZM49.6731 16.106C50.3625 16.764 50.7385 17.469 50.8011 18.221C50.8951 18.973 50.8011 19.7093 50.5191 20.43C50.3938 20.6807 50.2528 20.9 50.0961 21.088C49.9395 21.2447 49.7671 21.3857 49.5791 21.511C49.3911 21.6363 49.1718 21.6677 48.9211 21.605C48.7018 21.5423 48.5138 21.4013 48.3571 21.182C48.2005 20.9313 48.2005 20.6023 48.3571 20.195C48.4198 19.9443 48.4825 19.725 48.5451 19.537C48.6078 19.349 48.6548 19.1767 48.6861 19.02C48.7175 18.8633 48.7488 18.7067 48.7801 18.55C47.9968 19.1767 47.2448 19.9913 46.5241 20.994C45.8035 21.9967 45.1455 23.0933 44.5501 24.284C43.9548 25.4747 43.4221 26.681 42.9521 27.903C42.4821 29.125 42.1218 30.253 41.8711 31.287C41.6205 32.321 41.4795 33.1983 41.4481 33.919C41.4168 34.6397 41.5421 35.0783 41.8241 35.235C42.2001 35.4543 42.7171 35.376 43.3751 35C44.0331 34.6553 44.6911 34.201 45.3491 33.637C46.0071 33.073 46.5868 32.509 47.0881 31.945C47.6208 31.3497 47.9498 30.958 48.0751 30.77C48.2318 30.582 48.3885 30.4723 48.5451 30.441C48.7331 30.4097 48.8898 30.4723 49.0151 30.629C49.1405 30.817 49.1718 31.0363 49.1091 31.287L49.0151 31.663C48.9211 31.9763 48.7018 32.3837 48.3571 32.885C48.0438 33.3863 47.6521 33.8877 47.1821 34.389C46.7121 34.8903 46.1951 35.3603 45.6311 35.799C45.0985 36.269 44.5501 36.6137 43.9861 36.833C43.1088 37.1777 42.3568 37.35 41.7301 37.35C41.1348 37.35 40.6178 37.2717 40.1791 37.115C39.6778 36.9583 39.2548 36.7077 38.9101 36.363C38.2835 35.7677 37.8605 35.0157 37.6411 34.107C37.4531 33.167 37.4061 32.1487 37.5001 31.052C37.6255 29.924 37.8605 28.7647 38.2051 27.574C38.5811 26.3833 39.0198 25.2397 39.5211 24.143C40.0538 23.015 40.6021 21.981 41.1661 21.041C41.7615 20.0697 42.3411 19.255 42.9051 18.597C43.6571 17.6883 44.4405 16.952 45.2551 16.388C45.9445 15.918 46.6651 15.6047 47.4171 15.448C48.2005 15.26 48.9525 15.4793 49.6731 16.106ZM38.7221 32.321C39.1608 30.1903 39.7248 28.2633 40.4141 26.54C41.1035 24.7853 41.7771 23.2813 42.4351 22.028C43.2185 20.5553 44.0331 19.2393 44.8791 18.08C43.4065 19.5213 42.2628 21.0723 41.4481 22.733C40.6335 24.3623 40.0225 25.8977 39.6151 27.339C39.1451 29.031 38.8475 30.6917 38.7221 32.321ZM57.7439 6.471C58.1512 5.49967 58.6369 4.66933 59.2009 3.98C59.6709 3.38467 60.2506 2.88333 60.9399 2.476C61.6292 2.03733 62.4126 1.94333 63.2899 2.194C63.6346 2.288 63.9636 2.476 64.2769 2.758C64.5276 3.00866 64.7469 3.35333 64.9349 3.792C65.1542 4.19933 65.2639 4.74767 65.2639 5.437C65.2326 5.813 65.1699 6.236 65.0759 6.706C65.0132 7.176 64.9036 7.693 64.7469 8.257C64.4336 9.291 63.9792 10.419 63.3839 11.641C62.7886 12.8317 62.0992 14.0067 61.3159 15.166C60.5326 16.3253 59.6709 17.4063 58.7309 18.409C57.7909 19.4117 56.8039 20.2263 55.7699 20.853C55.2372 22.357 54.7672 23.7513 54.3599 25.036C53.9526 26.3207 53.6079 27.48 53.3259 28.514C53.8272 27.6367 54.4226 26.6497 55.1119 25.553C55.8326 24.425 56.5846 23.391 57.3679 22.451C58.1826 21.4797 58.9972 20.6807 59.8119 20.054C60.6579 19.4273 61.4569 19.1297 62.2089 19.161C62.8356 19.2237 63.3212 19.49 63.6659 19.96C63.9479 20.3673 64.1046 20.994 64.1359 21.84C64.1672 22.686 63.8852 23.908 63.2899 25.506C63.0079 26.2893 62.6789 27.1197 62.3029 27.997C61.9269 28.843 61.5979 29.6577 61.3159 30.441C60.6579 32.2897 60.2506 33.7153 60.0939 34.718C59.9372 35.7207 59.9842 36.3003 60.2349 36.457C60.2662 36.4883 60.2976 36.504 60.3289 36.504C60.4229 36.4727 60.5326 36.4727 60.6579 36.504C60.8146 36.5353 60.9712 36.6293 61.1279 36.786C61.2532 36.9113 61.3316 37.0523 61.3629 37.209C61.4256 37.397 61.3786 37.6163 61.2219 37.867C60.9712 38.2117 60.6579 38.431 60.2819 38.525C59.9372 38.619 59.5926 38.6347 59.2479 38.572C58.9032 38.5093 58.5742 38.384 58.2609 38.196C57.9476 38.0393 57.6969 37.8357 57.5089 37.585C57.2582 37.2717 57.0859 36.88 56.9919 36.41C56.9292 35.9713 56.8979 35.5483 56.8979 35.141C56.8979 34.671 56.9292 34.1853 56.9919 33.684C57.2112 31.9293 57.5716 30.3 58.0729 28.796C58.5742 27.292 59.0286 26.0857 59.4359 25.177C59.8432 24.2683 60.1252 23.5947 60.2819 23.156C60.4386 22.686 60.4542 22.3727 60.3289 22.216C60.2662 22.1533 60.1722 22.1533 60.0469 22.216C59.9216 22.2473 59.7962 22.31 59.6709 22.404C59.5456 22.5293 59.3889 22.6703 59.2009 22.827C58.4489 23.5477 57.6812 24.472 56.8979 25.6C56.1146 26.6967 55.3939 27.7933 54.7359 28.89C54.0779 29.9553 53.5296 30.911 53.0909 31.757C52.6522 32.603 52.4016 33.0887 52.3389 33.214C52.2449 33.496 52.0882 33.6683 51.8689 33.731C51.6809 33.7623 51.4616 33.731 51.2109 33.637C50.9916 33.5117 50.7722 33.355 50.5529 33.167C50.3336 32.9477 50.1456 32.7283 49.9889 32.509C49.8322 32.321 49.7382 32.0703 49.7069 31.757C49.6756 31.4437 49.6756 31.1147 49.7069 30.77C49.7382 30.394 49.8009 29.9867 49.8949 29.548C50.1142 28.326 50.3806 27.0883 50.6939 25.835C51.0072 24.5817 51.3519 23.3283 51.7279 22.075C51.8219 21.7303 51.9002 21.4483 51.9629 21.229C52.0569 21.0097 52.1352 20.7903 52.1979 20.571C52.6679 19.1297 53.1536 17.7353 53.6549 16.388C54.1562 15.0093 54.6419 13.7247 55.1119 12.534C55.6132 11.312 56.0832 10.184 56.5219 9.15C56.9919 8.116 57.3992 7.223 57.7439 6.471ZM61.9269 25.553C61.6762 26.1797 61.4726 26.7437 61.3159 27.245C61.1906 27.715 61.0966 28.1223 61.0339 28.467C60.9399 28.8743 60.8772 29.2347 60.8459 29.548C61.0966 28.702 61.4256 27.809 61.8329 26.869C62.2402 25.929 62.6162 24.9263 62.9609 23.861C63.1176 23.3283 63.1959 22.9053 63.1959 22.592C63.2272 22.2473 63.2116 21.9653 63.1489 21.746C63.0862 21.4953 62.9922 21.3073 62.8669 21.182C62.9296 21.9027 62.8669 22.5763 62.6789 23.203C62.5222 23.7983 62.2716 24.5817 61.9269 25.553ZM61.2689 8.21C60.4856 9.68267 59.7336 11.2023 59.0129 12.769C58.3236 14.3357 57.6656 15.918 57.0389 17.516C57.8536 16.67 58.6996 15.5733 59.5769 14.226C60.4856 12.8787 61.3472 11.1867 62.1619 9.15C62.5379 8.42933 62.8199 7.787 63.0079 7.223C63.1646 6.753 63.2586 6.34567 63.2899 6.001C63.3526 5.625 63.2429 5.51533 62.9609 5.672C62.8669 5.73467 62.7572 5.82866 62.6319 5.954C62.1932 6.58066 61.8642 7.09766 61.6449 7.505C61.5196 7.75567 61.3942 7.99067 61.2689 8.21ZM58.9189 6.706C58.3549 7.67733 57.7909 8.74266 57.2269 9.902C56.7569 10.9047 56.2556 12.0483 55.7229 13.333C55.2216 14.6177 54.7986 15.9807 54.4539 17.422C54.9866 16.1373 55.5349 14.8683 56.0989 13.615C56.5689 12.5183 57.0546 11.359 57.5559 10.137C58.0886 8.915 58.5429 7.77133 58.9189 6.706ZM91.1268 4.732C91.2521 4.57533 91.3774 4.41866 91.5028 4.262C91.7534 3.98 92.0198 3.71367 92.3018 3.463C92.6464 3.181 93.0851 2.899 93.6178 2.617C94.1818 2.335 94.8241 2.20967 95.5448 2.241C95.7954 2.241 96.0304 2.27233 96.2498 2.335C96.4378 2.39767 96.6101 2.49167 96.7668 2.617C96.9234 2.711 97.0331 2.86766 97.0958 3.087C98.7878 2.67967 100.495 2.31933 102.219 2.006C103.942 1.66133 105.603 1.41066 107.201 1.254C108.799 1.09733 110.303 1.05033 111.713 1.113C113.123 1.14433 114.36 1.301 115.426 1.583C116.491 1.865 117.337 2.288 117.964 2.852C118.622 3.416 118.982 4.13667 119.045 5.014C119.045 5.296 119.029 5.578 118.998 5.86C118.935 6.11067 118.857 6.36133 118.763 6.612C118.7 6.86267 118.575 7.11333 118.387 7.364C118.199 7.61467 117.964 7.75566 117.682 7.787C117.431 7.787 117.133 7.61466 116.789 7.27C116.507 6.988 115.786 6.706 114.627 6.424C113.467 6.11067 111.901 5.907 109.927 5.813C107.984 5.719 105.665 5.78167 102.971 6.001C100.307 6.22033 97.3151 6.72167 93.9938 7.505C92.8971 9.07167 91.7691 10.889 90.6098 12.957C89.4504 14.9937 88.3851 16.952 87.4138 18.832C86.2858 21.0253 85.1734 23.25 84.0768 25.506C82.4161 28.8273 81.0844 31.6787 80.0818 34.06C79.1104 36.41 78.4054 38.431 77.9668 40.123C77.3401 42.5043 76.9641 44.2903 76.8388 45.481C76.7134 46.703 76.6821 47.5803 76.7448 48.113C76.8388 48.6457 76.9641 48.9747 77.1208 49.1C77.2774 49.2567 77.3401 49.4447 77.3088 49.664C77.2461 49.9147 77.1364 50.1027 76.9798 50.228C76.8544 50.3533 76.7134 50.4473 76.5568 50.51C76.3688 50.5727 76.1808 50.604 75.9928 50.604C75.4288 50.5727 74.9744 50.3847 74.6298 50.04C74.2851 49.6953 74.0188 49.2567 73.8308 48.724C73.6741 48.1913 73.5644 47.596 73.5018 46.938C73.4704 46.28 73.4704 45.6063 73.5018 44.917C73.5958 43.319 73.8934 41.5173 74.3948 39.512C74.8961 37.1307 75.6794 34.5613 76.7448 31.804C77.8414 29.0153 79.0478 26.258 80.3638 23.532C81.6798 20.7747 83.0428 18.1427 84.4528 15.636C85.8628 13.1293 87.1318 10.9517 88.2598 9.103C85.2204 10.231 82.6824 11.3433 80.6458 12.44C78.6404 13.5053 77.0111 14.555 75.7578 15.589C74.5358 16.5917 73.6271 17.563 73.0318 18.503C72.4678 19.4117 72.1074 20.289 71.9508 21.135C71.7941 21.9497 71.7784 22.7173 71.9038 23.438C72.0604 24.1273 72.2484 24.754 72.4678 25.318C72.6871 25.8507 72.8751 26.305 73.0318 26.681C73.1884 27.057 73.2041 27.339 73.0788 27.527C72.8281 27.8717 72.4678 28.0127 71.9978 27.95C71.5591 27.8873 71.1674 27.715 70.8228 27.433C70.5721 27.245 70.3684 27.0257 70.2118 26.775C70.0551 26.5243 69.9298 26.2893 69.8358 26.07C69.7104 25.8193 69.6164 25.553 69.5538 25.271C69.0838 23.6417 68.9898 22.122 69.2718 20.712C69.5538 19.302 70.0864 17.986 70.8698 16.764C71.6844 15.5107 72.7028 14.367 73.9248 13.333C75.1468 12.299 76.4471 11.359 77.8258 10.513C79.2358 9.667 80.6771 8.915 82.1498 8.257C83.6224 7.599 85.0168 7.01933 86.3328 6.518C86.3641 6.48666 86.3798 6.471 86.3798 6.471C86.4111 6.471 86.4424 6.45533 86.4738 6.424C87.1631 6.142 87.8994 5.86 88.6828 5.578C89.4661 5.296 90.2808 5.014 91.1268 4.732ZM81.8208 9.949C81.8834 9.91766 81.9304 9.902 81.9618 9.902C82.0244 9.87067 82.0871 9.83933 82.1498 9.808C82.2438 9.74533 82.3534 9.68266 82.4788 9.62C82.7294 9.526 82.9488 9.432 83.1368 9.338C83.3561 9.21267 83.5598 9.103 83.7478 9.009C85.3771 8.257 86.6461 7.693 87.5548 7.317C87.8054 7.223 88.0091 7.14467 88.1658 7.082C88.3224 7.01933 88.4634 6.95667 88.5888 6.894C88.6514 6.86266 88.6984 6.847 88.7298 6.847C88.7924 6.847 88.8394 6.83133 88.8708 6.8C88.9021 6.8 88.9334 6.78433 88.9648 6.753C88.6514 6.81567 88.4008 6.87833 88.2128 6.941C88.1501 6.97233 88.0874 6.988 88.0248 6.988C87.9621 6.988 87.8994 7.00367 87.8368 7.035C87.7741 7.06633 87.7114 7.082 87.6488 7.082C87.5234 7.14467 87.4608 7.176 87.4608 7.176C87.2101 7.23867 86.9438 7.317 86.6618 7.411C86.4111 7.47367 86.1604 7.552 85.9098 7.646C85.3771 7.834 84.8444 8.03767 84.3118 8.257C83.7791 8.445 83.2464 8.64867 82.7138 8.868L82.3378 9.056C82.2751 9.08733 82.2124 9.11867 82.1498 9.15C82.0871 9.18133 82.0244 9.21267 81.9618 9.244C81.8051 9.30667 81.6641 9.36933 81.5388 9.432C81.4448 9.49466 81.3194 9.55733 81.1628 9.62C80.9121 9.714 80.6614 9.83933 80.4108 9.996C80.3481 10.0273 80.2854 10.0587 80.2228 10.09C80.1601 10.1213 80.0974 10.1527 80.0348 10.184C79.9721 10.2467 79.8468 10.3093 79.6588 10.372C79.1888 10.654 78.7188 10.936 78.2488 11.218C77.8101 11.5 77.3714 11.782 76.9328 12.064C76.4941 12.3773 76.0868 12.675 75.7108 12.957C75.3661 13.239 75.0214 13.5367 74.6768 13.85C74.3634 14.132 74.0658 14.414 73.7838 14.696C73.5331 14.9467 73.2981 15.1973 73.0788 15.448C72.8594 15.6987 72.6714 15.918 72.5148 16.106C72.3894 16.294 72.2641 16.4663 72.1388 16.623C72.0761 16.717 72.0134 16.8267 71.9508 16.952C71.9194 16.9833 71.9038 17.0147 71.9038 17.046C71.9038 17.0773 71.8881 17.093 71.8568 17.093C71.9194 16.999 71.9821 16.9207 72.0448 16.858C72.1074 16.764 72.1701 16.6857 72.2328 16.623C72.2641 16.5917 72.2798 16.5603 72.2798 16.529C72.3111 16.4977 72.3424 16.4663 72.3738 16.435L72.5618 16.247C72.7184 16.0903 72.8438 15.9493 72.9378 15.824C73.0631 15.6987 73.2041 15.5733 73.3608 15.448C73.8621 15.0093 74.3948 14.5707 74.9588 14.132C75.4914 13.6933 76.0241 13.3017 76.5568 12.957C77.0894 12.6123 77.6221 12.2833 78.1548 11.97C78.6874 11.6567 79.1888 11.3747 79.6588 11.124C80.1601 10.842 80.6458 10.5757 81.1158 10.325C81.2411 10.231 81.3664 10.1683 81.4918 10.137C81.5544 10.1057 81.6014 10.0743 81.6328 10.043C81.6954 10.0117 81.7581 9.98033 81.8208 9.949ZM88.7298 10.842C87.3198 13.098 86.0038 15.307 84.7818 17.469C84.1551 18.5343 83.5754 19.584 83.0428 20.618C82.5101 21.652 81.9931 22.6703 81.4918 23.673C79.5178 27.6523 77.9981 31.193 76.9328 34.295C76.6821 35.0783 76.4471 35.8147 76.2278 36.504C76.0084 37.1933 75.8204 37.8513 75.6638 38.478C75.6011 38.7913 75.5384 39.089 75.4758 39.371C75.4131 39.653 75.3504 39.935 75.2878 40.217C75.2564 40.3423 75.2251 40.4677 75.1938 40.593C75.1938 40.7183 75.1781 40.8437 75.1468 40.969C75.1468 41.0317 75.1311 41.0787 75.0998 41.11C75.0998 41.1727 75.0998 41.2353 75.0998 41.298C75.0998 41.3607 75.0841 41.4233 75.0528 41.486C75.0528 41.5487 75.0528 41.6113 75.0528 41.674C74.9901 42.1127 74.9431 42.4887 74.9118 42.802C74.9118 43.1467 74.9118 43.4287 74.9118 43.648V44.165V44.353C74.9431 44.1023 74.9588 43.8673 74.9588 43.648C74.9901 43.46 75.0214 43.2407 75.0528 42.99L75.3348 41.58C75.3974 41.3293 75.4444 41.0943 75.4758 40.875C75.5384 40.6557 75.6011 40.4207 75.6638 40.17L76.0868 38.76C76.6821 36.9113 77.3714 35.0157 78.1548 33.073C78.5621 32.133 78.9538 31.193 79.3298 30.253C79.7371 29.313 80.1444 28.3887 80.5518 27.48C80.9904 26.5713 81.3978 25.6783 81.7738 24.801C82.1811 23.9237 82.5884 23.0777 82.9958 22.263C83.7791 20.6023 84.5154 19.0827 85.2048 17.704C85.8941 16.294 86.5051 15.0877 87.0378 14.085C87.5391 13.051 87.9621 12.252 88.3068 11.688L88.7298 10.842ZM118.152 5.531C118.214 5.155 118.167 4.779 118.011 4.403C117.854 3.99567 117.635 3.651 117.353 3.369C117.196 3.21233 117.024 3.087 116.836 2.993C116.679 2.86766 116.522 2.758 116.366 2.664C115.958 2.44466 115.598 2.31933 115.285 2.288C114.94 2.194 114.611 2.13133 114.298 2.1C113.984 2.06866 113.718 2.053 113.499 2.053H112.982H112.841H112.794C112.919 2.08433 113.044 2.11566 113.17 2.147C113.295 2.147 113.42 2.16266 113.546 2.194L114.251 2.335C114.501 2.39767 114.721 2.46033 114.909 2.523C115.128 2.58567 115.332 2.64833 115.52 2.711C115.708 2.805 115.88 2.899 116.037 2.993C116.225 3.05567 116.397 3.134 116.554 3.228C116.71 3.322 116.851 3.416 116.977 3.51C117.102 3.604 117.212 3.71366 117.306 3.839C117.525 4.05833 117.682 4.27767 117.776 4.497C117.87 4.685 117.948 4.85733 118.011 5.014C118.042 5.108 118.058 5.18633 118.058 5.249C118.089 5.28033 118.105 5.32733 118.105 5.39C118.105 5.42133 118.12 5.45267 118.152 5.484V5.531ZM89.6007 22.686C89.6947 22.4353 89.7887 22.1847 89.8827 21.934C89.9767 21.652 90.0551 21.417 90.1177 21.229C90.2117 21.0097 90.3057 20.7903 90.3997 20.571C90.4624 20.383 90.5877 20.1637 90.7757 19.913C90.9637 19.6623 91.2301 19.584 91.5747 19.678C91.7627 19.7093 92.0134 19.819 92.3267 20.007C92.6401 20.1637 92.9221 20.3987 93.1727 20.712C93.4547 21.0253 93.6427 21.4327 93.7367 21.934C93.8307 22.4353 93.7681 23.0307 93.5487 23.72C93.3294 24.3153 93.0944 24.9107 92.8437 25.506C92.6244 26.1013 92.4051 26.681 92.1857 27.245C91.5277 29.0623 91.1204 30.4723 90.9637 31.475C90.8071 32.4777 90.8541 33.073 91.1047 33.261H91.1517C91.2771 33.3237 91.3711 33.4177 91.4337 33.543C91.5591 33.7937 91.5591 34.0443 91.4337 34.295C91.3397 34.4517 91.1674 34.5927 90.9167 34.718C90.6974 34.8433 90.4467 34.9373 90.1647 35C89.8827 35.0313 89.5851 35.0157 89.2717 34.953C88.9897 34.8903 88.7234 34.765 88.4727 34.577C88.3474 34.5143 88.2221 34.4203 88.0967 34.295C88.0027 34.1383 87.9244 33.9817 87.8617 33.825C87.7677 33.6683 87.6894 33.496 87.6267 33.308C87.5327 33.0573 87.4544 32.8067 87.3917 32.556C87.3604 32.3053 87.3291 32.086 87.2977 31.898C87.2664 31.6787 87.2664 31.475 87.2977 31.287C87.2977 30.7543 87.3761 30.1277 87.5327 29.407C87.6894 28.6863 87.8774 27.95 88.0967 27.198C88.3161 26.4147 88.5511 25.6313 88.8017 24.848C89.0837 24.0647 89.3501 23.344 89.6007 22.686ZM89.9297 24.848C90.1804 24.0647 90.3997 23.391 90.5877 22.827C90.8071 22.263 90.9794 21.7147 91.1047 21.182C90.5094 22.4667 90.0081 23.7043 89.6007 24.895C89.2561 25.8977 88.9427 26.9473 88.6607 28.044C88.4101 29.1407 88.3474 30.065 88.4727 30.817C88.5981 30.2217 88.7234 29.595 88.8487 28.937C88.9741 28.373 89.1151 27.7463 89.2717 27.057C89.4597 26.3363 89.6791 25.6 89.9297 24.848ZM96.8387 13.145C97.1521 13.3017 97.3557 13.4897 97.4497 13.709C97.5437 13.9283 97.5594 14.1477 97.4967 14.367C97.4654 14.5237 97.3871 14.696 97.2617 14.884C97.1991 14.978 97.1364 15.0563 97.0737 15.119C96.6351 15.6203 96.2591 16.153 95.9457 16.717C95.6324 17.2497 95.3974 17.657 95.2407 17.939C95.1781 18.033 95.0841 18.174 94.9587 18.362C94.8647 18.55 94.7394 18.738 94.5827 18.926C94.4261 19.0827 94.2537 19.2237 94.0657 19.349C93.8777 19.443 93.6741 19.4587 93.4547 19.396C92.8594 19.0827 92.4364 18.738 92.1857 18.362C92.0917 18.2367 92.0447 18.0487 92.0447 17.798C92.0761 17.5473 92.1074 17.2967 92.1387 17.046C92.2014 16.7953 92.2641 16.576 92.3267 16.388C92.3894 16.1687 92.4364 16.0277 92.4677 15.965C92.5304 15.7143 92.5774 15.5263 92.6087 15.401C92.6714 15.2757 92.7341 15.1503 92.7967 15.025C92.9847 14.4923 93.2511 14.0693 93.5957 13.756C93.9404 13.4427 94.3007 13.2233 94.6767 13.098C95.0841 12.9413 95.4757 12.8787 95.8517 12.91C96.2277 12.9413 96.5567 13.0197 96.8387 13.145ZM92.7027 17.469C92.8907 16.905 93.1101 16.4037 93.3607 15.965C93.6427 15.495 93.9091 15.0877 94.1597 14.743C94.4417 14.367 94.7237 14.0223 95.0057 13.709C94.5671 13.7717 94.2067 14.0067 93.9247 14.414C93.6427 14.8213 93.4077 15.2443 93.2197 15.683C93.0004 16.247 92.8281 16.8423 92.7027 17.469ZM97.5731 35.188C97.5418 35.2507 97.5104 35.329 97.4791 35.423C97.4164 35.5797 97.3381 35.705 97.2441 35.799C97.1188 35.9557 96.9778 36.0497 96.8211 36.081C96.6958 36.1437 96.5704 36.1907 96.4451 36.222C96.3198 36.2533 96.1788 36.269 96.0221 36.269C95.5834 36.2377 95.2388 36.1123 94.9881 35.893C94.7374 35.6737 94.5338 35.4073 94.3771 35.094C94.2204 34.7807 94.1108 34.436 94.0481 34.06C93.9854 33.684 93.9541 33.3237 93.9541 32.979C93.9854 31.8197 94.2204 30.3627 94.6591 28.608C94.8158 27.9813 95.0194 27.2763 95.2701 26.493C95.5208 25.6783 95.8028 24.848 96.1161 24.002C96.4608 23.1247 96.8368 22.2473 97.2441 21.37C97.6514 20.4613 98.0901 19.584 98.5601 18.738C98.9361 18.0173 99.3904 17.2967 99.9231 16.576C100.487 15.8553 101.192 15.3383 102.038 15.025C102.571 14.7743 103.103 14.7273 103.636 14.884C104.169 15.0407 104.513 15.307 104.67 15.683C104.764 15.9337 104.748 16.1373 104.623 16.294C104.56 16.388 104.498 16.4507 104.435 16.482C103.902 17.0773 103.354 17.8607 102.79 18.832C102.289 19.6467 101.725 20.6963 101.098 21.981C100.471 23.2657 99.8291 24.8323 99.1711 26.681C99.2338 26.5243 99.2964 26.3833 99.3591 26.258C99.4218 26.1327 99.4844 25.9917 99.5471 25.835C100.424 24.0177 101.239 22.545 101.991 21.417C102.774 20.2577 103.479 19.349 104.106 18.691C104.733 18.033 105.265 17.5787 105.704 17.328C106.174 17.046 106.55 16.8737 106.832 16.811C106.957 16.7797 107.098 16.764 107.255 16.764C107.443 16.7327 107.662 16.7483 107.913 16.811C108.07 16.8423 108.226 16.905 108.383 16.999C108.508 17.0617 108.634 17.1713 108.759 17.328C108.916 17.4533 109.041 17.6257 109.135 17.845C109.542 18.691 109.527 19.866 109.088 21.37C109.997 19.8973 110.827 18.8007 111.579 18.08C112.331 17.328 112.973 16.7953 113.506 16.482C114.133 16.1373 114.697 15.9807 115.198 16.012C115.762 16.106 116.185 16.3723 116.467 16.811C116.718 17.2183 116.827 17.8293 116.796 18.644C116.796 19.4587 116.498 20.6493 115.903 22.216C115.59 22.9993 115.261 23.8297 114.916 24.707C114.571 25.553 114.242 26.3677 113.929 27.151C113.396 28.655 113.036 29.8927 112.848 30.864C112.66 31.804 112.597 32.462 112.66 32.838L112.754 33.261C112.785 33.449 112.801 33.6683 112.801 33.919C112.801 34.1697 112.754 34.4047 112.66 34.624C112.597 34.8433 112.472 35.0157 112.284 35.141C112.127 35.2663 111.877 35.2977 111.532 35.235C111.25 35.141 110.984 35.0157 110.733 34.859C110.482 34.7023 110.279 34.5143 110.122 34.295C109.871 33.9817 109.699 33.6057 109.605 33.167C109.542 32.697 109.511 32.2583 109.511 31.851C109.511 31.381 109.542 30.8953 109.605 30.394C109.824 28.6393 110.185 27.01 110.686 25.506C111.187 24.002 111.642 22.7957 112.049 21.887C112.456 20.9783 112.754 20.289 112.942 19.819C113.161 19.349 113.161 19.0513 112.942 18.926C112.848 18.8947 112.723 18.926 112.566 19.02C112.441 19.0827 112.237 19.302 111.955 19.678C111.673 20.054 111.266 20.6337 110.733 21.417C110.232 22.169 109.542 23.203 108.665 24.519C107.788 25.8663 107.083 27.1197 106.55 28.279C106.049 29.407 105.657 30.394 105.375 31.24C105.03 32.2427 104.795 33.1513 104.67 33.966C104.639 34.2793 104.529 34.4987 104.341 34.624C104.184 34.7493 103.996 34.8277 103.777 34.859C103.526 34.9217 103.244 34.9217 102.931 34.859C102.461 34.765 102.101 34.5927 101.85 34.342C101.599 34.06 101.411 33.7623 101.286 33.449C101.192 33.1043 101.145 32.7753 101.145 32.462C101.176 32.1173 101.208 31.8353 101.239 31.616C101.427 30.582 101.772 29.4227 102.273 28.138C102.774 26.8533 103.276 25.647 103.777 24.519C104.31 23.391 104.78 22.4353 105.187 21.652C105.594 20.8373 105.814 20.3673 105.845 20.242C105.908 20.0853 105.892 19.9913 105.798 19.96C105.735 19.9287 105.563 20.054 105.281 20.336C104.999 20.618 104.607 21.1037 104.106 21.793C103.605 22.4823 102.962 23.4537 102.179 24.707C101.521 25.741 100.941 26.775 100.44 27.809C99.9388 28.843 99.5001 29.83 99.1241 30.77C98.7481 31.6787 98.4348 32.5247 98.1841 33.308C97.9334 34.06 97.7298 34.6867 97.5731 35.188ZM95.3171 30.206C95.9124 28.3887 96.5391 26.6183 97.1971 24.895C97.4791 24.1743 97.7768 23.4223 98.0901 22.639C98.4348 21.8557 98.7794 21.1037 99.1241 20.383C99.4688 19.631 99.8134 18.926 100.158 18.268C100.534 17.61 100.91 17.0147 101.286 16.482C100.503 17.328 99.7508 18.3933 99.0301 19.678C98.4034 20.7747 97.7454 22.2003 97.0561 23.955C96.3981 25.6783 95.8184 27.762 95.3171 30.206ZM103.025 29.971C103.401 28.937 103.793 27.903 104.2 26.869C104.545 25.9603 104.921 25.0047 105.328 24.002C105.735 22.968 106.143 22.028 106.55 21.182C105.923 22.1847 105.359 23.203 104.858 24.237C104.419 25.1143 104.012 26.07 103.636 27.104C103.291 28.1067 103.088 29.0623 103.025 29.971ZM114.54 22.263C114.289 22.8897 114.086 23.4537 113.929 23.955C113.804 24.425 113.71 24.8323 113.647 25.177C113.553 25.5843 113.49 25.9447 113.459 26.258C113.71 25.412 114.039 24.5347 114.446 23.626C114.853 22.686 115.229 21.6677 115.574 20.571C115.731 20.0383 115.809 19.6153 115.809 19.302C115.84 18.9573 115.825 18.6753 115.762 18.456C115.699 18.2053 115.605 18.0173 115.48 17.892C115.574 18.6127 115.527 19.2863 115.339 19.913C115.182 20.5083 114.916 21.2917 114.54 22.263ZM128.587 26.963C128.932 26.9943 129.12 27.3077 129.151 27.903C129.214 28.467 129.135 29.078 128.916 29.736C128.665 30.4253 128.305 31.1147 127.835 31.804C127.396 32.462 126.832 33.0573 126.143 33.59C125.485 34.0913 124.702 34.483 123.793 34.765C122.916 35.047 121.929 35.141 120.832 35.047C119.798 34.953 118.889 34.6397 118.106 34.107C117.448 33.6683 116.853 33.0103 116.32 32.133C115.819 31.2243 115.646 29.9397 115.803 28.279C115.897 27.2137 116.148 26.1327 116.555 25.036C116.9 24.096 117.417 23.0933 118.106 22.028C118.827 20.9313 119.814 19.8973 121.067 18.926C121.662 18.4873 122.273 18.1113 122.9 17.798C123.433 17.5473 124.012 17.3593 124.639 17.234C125.266 17.0773 125.845 17.1243 126.378 17.375C127.318 17.7823 127.882 18.3933 128.07 19.208C128.258 20.0227 128.211 20.759 127.929 21.417C127.772 21.7617 127.553 22.1847 127.271 22.686C127.02 23.156 126.613 23.6573 126.049 24.19C125.516 24.7227 124.78 25.2553 123.84 25.788C122.9 26.3207 121.694 26.7907 120.221 27.198C119.845 28.2007 119.61 29.1093 119.516 29.924C119.453 30.6447 119.5 31.334 119.657 31.992C119.845 32.6187 120.331 33.0573 121.114 33.308C121.866 33.5587 122.571 33.5587 123.229 33.308C123.918 33.0573 124.529 32.6813 125.062 32.18C125.626 31.6787 126.096 31.099 126.472 30.441C126.879 29.783 127.177 29.172 127.365 28.608C127.428 28.4827 127.49 28.326 127.553 28.138C127.647 27.95 127.741 27.762 127.835 27.574C127.96 27.386 128.086 27.245 128.211 27.151C128.336 27.0257 128.462 26.963 128.587 26.963ZM125.344 22.451C125.532 22.2003 125.642 21.9497 125.673 21.699C125.736 21.4483 125.704 21.2447 125.579 21.088C125.485 20.9313 125.297 20.853 125.015 20.853C124.733 20.853 124.388 20.9783 123.981 21.229C123.574 21.4797 123.166 21.8243 122.759 22.263C122.383 22.6703 122.054 23.0777 121.772 23.485C121.49 23.8923 121.255 24.2527 121.067 24.566C120.91 24.848 120.863 24.989 120.926 24.989C121.177 24.989 121.506 24.9107 121.913 24.754C122.352 24.5973 122.775 24.3937 123.182 24.143C123.621 23.861 124.028 23.579 124.404 23.297C124.811 22.9837 125.125 22.7017 125.344 22.451ZM116.837 27.997C117.119 27.0883 117.495 26.1797 117.965 25.271C118.372 24.4877 118.874 23.6573 119.469 22.78C120.096 21.9027 120.848 21.1037 121.725 20.383C122.916 19.4117 123.887 18.8163 124.639 18.597C125.422 18.3777 126.018 18.3463 126.425 18.503C126.3 18.3777 126.159 18.2523 126.002 18.127C125.657 17.9077 125.187 17.845 124.592 17.939C124.216 18.0017 123.668 18.2523 122.947 18.691C122.258 19.1297 121.521 19.7563 120.738 20.571C119.955 21.3857 119.203 22.4197 118.482 23.673C117.793 24.895 117.244 26.3363 116.837 27.997Z" fill="white"/>
</svg>
