<svg width="51" height="21" viewBox="0 0 51 21" fill="none" xmlns="http://www.w3.org/2000/svg">
<path d="M9.49692 2.15997C9.54802 2.0961 9.59912 2.03222 9.65022 1.96835C9.75241 1.85338 9.86099 1.7448 9.97596 1.64261C10.1165 1.52764 10.2953 1.41267 10.5125 1.2977C10.7424 1.18273 11.0043 1.13163 11.2981 1.14441C11.4003 1.14441 11.4961 1.15718 11.5855 1.18273C11.6622 1.20828 11.7324 1.2466 11.7963 1.2977C11.8602 1.33602 11.9049 1.39989 11.9304 1.48931C12.6203 1.32325 13.3165 1.17634 14.019 1.0486C14.7216 0.908081 15.3987 0.805886 16.0502 0.742014C16.7017 0.678142 17.3148 0.658981 17.8897 0.68453C18.4645 0.697304 18.9691 0.761176 19.4034 0.876145C19.8378 0.991115 20.1827 1.16357 20.4382 1.39351C20.7064 1.62345 20.8533 1.91726 20.8789 2.27494C20.8789 2.38991 20.8725 2.50488 20.8597 2.61985C20.8342 2.72204 20.8022 2.82423 20.7639 2.92643C20.7384 3.02862 20.6873 3.13082 20.6106 3.23302C20.534 3.33521 20.4382 3.39269 20.3232 3.40547C20.221 3.40547 20.0996 3.33521 19.9591 3.19469C19.8442 3.07972 19.5503 2.96475 19.0777 2.84978C18.605 2.72204 17.9663 2.63901 17.1615 2.60068C16.3695 2.56236 15.4242 2.58791 14.3256 2.67733C13.2398 2.76675 12.0199 2.97114 10.6658 3.2905C10.2187 3.92922 9.7588 4.67013 9.28615 5.51324C8.8135 6.34357 8.37917 7.14197 7.98316 7.90843C7.52329 8.80264 7.0698 9.70961 6.62269 10.6294C5.94565 11.9835 5.40274 13.1459 4.99396 14.1168C4.59796 15.0748 4.31053 15.8988 4.13169 16.5886C3.87621 17.5595 3.72291 18.2876 3.67182 18.773C3.62072 19.2712 3.60794 19.6289 3.63349 19.8461C3.67182 20.0632 3.72291 20.1974 3.78679 20.2485C3.85066 20.3123 3.87621 20.389 3.86343 20.4784C3.83788 20.5806 3.79317 20.6572 3.7293 20.7083C3.6782 20.7594 3.62072 20.7978 3.55685 20.8233C3.4802 20.8489 3.40355 20.8616 3.32691 20.8616C3.09697 20.8489 2.91174 20.7722 2.77122 20.6317C2.63071 20.4912 2.52212 20.3123 2.44548 20.0952C2.38161 19.878 2.3369 19.6353 2.31135 19.367C2.29857 19.0988 2.29857 18.8241 2.31135 18.5431C2.34967 17.8916 2.47103 17.1571 2.67542 16.3395C2.87981 15.3687 3.19916 14.3212 3.63349 13.197C4.0806 12.0601 4.57241 10.936 5.10893 9.82458C5.64545 8.70044 6.20114 7.62739 6.77599 6.60545C7.35083 5.5835 7.86819 4.69568 8.32807 3.94199C7.08896 4.40187 6.05423 4.85536 5.2239 5.30246C4.40634 5.73679 3.74207 6.16473 3.2311 6.58628C2.7329 6.99506 2.36244 7.39107 2.11973 7.7743C1.88979 8.14476 1.74289 8.50244 1.67902 8.84735C1.61514 9.17948 1.60876 9.49245 1.65985 9.78626C1.72373 10.0673 1.80037 10.3228 1.88979 10.5527C1.97921 10.7699 2.05586 10.9551 2.11973 11.1084C2.1836 11.2617 2.18999 11.3767 2.13889 11.4533C2.0367 11.5938 1.88979 11.6513 1.69818 11.6258C1.51934 11.6002 1.35966 11.53 1.21914 11.415C1.11694 11.3383 1.03391 11.2489 0.970039 11.1467C0.906167 11.0445 0.855069 10.9487 0.816746 10.8593C0.765649 10.7571 0.727326 10.6485 0.701777 10.5336C0.510162 9.86929 0.471839 9.24974 0.586808 8.67489C0.701777 8.10005 0.918941 7.56352 1.2383 7.06532C1.57043 6.55435 1.9856 6.08808 2.4838 5.66653C2.982 5.24498 3.51214 4.86175 4.07421 4.51684C4.64905 4.17193 5.23667 3.86535 5.83707 3.59708C6.43746 3.32882 7.00592 3.0925 7.54245 2.88811C7.55522 2.87533 7.56161 2.86894 7.56161 2.86894C7.57438 2.86894 7.58716 2.86256 7.59993 2.84978C7.88097 2.73481 8.18116 2.61984 8.50052 2.50488C8.81988 2.38991 9.15202 2.27494 9.49692 2.15997ZM5.70294 4.2869C5.72849 4.27412 5.74765 4.26774 5.76042 4.26774C5.78597 4.25496 5.81152 4.24219 5.83707 4.22941C5.87539 4.20387 5.9201 4.17832 5.9712 4.15277C6.0734 4.11445 6.16282 4.07612 6.23946 4.0378C6.32888 3.9867 6.41192 3.94199 6.48856 3.90367C7.15283 3.59708 7.67019 3.36715 8.04065 3.21385C8.14284 3.17553 8.22587 3.14359 8.28975 3.11804C8.35362 3.0925 8.4111 3.06695 8.4622 3.0414C8.48775 3.02862 8.50691 3.02224 8.51969 3.02224C8.54523 3.02224 8.5644 3.01585 8.57717 3.00308C8.58994 3.00308 8.60272 2.99669 8.61549 2.98391C8.48775 3.00946 8.38555 3.03501 8.30891 3.06056C8.28336 3.07334 8.25781 3.07972 8.23226 3.07972C8.20671 3.07972 8.18116 3.08611 8.15562 3.09888C8.13007 3.11166 8.10452 3.11804 8.07897 3.11804C8.02787 3.14359 8.00232 3.15637 8.00232 3.15637C7.90013 3.18192 7.79155 3.21385 7.67658 3.25218C7.57438 3.27772 7.47219 3.30966 7.36999 3.34798C7.15283 3.42463 6.93566 3.50766 6.7185 3.59708C6.50134 3.67373 6.28417 3.75676 6.06701 3.84618L5.91372 3.92283C5.88817 3.9356 5.86262 3.94838 5.83707 3.96115C5.81152 3.97393 5.78597 3.9867 5.76042 3.99948C5.69655 4.02503 5.63907 4.05057 5.58797 4.07612C5.54965 4.10167 5.49855 4.12722 5.43468 4.15277C5.33248 4.19109 5.23029 4.24219 5.12809 4.30606C5.10254 4.31884 5.077 4.33161 5.05145 4.34438C5.0259 4.35716 5.00035 4.36993 4.9748 4.38271C4.94925 4.40826 4.89815 4.4338 4.82151 4.45935C4.62989 4.57432 4.43828 4.68929 4.24666 4.80426C4.06782 4.91923 3.88898 5.0342 3.71014 5.14917C3.5313 5.27691 3.36523 5.39827 3.21194 5.51324C3.07142 5.62821 2.9309 5.74956 2.79038 5.87731C2.66264 5.99228 2.54128 6.10725 2.42632 6.22221C2.32412 6.32441 2.22831 6.4266 2.13889 6.5288C2.04947 6.63099 1.97283 6.72041 1.90895 6.79706C1.85786 6.87371 1.80676 6.94397 1.75566 7.00784C1.73011 7.04616 1.70456 7.09087 1.67902 7.14197C1.66624 7.15474 1.65985 7.16752 1.65985 7.18029C1.65985 7.19307 1.65347 7.19945 1.64069 7.19945C1.66624 7.16113 1.69179 7.12919 1.71734 7.10365C1.74289 7.06532 1.76844 7.03339 1.79399 7.00784C1.80676 6.99506 1.81315 6.98229 1.81315 6.96952C1.82592 6.95674 1.8387 6.94397 1.85147 6.93119L1.92812 6.85455C1.99199 6.79067 2.04308 6.73319 2.08141 6.68209C2.13251 6.63099 2.18999 6.5799 2.25386 6.5288C2.45825 6.34996 2.67542 6.17112 2.90535 5.99228C3.12252 5.81343 3.33968 5.65376 3.55685 5.51324C3.77401 5.37272 3.99117 5.23859 4.20834 5.11085C4.4255 4.9831 4.62989 4.86813 4.82151 4.76594C5.0259 4.65097 5.2239 4.54239 5.41552 4.44019C5.46661 4.40187 5.51771 4.37632 5.56881 4.36354C5.59436 4.35077 5.61352 4.338 5.62629 4.32522C5.65184 4.31245 5.67739 4.29967 5.70294 4.2869ZM8.51969 4.65097C7.94484 5.57072 7.40832 6.47131 6.91012 7.35275C6.65463 7.78707 6.4183 8.21501 6.20114 8.63657C5.98397 9.05812 5.7732 9.47329 5.56881 9.88207C4.76402 11.5044 4.14447 12.9479 3.71014 14.2126C3.60794 14.5319 3.51214 14.8321 3.42272 15.1132C3.3333 15.3942 3.25665 15.6625 3.19278 15.918C3.16723 16.0457 3.14168 16.1671 3.11613 16.282C3.09058 16.397 3.06503 16.512 3.03948 16.6269C3.02671 16.678 3.01394 16.7291 3.00116 16.7802C3.00116 16.8313 2.99477 16.8824 2.982 16.9335C2.982 16.9591 2.97561 16.9782 2.96284 16.991C2.96284 17.0165 2.96284 17.0421 2.96284 17.0676C2.96284 17.0932 2.95645 17.1187 2.94368 17.1443C2.94368 17.1698 2.94368 17.1954 2.94368 17.2209C2.91813 17.3998 2.89897 17.5531 2.88619 17.6808C2.88619 17.8213 2.88619 17.9363 2.88619 18.0257V18.2365V18.3131C2.89897 18.211 2.90535 18.1151 2.90535 18.0257C2.91813 17.9491 2.9309 17.8597 2.94368 17.7575L3.05865 17.1826C3.0842 17.0804 3.10336 16.9846 3.11613 16.8952C3.14168 16.8058 3.16723 16.71 3.19278 16.6078L3.36523 16.0329C3.60794 15.2792 3.88898 14.5064 4.20834 13.7144C4.37441 13.3311 4.53409 12.9479 4.68738 12.5647C4.85344 12.1815 5.01951 11.8046 5.18558 11.4342C5.36442 11.0637 5.53049 10.6996 5.68378 10.3419C5.84984 9.98426 6.01591 9.63936 6.18198 9.30722C6.50134 8.63018 6.80153 8.01063 7.08257 7.44855C7.36361 6.87371 7.61271 6.38189 7.82987 5.97311C8.03426 5.55156 8.20671 5.22581 8.34723 4.99588L8.51969 4.65097ZM20.5148 2.48571C20.5404 2.33242 20.5212 2.17913 20.4573 2.02584C20.3935 1.85977 20.304 1.71925 20.1891 1.60428C20.1252 1.54041 20.0549 1.48931 19.9783 1.45099C19.9144 1.39989 19.8505 1.35518 19.7867 1.31686C19.6206 1.22744 19.4737 1.17634 19.346 1.16357C19.2054 1.12524 19.0713 1.0997 18.9436 1.08692C18.8158 1.07415 18.7072 1.06776 18.6178 1.06776H18.407H18.3496H18.3304C18.3815 1.08053 18.4326 1.09331 18.4837 1.10608C18.5348 1.10608 18.5859 1.11247 18.637 1.12525L18.9244 1.18273C19.0266 1.20828 19.116 1.23383 19.1927 1.25938C19.2821 1.28492 19.3651 1.31047 19.4418 1.33602C19.5184 1.37435 19.5887 1.41267 19.6525 1.45099C19.7292 1.47654 19.7994 1.50848 19.8633 1.5468C19.9272 1.58512 19.9847 1.62345 20.0358 1.66177C20.0869 1.70009 20.1316 1.7448 20.1699 1.7959C20.2593 1.88532 20.3232 1.97474 20.3615 2.06416C20.3998 2.14081 20.4318 2.21107 20.4573 2.27494C20.4701 2.31326 20.4765 2.3452 20.4765 2.37075C20.4893 2.38352 20.4956 2.40268 20.4956 2.42823C20.4956 2.441 20.502 2.45378 20.5148 2.46655V2.48571ZM12.8119 11.2234C12.9524 11.2362 13.029 11.3639 13.0418 11.6066C13.0674 11.8365 13.0354 12.0856 12.946 12.3539C12.8438 12.6349 12.6969 12.916 12.5053 13.197C12.3264 13.4653 12.0965 13.708 11.8155 13.9252C11.5472 14.1295 11.2278 14.2892 10.8574 14.4042C10.4997 14.5192 10.0973 14.5575 9.65022 14.5192C9.22866 14.4808 8.85821 14.3531 8.53885 14.1359C8.27058 13.9571 8.02787 13.6888 7.81071 13.3311C7.60632 12.9607 7.53606 12.4369 7.59993 11.7599C7.63825 11.3256 7.74045 10.8849 7.90652 10.4378C8.04703 10.0545 8.25781 9.64574 8.53885 9.21141C8.83266 8.76431 9.23505 8.34276 9.74602 7.94675C9.98874 7.76791 10.2378 7.61462 10.4933 7.48688C10.7105 7.38468 10.9468 7.30804 11.2023 7.25694C11.4578 7.19307 11.6941 7.21223 11.9113 7.31442C12.2945 7.48049 12.5244 7.72959 12.6011 8.06172C12.6777 8.39386 12.6586 8.69405 12.5436 8.96232C12.4797 9.10283 12.3903 9.27529 12.2753 9.47968C12.1732 9.67129 12.0071 9.87568 11.7771 10.0928C11.56 10.31 11.2598 10.5272 10.8766 10.7443C10.4933 10.9615 10.0015 11.1531 9.40112 11.3192C9.24782 11.728 9.15202 12.0984 9.11369 12.4306C9.08814 12.7244 9.10731 13.0054 9.17118 13.2737C9.24782 13.5291 9.44583 13.708 9.76519 13.8102C10.0718 13.9124 10.3592 13.9124 10.6275 13.8102C10.9085 13.708 11.1576 13.5547 11.3748 13.3503C11.6047 13.1459 11.7963 12.9096 11.9496 12.6413C12.1157 12.3731 12.237 12.124 12.3137 11.894C12.3392 11.8429 12.3648 11.7791 12.3903 11.7024C12.4286 11.6258 12.467 11.5491 12.5053 11.4725C12.5564 11.3958 12.6075 11.3383 12.6586 11.3C12.7097 11.2489 12.7608 11.2234 12.8119 11.2234ZM11.4897 9.38387C11.5664 9.28167 11.6111 9.17948 11.6239 9.07728C11.6494 8.97509 11.6366 8.89206 11.5855 8.82818C11.5472 8.76431 11.4706 8.73238 11.3556 8.73238C11.2406 8.73238 11.1001 8.78347 10.934 8.88567C10.768 8.98786 10.6019 9.12838 10.4358 9.30722C10.2825 9.47329 10.1484 9.63936 10.0334 9.80542C9.91848 9.97149 9.82267 10.1184 9.74602 10.2461C9.68215 10.3611 9.66299 10.4186 9.68854 10.4186C9.79073 10.4186 9.92486 10.3867 10.0909 10.3228C10.2698 10.2589 10.4422 10.1759 10.6083 10.0737C10.7871 9.95872 10.9532 9.84375 11.1065 9.72878C11.2726 9.60103 11.4003 9.48606 11.4897 9.38387ZM8.02148 11.6449C8.13645 11.2745 8.28975 10.904 8.48136 10.5336C8.64743 10.2142 8.85182 9.87568 9.09453 9.518C9.35002 9.16032 9.6566 8.83457 10.0143 8.54076C10.4997 8.14476 10.8957 7.90204 11.2023 7.81262C11.5217 7.7232 11.7644 7.71043 11.9304 7.7743C11.8793 7.7232 11.8219 7.6721 11.758 7.62101C11.6175 7.53159 11.4259 7.50604 11.1831 7.54436C11.0298 7.56991 10.8063 7.6721 10.5125 7.85095C10.2314 8.02979 9.93125 8.28527 9.61189 8.61741C9.29253 8.94954 8.98595 9.37109 8.69214 9.88207C8.4111 10.3803 8.18755 10.9679 8.02148 11.6449ZM18.2514 6.79706C18.5324 7.06532 18.6857 7.35275 18.7112 7.65933C18.7496 7.96591 18.7112 8.26611 18.5963 8.55992C18.5452 8.66212 18.4877 8.75154 18.4238 8.82818C18.3599 8.89206 18.2897 8.94954 18.213 9.00064C18.1364 9.05174 18.047 9.06451 17.9448 9.03896C17.8553 9.01341 17.7787 8.95593 17.7148 8.86651C17.651 8.76431 17.651 8.63018 17.7148 8.46411C17.7404 8.36192 17.7659 8.2725 17.7915 8.19585C17.817 8.11921 17.8362 8.04895 17.849 7.98508C17.8617 7.9212 17.8745 7.85733 17.8873 7.79346C17.5679 8.04895 17.2613 8.38108 16.9675 8.78986C16.6737 9.19864 16.4055 9.64574 16.1627 10.1312C15.92 10.6166 15.7029 11.1084 15.5113 11.6066C15.3196 12.1048 15.1727 12.5647 15.0705 12.9862C14.9683 13.4078 14.9109 13.7655 14.8981 14.0593C14.8853 14.3531 14.9364 14.5319 15.0514 14.5958C15.2047 14.6852 15.4154 14.6533 15.6837 14.5C15.952 14.3595 16.2202 14.1743 16.4885 13.9443C16.7568 13.7144 16.9931 13.4844 17.1975 13.2545C17.4146 13.0118 17.5488 12.8521 17.5999 12.7755C17.6637 12.6988 17.7276 12.6541 17.7915 12.6413C17.8681 12.6286 17.932 12.6541 17.9831 12.718C18.0342 12.7946 18.047 12.884 18.0214 12.9862L17.9831 13.1395C17.9448 13.2673 17.8553 13.4333 17.7148 13.6377C17.5871 13.8421 17.4274 14.0465 17.2358 14.2509C17.0442 14.4553 16.8334 14.6469 16.6035 14.8257C16.3863 15.0174 16.1627 15.1579 15.9328 15.2473C15.5751 15.3878 15.2685 15.4581 15.0131 15.4581C14.7703 15.4581 14.5596 15.4261 14.3807 15.3623C14.1763 15.2984 14.0039 15.1962 13.8634 15.0557C13.6079 14.813 13.4354 14.5064 13.346 14.1359C13.2694 13.7527 13.2502 13.3375 13.2885 12.8904C13.3396 12.4306 13.4354 11.9579 13.5759 11.4725C13.7292 10.9871 13.9081 10.5208 14.1125 10.0737C14.3296 9.61381 14.5532 9.19225 14.7831 8.80902C15.0258 8.41302 15.2622 8.08088 15.4921 7.81262C15.7987 7.44217 16.118 7.14197 16.4502 6.91203C16.7312 6.72041 17.025 6.59267 17.3316 6.5288C17.651 6.45215 17.9575 6.54157 18.2514 6.79706ZM13.7867 13.4078C13.9656 12.5391 14.1955 11.7535 14.4765 11.0509C14.7576 10.3356 15.0322 9.72239 15.3005 9.21141C15.6198 8.61102 15.952 8.0745 16.2969 7.60185C15.6965 8.18947 15.2302 8.8218 14.8981 9.49884C14.5659 10.1631 14.3168 10.789 14.1508 11.3767C13.9592 12.0665 13.8378 12.7435 13.7867 13.4078ZM21.5417 2.86894C21.7078 2.47294 21.9058 2.13442 22.1358 1.85338C22.3274 1.61067 22.5637 1.40628 22.8447 1.24021C23.1258 1.06137 23.4451 1.02305 23.8028 1.12525C23.9433 1.16357 24.0775 1.24021 24.2052 1.35518C24.3074 1.45738 24.3968 1.5979 24.4735 1.77674C24.5629 1.9428 24.6076 2.16636 24.6076 2.44739C24.5948 2.60068 24.5693 2.77314 24.5309 2.96475C24.5054 3.15637 24.4607 3.36715 24.3968 3.59708C24.2691 4.01864 24.0838 4.47851 23.8411 4.97671C23.5984 5.46214 23.3174 5.94118 22.998 6.41383C22.6787 6.88648 22.3274 7.3272 21.9441 7.73598C21.5609 8.14476 21.1585 8.47689 20.737 8.73238C20.5198 9.34555 20.3282 9.914 20.1621 10.4378C19.9961 10.9615 19.8555 11.4342 19.7406 11.8557C19.945 11.498 20.1877 11.0956 20.4687 10.6485C20.7625 10.1887 21.0691 9.7671 21.3885 9.38387C21.7206 8.98786 22.0527 8.66212 22.3849 8.40663C22.7298 8.15114 23.0555 8.02979 23.3621 8.04256C23.6176 8.06811 23.8156 8.17669 23.9561 8.36831C24.0711 8.53437 24.1349 8.78986 24.1477 9.13477C24.1605 9.47968 24.0455 9.97788 23.8028 10.6294C23.6878 10.9487 23.5537 11.2872 23.4004 11.6449C23.2471 11.9898 23.113 12.322 22.998 12.6413C22.7298 13.395 22.5637 13.9763 22.4998 14.385C22.436 14.7938 22.4551 15.0301 22.5573 15.094C22.5701 15.1068 22.5829 15.1132 22.5956 15.1132C22.634 15.1004 22.6787 15.1004 22.7298 15.1132C22.7936 15.1259 22.8575 15.1643 22.9214 15.2281C22.9725 15.2792 23.0044 15.3367 23.0172 15.4006C23.0427 15.4772 23.0236 15.5667 22.9597 15.6689C22.8575 15.8094 22.7298 15.8988 22.5765 15.9371C22.436 15.9754 22.2954 15.9818 22.1549 15.9563C22.0144 15.9307 21.8803 15.8796 21.7525 15.803C21.6248 15.7391 21.5226 15.6561 21.4459 15.5539C21.3437 15.4261 21.2735 15.2665 21.2352 15.0748C21.2096 14.896 21.1968 14.7236 21.1968 14.5575C21.1968 14.3659 21.2096 14.1679 21.2352 13.9635C21.3246 13.2481 21.4715 12.5838 21.6759 11.9707C21.8803 11.3575 22.0655 10.8657 22.2316 10.4952C22.3976 10.1248 22.5126 9.85013 22.5765 9.67129C22.6403 9.47968 22.6467 9.35193 22.5956 9.28806C22.5701 9.26251 22.5318 9.26251 22.4807 9.28806C22.4296 9.30084 22.3785 9.32638 22.3274 9.36471C22.2763 9.4158 22.2124 9.47329 22.1358 9.53716C21.8292 9.83097 21.5162 10.2078 21.1968 10.6677C20.8775 11.1148 20.5837 11.5619 20.3154 12.009C20.0471 12.4433 19.8236 12.8329 19.6448 13.1779C19.4659 13.5228 19.3637 13.7208 19.3382 13.7719C19.2998 13.8868 19.236 13.9571 19.1466 13.9826C19.0699 13.9954 18.9805 13.9826 18.8783 13.9443C18.7889 13.8932 18.6995 13.8293 18.61 13.7527C18.5206 13.6633 18.444 13.5739 18.3801 13.4844C18.3162 13.4078 18.2779 13.3056 18.2651 13.1779C18.2524 13.0501 18.2524 12.916 18.2651 12.7755C18.2779 12.6222 18.3034 12.4561 18.3418 12.2773C18.4312 11.7791 18.5398 11.2745 18.6675 10.7635C18.7953 10.2525 18.9358 9.74155 19.0891 9.23058C19.1274 9.09006 19.1593 8.97509 19.1849 8.88567C19.2232 8.79625 19.2551 8.70683 19.2807 8.61741C19.4723 8.02979 19.6703 7.46133 19.8747 6.91203C20.0791 6.34996 20.2771 5.82621 20.4687 5.34078C20.6731 4.84258 20.8647 4.38271 21.0435 3.96115C21.2352 3.5396 21.4012 3.17553 21.5417 2.86894ZM23.2471 10.6485C23.1449 10.904 23.0619 11.134 22.998 11.3383C22.9469 11.53 22.9086 11.696 22.8831 11.8365C22.8447 12.0026 22.8192 12.1495 22.8064 12.2773C22.9086 11.9324 23.0427 11.5683 23.2088 11.1851C23.3749 10.8018 23.5282 10.393 23.6687 9.95871C23.7326 9.74155 23.7645 9.5691 23.7645 9.44135C23.7773 9.30084 23.7709 9.18587 23.7453 9.09645C23.7198 8.99425 23.6815 8.9176 23.6304 8.86651C23.6559 9.16032 23.6304 9.43497 23.5537 9.69045C23.4898 9.93317 23.3876 10.2525 23.2471 10.6485ZM22.9789 3.57792C22.6595 4.17832 22.3529 4.79787 22.0591 5.43659C21.7781 6.07531 21.5098 6.72041 21.2543 7.37191C21.5865 7.027 21.9314 6.5799 22.289 6.0306C22.6595 5.4813 23.0108 4.79149 23.3429 3.96115C23.4962 3.66734 23.6112 3.40547 23.6878 3.17553C23.7517 2.98391 23.79 2.81785 23.8028 2.67733C23.8284 2.52404 23.7836 2.47933 23.6687 2.5432C23.6304 2.56875 23.5856 2.60707 23.5345 2.65817C23.3557 2.91366 23.2216 3.12443 23.1322 3.2905C23.0811 3.39269 23.03 3.4885 22.9789 3.57792ZM22.0208 2.96475C21.7908 3.36076 21.5609 3.79509 21.331 4.26774C21.1394 4.67652 20.935 5.14278 20.7178 5.66653C20.5134 6.19028 20.341 6.74596 20.2004 7.33358C20.4176 6.80984 20.6412 6.29247 20.8711 5.7815C21.0627 5.3344 21.2607 4.86175 21.4651 4.36354C21.6823 3.86535 21.8675 3.39908 22.0208 2.96475ZM35.1517 2.15997C35.2028 2.0961 35.2539 2.03222 35.305 1.96835C35.4072 1.85338 35.5157 1.7448 35.6307 1.64261C35.7712 1.52764 35.9501 1.41267 36.1672 1.2977C36.3972 1.18273 36.6591 1.13163 36.9529 1.14441C37.0551 1.14441 37.1509 1.15718 37.2403 1.18273C37.3169 1.20828 37.3872 1.2466 37.4511 1.2977C37.5149 1.33602 37.5596 1.39989 37.5852 1.48931C38.275 1.32325 38.9712 1.17634 39.6738 1.0486C40.3764 0.908081 41.0534 0.805886 41.7049 0.742014C42.3564 0.678142 42.9696 0.658981 43.5444 0.68453C44.1193 0.697304 44.6239 0.761176 45.0582 0.876145C45.4925 0.991115 45.8374 1.16357 46.0929 1.39351C46.3612 1.62345 46.5081 1.91726 46.5336 2.27494C46.5336 2.38991 46.5272 2.50488 46.5145 2.61985C46.4889 2.72204 46.457 2.82423 46.4187 2.92643C46.3931 3.02862 46.342 3.13082 46.2654 3.23302C46.1887 3.33521 46.0929 3.39269 45.978 3.40547C45.8758 3.40547 45.7544 3.33521 45.6139 3.19469C45.4989 3.07972 45.2051 2.96475 44.7324 2.84978C44.2598 2.72204 43.6211 2.63901 42.8163 2.60068C42.0243 2.56236 41.079 2.58791 39.9804 2.67733C38.8946 2.76675 37.6746 2.97114 36.3205 3.2905C35.8734 3.92922 35.4136 4.67013 34.9409 5.51324C34.4683 6.34357 34.0339 7.14197 33.6379 7.90843C33.178 8.80264 32.7246 9.70961 32.2774 10.6294C31.6004 11.9835 31.0575 13.1459 30.6487 14.1168C30.2527 15.0748 29.9653 15.8988 29.7864 16.5886C29.531 17.5595 29.3777 18.2876 29.3266 18.773C29.2755 19.2712 29.2627 19.6289 29.2882 19.8461C29.3266 20.0632 29.3777 20.1974 29.4415 20.2485C29.5054 20.3123 29.531 20.389 29.5182 20.4784C29.4926 20.5806 29.4479 20.6572 29.3841 20.7083C29.333 20.7594 29.2755 20.7978 29.2116 20.8233C29.135 20.8489 29.0583 20.8616 28.9817 20.8616C28.7517 20.8489 28.5665 20.7722 28.426 20.6317C28.2855 20.4912 28.1769 20.3123 28.1002 20.0952C28.0364 19.878 27.9917 19.6353 27.9661 19.367C27.9533 19.0988 27.9533 18.8241 27.9661 18.5431C28.0044 17.8916 28.1258 17.1571 28.3302 16.3395C28.5346 15.3687 28.8539 14.3212 29.2882 13.197C29.7354 12.0601 30.2272 10.936 30.7637 9.82458C31.3002 8.70044 31.8559 7.62739 32.4307 6.60545C33.0056 5.5835 33.5229 4.69568 33.9828 3.94199C32.7437 4.40187 31.709 4.85536 30.8787 5.30246C30.0611 5.73679 29.3968 6.16473 28.8859 6.58628C28.3877 6.99506 28.0172 7.39107 27.7745 7.7743C27.5445 8.14476 27.3976 8.50244 27.3338 8.84735C27.2699 9.17948 27.2635 9.49245 27.3146 9.78626C27.3785 10.0673 27.4551 10.3228 27.5445 10.5527C27.634 10.7699 27.7106 10.9551 27.7745 11.1084C27.8384 11.2617 27.8447 11.3767 27.7936 11.4533C27.6915 11.5938 27.5445 11.6513 27.3529 11.6258C27.1741 11.6002 27.0144 11.53 26.8739 11.415C26.7717 11.3383 26.6887 11.2489 26.6248 11.1467C26.5609 11.0445 26.5098 10.9487 26.4715 10.8593C26.4204 10.7571 26.3821 10.6485 26.3565 10.5336C26.1649 9.86929 26.1266 9.24974 26.2416 8.67489C26.3565 8.10005 26.5737 7.56352 26.8931 7.06532C27.2252 6.55435 27.6404 6.08808 28.1386 5.66653C28.6368 5.24498 29.1669 4.86175 29.729 4.51684C30.3038 4.17193 30.8914 3.86535 31.4918 3.59708C32.0922 3.32882 32.6607 3.0925 33.1972 2.88811C33.21 2.87533 33.2164 2.86894 33.2164 2.86894C33.2291 2.86894 33.2419 2.86256 33.2547 2.84978C33.5357 2.73481 33.8359 2.61984 34.1553 2.50488C34.4746 2.38991 34.8068 2.27494 35.1517 2.15997ZM31.3577 4.2869C31.3832 4.27412 31.4024 4.26774 31.4152 4.26774C31.4407 4.25496 31.4663 4.24219 31.4918 4.22941C31.5301 4.20387 31.5749 4.17832 31.626 4.15277C31.7282 4.11445 31.8176 4.07612 31.8942 4.0378C31.9836 3.9867 32.0667 3.94199 32.1433 3.90367C32.8076 3.59708 33.3249 3.36715 33.6954 3.21385C33.7976 3.17553 33.8806 3.14359 33.9445 3.11804C34.0084 3.0925 34.0659 3.06695 34.117 3.0414C34.1425 3.02862 34.1617 3.02224 34.1744 3.02224C34.2 3.02224 34.2192 3.01585 34.2319 3.00308C34.2447 3.00308 34.2575 2.99669 34.2702 2.98391C34.1425 3.00946 34.0403 3.03501 33.9637 3.06056C33.9381 3.07334 33.9126 3.07972 33.887 3.07972C33.8615 3.07972 33.8359 3.08611 33.8104 3.09888C33.7848 3.11166 33.7593 3.11804 33.7337 3.11804C33.6826 3.14359 33.6571 3.15637 33.6571 3.15637C33.5549 3.18192 33.4463 3.21385 33.3313 3.25218C33.2291 3.27772 33.1269 3.30966 33.0247 3.34798C32.8076 3.42463 32.5904 3.50766 32.3733 3.59708C32.1561 3.67373 31.9389 3.75676 31.7218 3.84618L31.5685 3.92283C31.5429 3.9356 31.5174 3.94838 31.4918 3.96115C31.4663 3.97393 31.4407 3.9867 31.4152 3.99948C31.3513 4.02503 31.2938 4.05057 31.2427 4.07612C31.2044 4.10167 31.1533 4.12722 31.0894 4.15277C30.9872 4.19109 30.885 4.24219 30.7828 4.30606C30.7573 4.31884 30.7318 4.33161 30.7062 4.34438C30.6807 4.35716 30.6551 4.36993 30.6296 4.38271C30.604 4.40826 30.5529 4.4338 30.4763 4.45935C30.2846 4.57432 30.093 4.68929 29.9014 4.80426C29.7226 4.91923 29.5437 5.0342 29.3649 5.14917C29.1861 5.27691 29.02 5.39827 28.8667 5.51324C28.7262 5.62821 28.5857 5.74956 28.4451 5.87731C28.3174 5.99228 28.196 6.10725 28.0811 6.22221C27.9789 6.32441 27.8831 6.4266 27.7936 6.5288C27.7042 6.63099 27.6276 6.72041 27.5637 6.79706C27.5126 6.87371 27.4615 6.94397 27.4104 7.00784C27.3849 7.04616 27.3593 7.09087 27.3338 7.14197C27.321 7.15474 27.3146 7.16752 27.3146 7.18029C27.3146 7.19307 27.3082 7.19945 27.2954 7.19945C27.321 7.16113 27.3465 7.12919 27.3721 7.10365C27.3976 7.06532 27.4232 7.03339 27.4487 7.00784C27.4615 6.99506 27.4679 6.98229 27.4679 6.96952C27.4807 6.95674 27.4935 6.94397 27.5062 6.93119L27.5829 6.85455C27.6467 6.79067 27.6978 6.73319 27.7362 6.68209C27.7873 6.63099 27.8447 6.5799 27.9086 6.5288C28.113 6.34996 28.3302 6.17112 28.5601 5.99228C28.7773 5.81343 28.9944 5.65376 29.2116 5.51324C29.4288 5.37272 29.6459 5.23859 29.8631 5.11085C30.0803 4.9831 30.2846 4.86813 30.4763 4.76594C30.6807 4.65097 30.8787 4.54239 31.0703 4.44019C31.1214 4.40187 31.1725 4.37632 31.2236 4.36354C31.2491 4.35077 31.2683 4.338 31.281 4.32522C31.3066 4.31245 31.3321 4.29967 31.3577 4.2869ZM34.1744 4.65097C33.5996 5.57072 33.0631 6.47131 32.5649 7.35275C32.3094 7.78707 32.0731 8.21501 31.8559 8.63657C31.6387 9.05812 31.428 9.47329 31.2236 9.88207C30.4188 11.5044 29.7992 12.9479 29.3649 14.2126C29.2627 14.5319 29.1669 14.8321 29.0775 15.1132C28.9881 15.3942 28.9114 15.6625 28.8475 15.918C28.822 16.0457 28.7964 16.1671 28.7709 16.282C28.7453 16.397 28.7198 16.512 28.6942 16.6269C28.6815 16.678 28.6687 16.7291 28.6559 16.7802C28.6559 16.8313 28.6495 16.8824 28.6368 16.9335C28.6368 16.9591 28.6304 16.9782 28.6176 16.991C28.6176 17.0165 28.6176 17.0421 28.6176 17.0676C28.6176 17.0932 28.6112 17.1187 28.5984 17.1443C28.5984 17.1698 28.5984 17.1954 28.5984 17.2209C28.5729 17.3998 28.5537 17.5531 28.5409 17.6808C28.5409 17.8213 28.5409 17.9363 28.5409 18.0257V18.2365V18.3131C28.5537 18.211 28.5601 18.1151 28.5601 18.0257C28.5729 17.9491 28.5857 17.8597 28.5984 17.7575L28.7134 17.1826C28.739 17.0804 28.7581 16.9846 28.7709 16.8952C28.7964 16.8058 28.822 16.71 28.8475 16.6078L29.02 16.0329C29.2627 15.2792 29.5437 14.5064 29.8631 13.7144C30.0292 13.3311 30.1888 12.9479 30.3421 12.5647C30.5082 12.1815 30.6743 11.8046 30.8403 11.4342C31.0192 11.0637 31.1852 10.6996 31.3385 10.3419C31.5046 9.98426 31.6707 9.63936 31.8367 9.30722C32.1561 8.63018 32.4563 8.01063 32.7373 7.44855C33.0184 6.87371 33.2675 6.38189 33.4846 5.97311C33.689 5.55156 33.8615 5.22581 34.002 4.99588L34.1744 4.65097ZM46.1696 2.48571C46.1951 2.33242 46.176 2.17913 46.1121 2.02584C46.0482 1.85977 45.9588 1.71925 45.8438 1.60428C45.7799 1.54041 45.7097 1.48931 45.633 1.45099C45.5692 1.39989 45.5053 1.35518 45.4414 1.31686C45.2754 1.22744 45.1285 1.17634 45.0007 1.16357C44.8602 1.12524 44.7261 1.0997 44.5983 1.08692C44.4706 1.07415 44.362 1.06776 44.2726 1.06776H44.0618H44.0043H43.9852C44.0362 1.08053 44.0873 1.09331 44.1384 1.10608C44.1895 1.10608 44.2406 1.11247 44.2917 1.12525L44.5792 1.18273C44.6814 1.20828 44.7708 1.23383 44.8474 1.25938C44.9368 1.28492 45.0199 1.31047 45.0965 1.33602C45.1732 1.37435 45.2434 1.41267 45.3073 1.45099C45.3839 1.47654 45.4542 1.50848 45.5181 1.5468C45.5819 1.58512 45.6394 1.62345 45.6905 1.66177C45.7416 1.70009 45.7863 1.7448 45.8247 1.7959C45.9141 1.88532 45.978 1.97474 46.0163 2.06416C46.0546 2.14081 46.0865 2.21107 46.1121 2.27494C46.1249 2.31326 46.1312 2.3452 46.1312 2.37075C46.144 2.38352 46.1504 2.40268 46.1504 2.42823C46.1504 2.441 46.1568 2.45378 46.1696 2.46655V2.48571ZM34.5295 9.47968C34.5679 9.37748 34.6062 9.27529 34.6445 9.17309C34.6828 9.05812 34.7148 8.96232 34.7403 8.88567C34.7786 8.79625 34.817 8.70683 34.8553 8.61741C34.8808 8.54076 34.9319 8.45134 35.0086 8.34915C35.0852 8.24695 35.1938 8.21501 35.3343 8.25334C35.411 8.26611 35.5132 8.31082 35.6409 8.38747C35.7686 8.45134 35.8836 8.54715 35.9858 8.67489C36.1008 8.80264 36.1774 8.9687 36.2157 9.17309C36.2541 9.37748 36.2285 9.62019 36.1391 9.90123C36.0497 10.1439 35.9539 10.3867 35.8517 10.6294C35.7623 10.8721 35.6728 11.1084 35.5834 11.3383C35.3152 12.0793 35.1491 12.6541 35.0852 13.0629C35.0213 13.4717 35.0405 13.7144 35.1427 13.791H35.1619C35.213 13.8166 35.2513 13.8549 35.2768 13.906C35.3279 14.0082 35.3279 14.1104 35.2768 14.2126C35.2385 14.2764 35.1682 14.3339 35.0661 14.385C34.9766 14.4361 34.8744 14.4745 34.7595 14.5C34.6445 14.5128 34.5231 14.5064 34.3954 14.4808C34.2804 14.4553 34.1718 14.4042 34.0697 14.3275C34.0186 14.302 33.9675 14.2637 33.9164 14.2126C33.878 14.1487 33.8461 14.0848 33.8206 14.021C33.7822 13.9571 33.7503 13.8868 33.7247 13.8102C33.6864 13.708 33.6545 13.6058 33.6289 13.5036C33.6162 13.4014 33.6034 13.312 33.5906 13.2353C33.5778 13.1459 33.5778 13.0629 33.5906 12.9862C33.5906 12.7691 33.6225 12.5136 33.6864 12.2198C33.7503 11.926 33.8269 11.6258 33.9164 11.3192C34.0058 10.9998 34.1016 10.6805 34.2038 10.3611C34.3188 10.0417 34.4273 9.74794 34.5295 9.47968ZM34.6637 10.3611C34.7659 10.0417 34.8553 9.7671 34.9319 9.53716C35.0213 9.30722 35.0916 9.08367 35.1427 8.86651C34.9 9.39026 34.6956 9.89484 34.5295 10.3803C34.389 10.789 34.2613 11.217 34.1463 11.6641C34.0441 12.1112 34.0186 12.488 34.0697 12.7946C34.1207 12.5519 34.1718 12.2964 34.2229 12.0282C34.274 11.7982 34.3315 11.5427 34.3954 11.2617C34.472 10.9679 34.5615 10.6677 34.6637 10.3611ZM37.4804 5.58988C37.6082 5.65376 37.6912 5.7304 37.7295 5.81982C37.7678 5.90924 37.7742 5.99866 37.7487 6.08808C37.7359 6.15196 37.704 6.22221 37.6529 6.29886C37.6273 6.33718 37.6018 6.36912 37.5762 6.39467C37.3974 6.59906 37.2441 6.81622 37.1163 7.04616C36.9886 7.26333 36.8928 7.42939 36.8289 7.54436C36.8034 7.58268 36.765 7.64017 36.7139 7.71682C36.6756 7.79346 36.6245 7.87011 36.5607 7.94675C36.4968 8.01063 36.4265 8.06811 36.3499 8.11921C36.2732 8.15753 36.1902 8.16392 36.1008 8.13837C35.8581 8.01063 35.6856 7.87011 35.5834 7.71682C35.5451 7.66572 35.5259 7.58907 35.5259 7.48688C35.5387 7.38468 35.5515 7.28249 35.5643 7.18029C35.5898 7.0781 35.6154 6.98868 35.6409 6.91203C35.6664 6.82261 35.6856 6.76512 35.6984 6.73958C35.7239 6.63738 35.7431 6.56074 35.7559 6.50964C35.7814 6.45854 35.807 6.40744 35.8325 6.35635C35.9092 6.13918 36.0177 5.96673 36.1583 5.83898C36.2988 5.71124 36.4457 5.62182 36.599 5.57072C36.765 5.50685 36.9247 5.4813 37.078 5.49408C37.2313 5.50685 37.3654 5.53879 37.4804 5.58988ZM35.7942 7.35275C35.8708 7.12281 35.9603 6.91842 36.0625 6.73958C36.1774 6.54796 36.286 6.38189 36.3882 6.24138C36.5032 6.08808 36.6181 5.94757 36.7331 5.81982C36.5543 5.84537 36.4074 5.94118 36.2924 6.10725C36.1774 6.27331 36.0816 6.44577 36.005 6.62461C35.9155 6.85455 35.8453 7.09726 35.7942 7.35275ZM37.7798 14.5766C37.767 14.6022 37.7543 14.6341 37.7415 14.6725C37.7159 14.7363 37.684 14.7874 37.6457 14.8257C37.5946 14.8896 37.5371 14.9279 37.4732 14.9407C37.4221 14.9663 37.371 14.9854 37.3199 14.9982C37.2688 15.011 37.2113 15.0174 37.1475 15.0174C36.9686 15.0046 36.8281 14.9535 36.7259 14.8641C36.6237 14.7746 36.5407 14.6661 36.4768 14.5383C36.4129 14.4106 36.3682 14.2701 36.3427 14.1168C36.3171 13.9635 36.3044 13.8166 36.3044 13.6761C36.3171 13.2034 36.4129 12.6094 36.5918 11.894C36.6557 11.6385 36.7387 11.3511 36.8409 11.0318C36.9431 10.6996 37.0581 10.3611 37.1858 10.0162C37.3263 9.65852 37.4796 9.30084 37.6457 8.94315C37.8117 8.5727 37.9906 8.21502 38.1822 7.87011C38.3355 7.5763 38.5207 7.28249 38.7379 6.98868C38.9678 6.69487 39.2552 6.48409 39.6002 6.35635C39.8173 6.25415 40.0345 6.23499 40.2516 6.29886C40.4688 6.36273 40.6093 6.47131 40.6732 6.62461C40.7115 6.7268 40.7051 6.80984 40.654 6.87371C40.6285 6.91203 40.6029 6.93758 40.5774 6.95035C40.3602 7.19307 40.1367 7.51242 39.9067 7.90843C39.7023 8.24056 39.4724 8.6685 39.2169 9.19225C38.9614 9.716 38.6996 10.3547 38.4313 11.1084C38.4568 11.0445 38.4824 10.9871 38.5079 10.936C38.5335 10.8849 38.559 10.8274 38.5846 10.7635C38.9423 10.0226 39.2744 9.42219 39.581 8.96232C39.9003 8.48966 40.1878 8.11921 40.4433 7.85095C40.6987 7.58268 40.9159 7.39746 41.0948 7.29526C41.2864 7.18029 41.4397 7.11003 41.5546 7.08448C41.6057 7.07171 41.6632 7.06532 41.7271 7.06532C41.8037 7.05255 41.8931 7.05894 41.9953 7.08448C42.0592 7.09726 42.1231 7.12281 42.187 7.16113C42.2381 7.18668 42.2892 7.23139 42.3403 7.29526C42.4041 7.34636 42.4552 7.41662 42.4935 7.50604C42.6596 7.85095 42.6532 8.32998 42.4744 8.94315C42.8448 8.34276 43.1834 7.89566 43.4899 7.60185C43.7965 7.29526 44.0584 7.0781 44.2756 6.95035C44.5311 6.80984 44.761 6.74596 44.9654 6.75874C45.1953 6.79706 45.3678 6.90564 45.4827 7.08448C45.5849 7.25055 45.6296 7.49965 45.6169 7.83178C45.6169 8.16392 45.4955 8.64934 45.2528 9.28806C45.1251 9.60742 44.9909 9.94594 44.8504 10.3036C44.7099 10.6485 44.5758 10.9807 44.448 11.3C44.2309 11.9132 44.084 12.4178 44.0073 12.8138C43.9307 13.197 43.9051 13.4653 43.9307 13.6186L43.969 13.791C43.9818 13.8677 43.9881 13.9571 43.9881 14.0593C43.9881 14.1615 43.969 14.2573 43.9307 14.3467C43.9051 14.4361 43.854 14.5064 43.7774 14.5575C43.7135 14.6086 43.6113 14.6214 43.4708 14.5958C43.3558 14.5575 43.2472 14.5064 43.145 14.4425C43.0428 14.3786 42.9598 14.302 42.8959 14.2126C42.7937 14.0848 42.7235 13.9315 42.6852 13.7527C42.6596 13.5611 42.6468 13.3822 42.6468 13.2162C42.6468 13.0246 42.6596 12.8266 42.6852 12.6222C42.7746 11.9068 42.9215 11.2425 43.1259 10.6294C43.3303 10.0162 43.5155 9.52439 43.6816 9.15393C43.8476 8.78347 43.969 8.50244 44.0456 8.31082C44.135 8.11921 44.135 7.99785 44.0456 7.94675C44.0073 7.93398 43.9562 7.94675 43.8923 7.98508C43.8412 8.01063 43.7582 8.10005 43.6432 8.25334C43.5283 8.40663 43.3622 8.64296 43.145 8.96232C42.9406 9.2689 42.6596 9.69045 42.3019 10.227C41.9442 10.7763 41.6568 11.2872 41.4397 11.7599C41.2353 12.2198 41.0756 12.6222 40.9606 12.9671C40.8201 13.3759 40.7243 13.7463 40.6732 14.0784C40.6604 14.2062 40.6157 14.2956 40.5391 14.3467C40.4752 14.3978 40.3985 14.4297 40.3091 14.4425C40.2069 14.4681 40.092 14.4681 39.9642 14.4425C39.7726 14.4042 39.6257 14.3339 39.5235 14.2317C39.4213 14.1168 39.3447 13.9954 39.2936 13.8677C39.2552 13.7272 39.2361 13.593 39.2361 13.4653C39.2489 13.3248 39.2616 13.2098 39.2744 13.1204C39.3511 12.6988 39.4916 12.2262 39.696 11.7024C39.9003 11.1787 40.1047 10.6869 40.3091 10.227C40.5263 9.7671 40.7179 9.37748 40.884 9.05812C41.05 8.72599 41.1395 8.53437 41.1522 8.48328C41.1778 8.4194 41.1714 8.38108 41.1331 8.36831C41.1075 8.35553 41.0373 8.40663 40.9223 8.5216C40.8073 8.63657 40.6476 8.83457 40.4433 9.11561C40.2389 9.39664 39.977 9.79265 39.6576 10.3036C39.3894 10.7252 39.153 11.1467 38.9487 11.5683C38.7443 11.9898 38.5654 12.3922 38.4121 12.7755C38.2588 13.1459 38.1311 13.4908 38.0289 13.8102C37.9267 14.1168 37.8437 14.3723 37.7798 14.5766ZM36.8601 12.5455C37.1028 11.8046 37.3583 11.0829 37.6265 10.3803C37.7415 10.0865 37.8628 9.77987 37.9906 9.46052C38.1311 9.14116 38.2716 8.83457 38.4121 8.54076C38.5527 8.23418 38.6932 7.94675 38.8337 7.67849C38.987 7.41023 39.1403 7.16752 39.2936 6.95035C38.9742 7.29526 38.6676 7.72959 38.3738 8.25334C38.1183 8.70044 37.8501 9.28167 37.569 9.99704C37.3008 10.6996 37.0644 11.5491 36.8601 12.5455ZM40.0025 12.4497C40.1558 12.0282 40.3155 11.6066 40.4816 11.1851C40.6221 10.8146 40.7754 10.425 40.9415 10.0162C41.1075 9.59465 41.2736 9.21141 41.4397 8.86651C41.1842 9.27529 40.9542 9.69045 40.7498 10.112C40.571 10.4697 40.4049 10.8593 40.2516 11.2809C40.1111 11.6896 40.0281 12.0793 40.0025 12.4497ZM44.6971 9.30722C44.5949 9.56271 44.5119 9.79265 44.448 9.99704C44.3969 10.1887 44.3586 10.3547 44.3331 10.4952C44.2947 10.6613 44.2692 10.8082 44.2564 10.936C44.3586 10.591 44.4927 10.2334 44.6588 9.86291C44.8249 9.47968 44.9782 9.06451 45.1187 8.61741C45.1825 8.40024 45.2145 8.22779 45.2145 8.10005C45.2273 7.95953 45.2209 7.84456 45.1953 7.75514C45.1698 7.65294 45.1314 7.5763 45.0804 7.5252C45.1187 7.81901 45.0995 8.09366 45.0229 8.34915C44.959 8.59186 44.8504 8.91122 44.6971 9.30722ZM50.4239 11.2234C50.5644 11.2362 50.641 11.3639 50.6538 11.6066C50.6794 11.8365 50.6474 12.0856 50.558 12.3539C50.4558 12.6349 50.3089 12.916 50.1173 13.197C49.9385 13.4653 49.7085 13.708 49.4275 13.9252C49.1592 14.1295 48.8399 14.2892 48.4694 14.4042C48.1117 14.5192 47.7093 14.5575 47.2622 14.5192C46.8407 14.4808 46.4702 14.3531 46.1509 14.1359C45.8826 13.9571 45.6399 13.6888 45.4227 13.3311C45.2183 12.9607 45.1481 12.4369 45.2119 11.7599C45.2503 11.3256 45.3525 10.8849 45.5185 10.4378C45.659 10.0545 45.8698 9.64574 46.1509 9.21141C46.4447 8.76431 46.8471 8.34276 47.358 7.94675C47.6007 7.76791 47.8498 7.61462 48.1053 7.48688C48.3225 7.38468 48.5588 7.30804 48.8143 7.25694C49.0698 7.19307 49.3061 7.21223 49.5233 7.31442C49.9065 7.48049 50.1365 7.72959 50.2131 8.06172C50.2897 8.39386 50.2706 8.69405 50.1556 8.96232C50.0917 9.10283 50.0023 9.27529 49.8874 9.47968C49.7852 9.67129 49.6191 9.87568 49.3892 10.0928C49.172 10.31 48.8718 10.5272 48.4886 10.7443C48.1053 10.9615 47.6135 11.1531 47.0131 11.3192C46.8598 11.728 46.764 12.0984 46.7257 12.4306C46.7002 12.7244 46.7193 13.0054 46.7832 13.2737C46.8598 13.5291 47.0578 13.708 47.3772 13.8102C47.6838 13.9124 47.9712 13.9124 48.2395 13.8102C48.5205 13.708 48.7696 13.5547 48.9868 13.3503C49.2167 13.1459 49.4083 12.9096 49.5616 12.6413C49.7277 12.3731 49.849 12.124 49.9257 11.894C49.9512 11.8429 49.9768 11.7791 50.0023 11.7024C50.0406 11.6258 50.079 11.5491 50.1173 11.4725C50.1684 11.3958 50.2195 11.3383 50.2706 11.3C50.3217 11.2489 50.3728 11.2234 50.4239 11.2234ZM49.1017 9.38387C49.1784 9.28167 49.2231 9.17948 49.2359 9.07728C49.2614 8.97509 49.2486 8.89206 49.1975 8.82818C49.1592 8.76431 49.0826 8.73238 48.9676 8.73238C48.8526 8.73238 48.7121 8.78347 48.546 8.88567C48.38 8.98786 48.2139 9.12838 48.0478 9.30722C47.8946 9.47329 47.7604 9.63936 47.6455 9.80542C47.5305 9.97149 47.4347 10.1184 47.358 10.2461C47.2942 10.3611 47.275 10.4186 47.3005 10.4186C47.4027 10.4186 47.5369 10.3867 47.7029 10.3228C47.8818 10.2589 48.0542 10.1759 48.2203 10.0737C48.3991 9.95872 48.5652 9.84375 48.7185 9.72878C48.8846 9.60103 49.0123 9.48606 49.1017 9.38387ZM45.6335 11.6449C45.7485 11.2745 45.9018 10.904 46.0934 10.5336C46.2594 10.2142 46.4638 9.87568 46.7065 9.518C46.962 9.16032 47.2686 8.83457 47.6263 8.54076C48.1117 8.14476 48.5077 7.90204 48.8143 7.81262C49.1337 7.7232 49.3764 7.71043 49.5424 7.7743C49.4913 7.7232 49.4339 7.6721 49.37 7.62101C49.2295 7.53159 49.0379 7.50604 48.7951 7.54436C48.6419 7.56991 48.4183 7.6721 48.1245 7.85095C47.8435 8.02979 47.5433 8.28527 47.2239 8.61741C46.9045 8.94954 46.598 9.37109 46.3041 9.88207C46.0231 10.3803 45.7996 10.9679 45.6335 11.6449Z" fill="white"/>
</svg>
