<svg width="34" height="34" viewBox="0 0 32 32" fill="none" xmlns="http://www.w3.org/2000/svg">
<rect width="32" height="32" rx="4" fill="#AECD5E"/>
<mask id="mask0_29_2703" style="mask-type:alpha" maskUnits="userSpaceOnUse" x="8" y="8" width="16" height="16">
<rect x="8" y="8" width="16" height="16" fill="#D9D9D9"/>
</mask>
<g mask="url(#mask0_29_2703)">
<path d="M18.2002 19.1333L19.1335 18.2L16.6668 15.7333V12.6667H15.3335V16.2667L18.2002 19.1333ZM16.0002 22.6667C15.0779 22.6667 14.2113 22.4916 13.4002 22.1413C12.5891 21.7916 11.8835 21.3167 11.2835 20.7167C10.6835 20.1167 10.2086 19.4111 9.85883 18.6C9.50861 17.7889 9.3335 16.9222 9.3335 16C9.3335 15.0778 9.50861 14.2111 9.85883 13.4C10.2086 12.5889 10.6835 11.8833 11.2835 11.2833C11.8835 10.6833 12.5891 10.2082 13.4002 9.85801C14.2113 9.50823 15.0779 9.33334 16.0002 9.33334C16.9224 9.33334 17.7891 9.50823 18.6002 9.85801C19.4113 10.2082 20.1168 10.6833 20.7168 11.2833C21.3168 11.8833 21.7917 12.5889 22.1415 13.4C22.4917 14.2111 22.6668 15.0778 22.6668 16C22.6668 16.9222 22.4917 17.7889 22.1415 18.6C21.7917 19.4111 21.3168 20.1167 20.7168 20.7167C20.1168 21.3167 19.4113 21.7916 18.6002 22.1413C17.7891 22.4916 16.9224 22.6667 16.0002 22.6667Z" fill="white"/>
</g>
</svg>
