<svg width="34" height="34" viewBox="0 0 32 32" fill="none" xmlns="http://www.w3.org/2000/svg">
<rect width="32" height="32" rx="4" fill="#4C7FBD"/>
<mask id="mask0_29_2691" style="mask-type:alpha" maskUnits="userSpaceOnUse" x="8" y="8" width="16" height="16">
<rect x="8" y="8" width="16" height="16" fill="#D9D9D9"/>
</mask>
<g mask="url(#mask0_29_2691)">
<path d="M16.6668 21.3333C16.6668 20.3222 16.4751 19.3722 16.0915 18.4833C15.7084 17.5944 15.1835 16.8167 14.5168 16.15C13.8502 15.4833 13.0724 14.9584 12.1835 14.5753C11.2946 14.1918 10.3446 14 9.3335 14V12C9.3335 11.6333 9.46416 11.3196 9.7255 11.0587C9.98638 10.7973 10.3002 10.6667 10.6668 10.6667H21.3335C21.7002 10.6667 22.0142 10.7973 22.2755 11.0587C22.5364 11.3196 22.6668 11.6333 22.6668 12V20C22.6668 20.3667 22.5364 20.6807 22.2755 20.942C22.0142 21.2029 21.7002 21.3333 21.3335 21.3333H16.6668ZM14.0002 21.3333C14.0002 20.0333 13.5475 18.9304 12.6422 18.0247C11.7364 17.1193 10.6335 16.6667 9.3335 16.6667V15.3333C10.1668 15.3333 10.9475 15.4916 11.6755 15.808C12.4031 16.1249 13.0364 16.5527 13.5755 17.0913C14.1142 17.6304 14.5419 18.264 14.8588 18.992C15.1753 19.7196 15.3335 20.5 15.3335 21.3333H14.0002ZM11.3335 21.3333C11.3335 20.7778 11.1391 20.3056 10.7502 19.9167C10.3613 19.5278 9.88905 19.3333 9.3335 19.3333V18C10.2557 18 11.0417 18.3249 11.6915 18.9747C12.3417 19.6249 12.6668 20.4111 12.6668 21.3333H11.3335ZM17.8335 15.8667L20.5002 14.3333L17.8335 12.8L15.1668 14.3333L17.8335 15.8667ZM17.8335 17.9L19.6668 16.8333V15.4333L17.8335 16.5L16.0002 15.4333V16.8333L17.8335 17.9Z" fill="white"/>
</g>
</svg>
