<svg width="34" height="34" viewBox="0 0 32 32" fill="none" xmlns="http://www.w3.org/2000/svg">
<rect width="32" height="32" rx="4" fill="#ED6BA6"/>
<mask id="mask0_29_2707" style="mask-type:alpha" maskUnits="userSpaceOnUse" x="8" y="8" width="16" height="16">
<rect x="8" y="8" width="16" height="16" fill="#D9D9D9"/>
</mask>
<g mask="url(#mask0_29_2707)">
<path d="M8 20V18.95C8 18.4722 8.24444 18.0833 8.73333 17.7833C9.22222 17.4833 9.86667 17.3333 10.6667 17.3333C10.8111 17.3333 10.95 17.336 11.0833 17.3413C11.2167 17.3471 11.3444 17.3611 11.4667 17.3833C11.3111 17.6167 11.1944 17.8611 11.1167 18.1167C11.0389 18.3722 11 18.6389 11 18.9167V20H8ZM12 20V18.9167C12 18.5611 12.0973 18.236 12.292 17.9413C12.4862 17.6471 12.7611 17.3889 13.1167 17.1667C13.4722 16.9444 13.8973 16.7778 14.392 16.6667C14.8862 16.5556 15.4222 16.5 16 16.5C16.5889 16.5 17.1307 16.5556 17.6253 16.6667C18.1196 16.7778 18.5444 16.9444 18.9 17.1667C19.2556 17.3889 19.5278 17.6471 19.7167 17.9413C19.9056 18.236 20 18.5611 20 18.9167V20H12ZM21 20V18.9167C21 18.6278 20.9638 18.3556 20.8913 18.1C20.8193 17.8444 20.7111 17.6056 20.5667 17.3833C20.6889 17.3611 20.814 17.3471 20.942 17.3413C21.0696 17.336 21.2 17.3333 21.3333 17.3333C22.1333 17.3333 22.7778 17.4804 23.2667 17.7747C23.7556 18.0693 24 18.4611 24 18.95V20H21ZM10.6667 16.6667C10.3 16.6667 9.98622 16.536 9.72533 16.2747C9.464 16.0138 9.33333 15.7 9.33333 15.3333C9.33333 14.9556 9.464 14.6389 9.72533 14.3833C9.98622 14.1278 10.3 14 10.6667 14C11.0444 14 11.3611 14.1278 11.6167 14.3833C11.8722 14.6389 12 14.9556 12 15.3333C12 15.7 11.8722 16.0138 11.6167 16.2747C11.3611 16.536 11.0444 16.6667 10.6667 16.6667ZM21.3333 16.6667C20.9667 16.6667 20.6527 16.536 20.3913 16.2747C20.1304 16.0138 20 15.7 20 15.3333C20 14.9556 20.1304 14.6389 20.3913 14.3833C20.6527 14.1278 20.9667 14 21.3333 14C21.7111 14 22.0278 14.1278 22.2833 14.3833C22.5389 14.6389 22.6667 14.9556 22.6667 15.3333C22.6667 15.7 22.5389 16.0138 22.2833 16.2747C22.0278 16.536 21.7111 16.6667 21.3333 16.6667ZM16 16C15.4444 16 14.9722 15.8056 14.5833 15.4167C14.1944 15.0278 14 14.5556 14 14C14 13.4333 14.1944 12.9582 14.5833 12.5747C14.9722 12.1916 15.4444 12 16 12C16.5667 12 17.0416 12.1916 17.4247 12.5747C17.8082 12.9582 18 13.4333 18 14C18 14.5556 17.8082 15.0278 17.4247 15.4167C17.0416 15.8056 16.5667 16 16 16Z" fill="white"/>
</g>
</svg>
