<svg width="34" height="34" viewBox="0 0 32 32" fill="none" xmlns="http://www.w3.org/2000/svg">
<rect width="32" height="32" rx="2.4586" fill="#EA6B45"/>
<mask id="mask0_25_992" style="mask-type:alpha" maskUnits="userSpaceOnUse" x="8" y="8" width="16" height="16">
<rect x="8" y="8" width="16" height="16" fill="#D9D9D9"/>
</mask>
<g mask="url(#mask0_25_992)">
<path d="M15.3335 19.3333H16.6668V18.6667H17.3335C17.5224 18.6667 17.6808 18.6027 17.8088 18.4747C17.9364 18.3471 18.0002 18.1889 18.0002 18V16C18.0002 15.8111 17.9364 15.6527 17.8088 15.5247C17.6808 15.3971 17.5224 15.3333 17.3335 15.3333H15.3335V14.6667H18.0002V13.3333H16.6668V12.6667H15.3335V13.3333H14.6668C14.4779 13.3333 14.3197 13.3971 14.1922 13.5247C14.0642 13.6527 14.0002 13.8111 14.0002 14V16C14.0002 16.1889 14.0642 16.3471 14.1922 16.4747C14.3197 16.6027 14.4779 16.6667 14.6668 16.6667H16.6668V17.3333H14.0002V18.6667H15.3335V19.3333ZM10.6668 21.3333C10.3002 21.3333 9.98638 21.2029 9.7255 20.942C9.46416 20.6807 9.3335 20.3667 9.3335 20V12C9.3335 11.6333 9.46416 11.3195 9.7255 11.0587C9.98638 10.7973 10.3002 10.6667 10.6668 10.6667H21.3335C21.7002 10.6667 22.0142 10.7973 22.2755 11.0587C22.5364 11.3195 22.6668 11.6333 22.6668 12V20C22.6668 20.3667 22.5364 20.6807 22.2755 20.942C22.0142 21.2029 21.7002 21.3333 21.3335 21.3333H10.6668Z" fill="white"/>
</g>
</svg>

